<?xml version="1.0" encoding="utf-8"?>
<svg version="1.1" xmlns:xlink="http://www.w3.org/1999/xlink" width="151px" height="28px" xmlns="http://www.w3.org/2000/svg">
  <defs>
    <pattern id="BGPattern" patternUnits="userSpaceOnUse" alignment="0 0" imageRepeat="None" />
    <mask fill="white" id="Clip236">
      <path d="M 0 2.0999999999999943  C 0 0.9402020599999901  0.6671546324013112 0  1.4901315789473684 0  L 149.50986842105263 0  C 150.33284524342108 0  151 0.9402020599999901  151 2.0999999999999943  L 151 25.900000000000006  C 151 27.05979794000001  150.33284524342108 28  149.50986842105263 28  L 1.4901315789473684 28  C 0.6671546324013112 28  0 27.05979794000001  0 25.900000000000006  L 0 2.0999999999999943  Z " fill-rule="evenodd" />
    </mask>
  </defs>
  <g transform="matrix(1 0 0 1 0 -1 )">
    <path d="M 0 2.0999999999999943  C 0 0.9402020599999901  0.6671546324013112 0  1.4901315789473684 0  L 149.50986842105263 0  C 150.33284524342108 0  151 0.9402020599999901  151 2.0999999999999943  L 151 25.900000000000006  C 151 27.05979794000001  150.33284524342108 28  149.50986842105263 28  L 1.4901315789473684 28  C 0.6671546324013112 28  0 27.05979794000001  0 25.900000000000006  L 0 2.0999999999999943  Z " fill-rule="nonzero" fill="rgba(255, 255, 255, 1)" stroke="none" transform="matrix(1 0 0 1 0 1 )" class="fill" />
    <path d="M 0 2.0999999999999943  C 0 0.9402020599999901  0.6671546324013112 0  1.4901315789473684 0  L 149.50986842105263 0  C 150.33284524342108 0  151 0.9402020599999901  151 2.0999999999999943  L 151 25.900000000000006  C 151 27.05979794000001  150.33284524342108 28  149.50986842105263 28  L 1.4901315789473684 28  C 0.6671546324013112 28  0 27.05979794000001  0 25.900000000000006  L 0 2.0999999999999943  Z " stroke-width="0" stroke-dasharray="0" stroke="rgba(255, 255, 255, 0)" fill="none" transform="matrix(1 0 0 1 0 1 )" class="stroke" mask="url(#Clip236)" />
  </g>
</svg>