<?xml version="1.0" encoding="utf-8"?>
<svg version="1.1" xmlns:xlink="http://www.w3.org/1999/xlink" width="159px" height="28px" xmlns="http://www.w3.org/2000/svg">
  <defs>
    <pattern id="BGPattern" patternUnits="userSpaceOnUse" alignment="0 0" imageRepeat="None" />
    <mask fill="white" id="Clip1316">
      <path d="M 1.2421875 0  C 1.2421875 0  157.7578125 0  157.7578125 0  C 158.1008331375 0  158.4113800125 0.24484427712500012  158.636171728125 0.6407039187500001  C 158.86096344375 1.0365635525  159 1.5834385525  159 2.1875  C 159 2.1875  159 25.8125  159 25.8125  C 159 26.416561412500002  158.86096344375 26.963436412500002  158.636171728125 27.359296125  C 158.4113800125 27.755155750000004  158.1008331375 28  157.7578125 28  C 157.7578125 28  1.2421875 28  1.2421875 28  C 0.8991668923125001 28  0.5886200173125 27.755155750000004  0.3638282967187507 27.359296125  C 0.1390365716531242 26.963436412500002  0 26.416561412500002  0 25.8125  C 0 25.8125  0 2.1875  0 2.1875  C 0 1.5834385525  0.1390365716531242 1.0365635525  0.3638282967187507 0.6407039187500001  C 0.5886200173125 0.24484427712500012  0.8991668923125001 0  1.2421875 0  Z " fill-rule="evenodd" />
    </mask>
  </defs>
  <g transform="matrix(1 0 0 1 -372 -189 )">
    <path d="M 1.2421875 0  C 1.2421875 0  157.7578125 0  157.7578125 0  C 158.1008331375 0  158.4113800125 0.24484427712500012  158.636171728125 0.6407039187500001  C 158.86096344375 1.0365635525  159 1.5834385525  159 2.1875  C 159 2.1875  159 25.8125  159 25.8125  C 159 26.416561412500002  158.86096344375 26.963436412500002  158.636171728125 27.359296125  C 158.4113800125 27.755155750000004  158.1008331375 28  157.7578125 28  C 157.7578125 28  1.2421875 28  1.2421875 28  C 0.8991668923125001 28  0.5886200173125 27.755155750000004  0.3638282967187507 27.359296125  C 0.1390365716531242 26.963436412500002  0 26.416561412500002  0 25.8125  C 0 25.8125  0 2.1875  0 2.1875  C 0 1.5834385525  0.1390365716531242 1.0365635525  0.3638282967187507 0.6407039187500001  C 0.5886200173125 0.24484427712500012  0.8991668923125001 0  1.2421875 0  Z " fill-rule="nonzero" fill="rgba(255, 255, 255, 0)" stroke="none" transform="matrix(1 0 0 1 372 189 )" class="fill" />
    <path d="M 1.2421875 0  C 1.2421875 0  157.7578125 0  157.7578125 0  C 158.1008331375 0  158.4113800125 0.24484427712500012  158.636171728125 0.6407039187500001  C 158.86096344375 1.0365635525  159 1.5834385525  159 2.1875  C 159 2.1875  159 25.8125  159 25.8125  C 159 26.416561412500002  158.86096344375 26.963436412500002  158.636171728125 27.359296125  C 158.4113800125 27.755155750000004  158.1008331375 28  157.7578125 28  C 157.7578125 28  1.2421875 28  1.2421875 28  C 0.8991668923125001 28  0.5886200173125 27.755155750000004  0.3638282967187507 27.359296125  C 0.1390365716531242 26.963436412500002  0 26.416561412500002  0 25.8125  C 0 25.8125  0 2.1875  0 2.1875  C 0 1.5834385525  0.1390365716531242 1.0365635525  0.3638282967187507 0.6407039187500001  C 0.5886200173125 0.24484427712500012  0.8991668923125001 0  1.2421875 0  Z " stroke-width="0" stroke-dasharray="0" stroke="rgba(0, 82, 217, 1)" fill="none" transform="matrix(1 0 0 1 372 189 )" class="stroke" mask="url(#Clip1316)" />
  </g>
</svg>