<?xml version="1.0" encoding="utf-8"?>
<svg version="1.1" xmlns:xlink="http://www.w3.org/1999/xlink" width="7px" height="7px" xmlns="http://www.w3.org/2000/svg">
  <defs>
    <pattern id="BGPattern" patternUnits="userSpaceOnUse" alignment="0 0" imageRepeat="None" />
    <mask fill="white" id="Clip665">
      <path d="M 0 3.5  C 0 1.5399999999999998  1.5399999999999998 0  3.5 0  C 5.46 0  7 1.5399999999999998  7 3.5  C 7 5.46  5.46 7  3.5 7  C 1.5399999999999998 7  0 5.46  0 3.5  Z " fill-rule="evenodd" />
    </mask>
  </defs>
  <g transform="matrix(1 0 0 1 -48 -817 )">
    <path d="M 0 3.5  C 0 1.5399999999999998  1.5399999999999998 0  3.5 0  C 5.46 0  7 1.5399999999999998  7 3.5  C 7 5.46  5.46 7  3.5 7  C 1.5399999999999998 7  0 5.46  0 3.5  Z " fill-rule="nonzero" fill="rgba(170, 170, 170, 1)" stroke="none" transform="matrix(1 0 0 1 48 817 )" class="fill" />
    <path d="M 0 3.5  C 0 1.5399999999999998  1.5399999999999998 0  3.5 0  C 5.46 0  7 1.5399999999999998  7 3.5  C 7 5.46  5.46 7  3.5 7  C 1.5399999999999998 7  0 5.46  0 3.5  Z " stroke-width="2" stroke-dasharray="0" stroke="rgba(170, 170, 170, 1)" fill="none" transform="matrix(1 0 0 1 48 817 )" class="stroke" mask="url(#Clip665)" />
  </g>
</svg>