<?xml version="1.0" encoding="utf-8"?>
<svg version="1.1" xmlns:xlink="http://www.w3.org/1999/xlink" width="52px" height="68px" xmlns="http://www.w3.org/2000/svg">
  <defs>
    <pattern id="BGPattern" patternUnits="userSpaceOnUse" alignment="0 0" imageRepeat="None" />
    <mask fill="white" id="Clip687">
      <path d="M 22.418236015325668 67.89590615835776  L 0.15201532567049808 65.70090205278592  C 2.7784822966063834 39.00993658397875  17.215665825530856 14.90122896850219  39.49567356321839 0.0007777126099681535  L 51.92596475095785 18.620812903225797  C 35.21596462168505 29.79615448400792  24.388082751897528 47.8776847051072  22.418236015325668 67.89590615835776  Z " fill-rule="evenodd" />
    </mask>
  </defs>
  <g transform="matrix(1 0 0 1 -1716 -812 )">
    <path d="M 22.418236015325668 67.89590615835776  L 0.15201532567049808 65.70090205278592  C 2.7784822966063834 39.00993658397875  17.215665825530856 14.90122896850219  39.49567356321839 0.0007777126099681535  L 51.92596475095785 18.620812903225797  C 35.21596462168505 29.79615448400792  24.388082751897528 47.8776847051072  22.418236015325668 67.89590615835776  Z " fill-rule="nonzero" fill="rgba(255, 171, 0, 1)" stroke="none" transform="matrix(1 0 0 1 1716 812 )" class="fill" />
    <path d="M 22.418236015325668 67.89590615835776  L 0.15201532567049808 65.70090205278592  C 2.7784822966063834 39.00993658397875  17.215665825530856 14.90122896850219  39.49567356321839 0.0007777126099681535  L 51.92596475095785 18.620812903225797  C 35.21596462168505 29.79615448400792  24.388082751897528 47.8776847051072  22.418236015325668 67.89590615835776  Z " stroke-width="0" stroke-dasharray="0" stroke="rgba(255, 255, 255, 0)" fill="none" transform="matrix(1 0 0 1 1716 812 )" class="stroke" mask="url(#Clip687)" />
  </g>
</svg>