<?xml version="1.0" encoding="utf-8"?>
<svg version="1.1" xmlns:xlink="http://www.w3.org/1999/xlink" width="37px" height="32px" xmlns="http://www.w3.org/2000/svg">
  <defs>
    <pattern id="BGPattern" patternUnits="userSpaceOnUse" alignment="0 0" imageRepeat="None" />
    <mask fill="white" id="Clip688">
      <path d="M 12.52568 31.877116049382707  L 0.04757999999999924 13.432869135802472  C 9.857218049538188 6.9591980567045  20.86182279593612 2.4572140537996705  32.43308 0.18396049382715915  L 36.81481999999998 21.940424691358018  C 28.13637114349547 23.6453660244173  19.882912271223528 27.02185747079691  12.52568 31.877116049382707  Z " fill-rule="evenodd" />
    </mask>
  </defs>
  <g transform="matrix(1 0 0 1 -1756 -799 )">
    <path d="M 12.52568 31.877116049382707  L 0.04757999999999924 13.432869135802472  C 9.857218049538188 6.9591980567045  20.86182279593612 2.4572140537996705  32.43308 0.18396049382715915  L 36.81481999999998 21.940424691358018  C 28.13637114349547 23.6453660244173  19.882912271223528 27.02185747079691  12.52568 31.877116049382707  Z " fill-rule="nonzero" fill="rgba(193, 193, 193, 1)" stroke="none" transform="matrix(1 0 0 1 1756 799 )" class="fill" />
    <path d="M 12.52568 31.877116049382707  L 0.04757999999999924 13.432869135802472  C 9.857218049538188 6.9591980567045  20.86182279593612 2.4572140537996705  32.43308 0.18396049382715915  L 36.81481999999998 21.940424691358018  C 28.13637114349547 23.6453660244173  19.882912271223528 27.02185747079691  12.52568 31.877116049382707  Z " stroke-width="0" stroke-dasharray="0" stroke="rgba(255, 255, 255, 0)" fill="none" transform="matrix(1 0 0 1 1756 799 )" class="stroke" mask="url(#Clip688)" />
  </g>
</svg>