<?xml version="1.0" encoding="utf-8"?>
<svg version="1.1" xmlns:xlink="http://www.w3.org/1999/xlink" width="48px" height="45px" xmlns="http://www.w3.org/2000/svg">
  <defs>
    <pattern id="BGPattern" patternUnits="userSpaceOnUse" alignment="0 0" imageRepeat="None" />
    <mask fill="white" id="Clip696">
      <path d="M 42.965333333333525 37.792942500331165  C 42.96414814801697 37.792942500331165  42.962962962760834 37.79294205904427  42.96177777777778 37  L 5.038222222222223 37  C 5.037037037252266 37.792942059044265  5.035851851969937 37.792942500331165  5.034666666666478 37.792942500331165  C 2.417082412357332 37.792942500331165  0.29511111111092386 35.68657392924098  0.29511111111092386 33.08823661797822  C 0.29511111111092386 33.0882361774318  0.29511111111098626 33.08823573466407  1 33.08823529411765  L 1 4.85294117647059  C 0.29511111111098626 4.852940735924165  0.29511111111092386 4.85294029315645  0.29511111111092386 4.8529398526100245  C 0.29511111111092386 2.25460254134727  2.417082412357332 0.14823397025708485  5.034666666666478 0.14823397025708485  C 5.035851851975547 0.14823397025708485  5.037037037246654 0.1482344115439703  5.038222222222222 1  L 42.96177777777778 1  C 42.96296296275522 0.14823441154396874  42.96414814802258 0.14823397025708485  42.965333333333525 0.14823397025708485  C 45.58291758764267 0.14823397025708485  47.70488888888907 2.25460254134727  47.70488888888907 4.8529398526100245  C 47.70488888888907 4.852940288206491  47.70488888888902 4.852940740874124  47 4.852941176470589  L 47 33.08823529411765  C 47.70488888888902 33.08823573961402  47.70488888888907 33.08823617248184  47.70488888888907 33.08823661797822  C 47.70488888888907 35.68657392924098  45.58291758764267 37.792942500331165  42.965333333333525 37.792942500331165  Z M 43 30.734117647058827  L 43 7.20705882352941  C 42.9617792482428 5.908292622503169  41.9021629987178 4.854888352183451  40.59377777777778 5  L 7.406222222222221 5  C 6.0978370012822065 4.854888352183455  5.038220751757202 5.908292622503171  5 7.207058823529411  L 5 30.734117647058827  C 5.038222222222223 32.03647058823529  6.097777777777779 33.08823529411765  7.406222222222223 33  L 40.59377777777778 33  C 41.9021629987178 33.08628811840479  42.9617792482428 32.03288384808507  43 30.734117647058827  Z M 7.498032009483933 42.49941176470588  C 7.498032009483933 41.23472663056782  8.504679667957014 40.19601844956316  9.777777777777777 40  L 38.22222222222222 40  C 39.49532033204299 40.19601844956316  40.50196799051607 41.23472663056782  40.50196799051607 42.49941176470588  C 40.50196799051607 43.764096898843945  39.49532033204299 44.802805079848596  38.22222222222222 44  L 9.777777777777777 44  C 8.504679667957014 44.802805079848596  7.498032009483933 43.764096898843945  7.498032009483933 42.49941176470588  Z M 16.764444444444443 17.68235294117647  L 16.76088888888889 17.68235294117647  C 17.720888888888886 16.799999999999997  18.96177777777778 16.57411764705882  19.534222222222226 17.18470588235294  L 22.940444444444445 20.80941176470588  L 29.873777777777782 14.392941176470586  C 30.316650044853603 13.964487507263591  30.910605003477862 13.724701347560902  31.52902076771204 13.724701347560902  C 32.838794734421874 13.724701347560902  33.90057632326759 14.778675718841589  33.90057632326759 16.078818994619727  C 33.90057632326759 16.749048459110792  33.612777731311446 17.387502748199008  33.10933333333334 17.83411764705882  L 24.44088888888889 25.852941176470587  C 23.676611458471964 26.560602354390372  22.535736012706245 26.688186294085774  21.632 26.16705882352941  L 21.45422222222222 26.078823529411764  C 21.38379966455682 26.034038312676685  21.319298708766397 25.98068274262947  21.262222222222224 25.919999999999998  L 16.071111111111108 20.392941176470586  C 15.498666666666667 19.78235294117647  15.808 18.568235294117645  16.764444444444443 17.68235294117647  Z " fill-rule="evenodd" />
    </mask>
  </defs>
  <g transform="matrix(1 0 0 1 -531 -138 )">
    <path d="M 42.965333333333525 37.792942500331165  C 42.96414814801697 37.792942500331165  42.962962962760834 37.79294205904427  42.96177777777778 37  L 5.038222222222223 37  C 5.037037037252266 37.792942059044265  5.035851851969937 37.792942500331165  5.034666666666478 37.792942500331165  C 2.417082412357332 37.792942500331165  0.29511111111092386 35.68657392924098  0.29511111111092386 33.08823661797822  C 0.29511111111092386 33.0882361774318  0.29511111111098626 33.08823573466407  1 33.08823529411765  L 1 4.85294117647059  C 0.29511111111098626 4.852940735924165  0.29511111111092386 4.85294029315645  0.29511111111092386 4.8529398526100245  C 0.29511111111092386 2.25460254134727  2.417082412357332 0.14823397025708485  5.034666666666478 0.14823397025708485  C 5.035851851975547 0.14823397025708485  5.037037037246654 0.1482344115439703  5.038222222222222 1  L 42.96177777777778 1  C 42.96296296275522 0.14823441154396874  42.96414814802258 0.14823397025708485  42.965333333333525 0.14823397025708485  C 45.58291758764267 0.14823397025708485  47.70488888888907 2.25460254134727  47.70488888888907 4.8529398526100245  C 47.70488888888907 4.852940288206491  47.70488888888902 4.852940740874124  47 4.852941176470589  L 47 33.08823529411765  C 47.70488888888902 33.08823573961402  47.70488888888907 33.08823617248184  47.70488888888907 33.08823661797822  C 47.70488888888907 35.68657392924098  45.58291758764267 37.792942500331165  42.965333333333525 37.792942500331165  Z M 43 30.734117647058827  L 43 7.20705882352941  C 42.9617792482428 5.908292622503169  41.9021629987178 4.854888352183451  40.59377777777778 5  L 7.406222222222221 5  C 6.0978370012822065 4.854888352183455  5.038220751757202 5.908292622503171  5 7.207058823529411  L 5 30.734117647058827  C 5.038222222222223 32.03647058823529  6.097777777777779 33.08823529411765  7.406222222222223 33  L 40.59377777777778 33  C 41.9021629987178 33.08628811840479  42.9617792482428 32.03288384808507  43 30.734117647058827  Z M 7.498032009483933 42.49941176470588  C 7.498032009483933 41.23472663056782  8.504679667957014 40.19601844956316  9.777777777777777 40  L 38.22222222222222 40  C 39.49532033204299 40.19601844956316  40.50196799051607 41.23472663056782  40.50196799051607 42.49941176470588  C 40.50196799051607 43.764096898843945  39.49532033204299 44.802805079848596  38.22222222222222 44  L 9.777777777777777 44  C 8.504679667957014 44.802805079848596  7.498032009483933 43.764096898843945  7.498032009483933 42.49941176470588  Z M 16.764444444444443 17.68235294117647  L 16.76088888888889 17.68235294117647  C 17.720888888888886 16.799999999999997  18.96177777777778 16.57411764705882  19.534222222222226 17.18470588235294  L 22.940444444444445 20.80941176470588  L 29.873777777777782 14.392941176470586  C 30.316650044853603 13.964487507263591  30.910605003477862 13.724701347560902  31.52902076771204 13.724701347560902  C 32.838794734421874 13.724701347560902  33.90057632326759 14.778675718841589  33.90057632326759 16.078818994619727  C 33.90057632326759 16.749048459110792  33.612777731311446 17.387502748199008  33.10933333333334 17.83411764705882  L 24.44088888888889 25.852941176470587  C 23.676611458471964 26.560602354390372  22.535736012706245 26.688186294085774  21.632 26.16705882352941  L 21.45422222222222 26.078823529411764  C 21.38379966455682 26.034038312676685  21.319298708766397 25.98068274262947  21.262222222222224 25.919999999999998  L 16.071111111111108 20.392941176470586  C 15.498666666666667 19.78235294117647  15.808 18.568235294117645  16.764444444444443 17.68235294117647  Z " fill-rule="nonzero" fill="rgba(0, 190, 85, 1)" stroke="none" transform="matrix(1 0 0 1 531 138 )" class="fill" />
    <path d="M 42.965333333333525 37.792942500331165  C 42.96414814801697 37.792942500331165  42.962962962760834 37.79294205904427  42.96177777777778 37  L 5.038222222222223 37  C 5.037037037252266 37.792942059044265  5.035851851969937 37.792942500331165  5.034666666666478 37.792942500331165  C 2.417082412357332 37.792942500331165  0.29511111111092386 35.68657392924098  0.29511111111092386 33.08823661797822  C 0.29511111111092386 33.0882361774318  0.29511111111098626 33.08823573466407  1 33.08823529411765  L 1 4.85294117647059  C 0.29511111111098626 4.852940735924165  0.29511111111092386 4.85294029315645  0.29511111111092386 4.8529398526100245  C 0.29511111111092386 2.25460254134727  2.417082412357332 0.14823397025708485  5.034666666666478 0.14823397025708485  C 5.035851851975547 0.14823397025708485  5.037037037246654 0.1482344115439703  5.038222222222222 1  L 42.96177777777778 1  C 42.96296296275522 0.14823441154396874  42.96414814802258 0.14823397025708485  42.965333333333525 0.14823397025708485  C 45.58291758764267 0.14823397025708485  47.70488888888907 2.25460254134727  47.70488888888907 4.8529398526100245  C 47.70488888888907 4.852940288206491  47.70488888888902 4.852940740874124  47 4.852941176470589  L 47 33.08823529411765  C 47.70488888888902 33.08823573961402  47.70488888888907 33.08823617248184  47.70488888888907 33.08823661797822  C 47.70488888888907 35.68657392924098  45.58291758764267 37.792942500331165  42.965333333333525 37.792942500331165  Z " stroke-width="0" stroke-dasharray="0" stroke="rgba(255, 255, 255, 0)" fill="none" transform="matrix(1 0 0 1 531 138 )" class="stroke" mask="url(#Clip696)" />
    <path d="M 43 30.734117647058827  L 43 7.20705882352941  C 42.9617792482428 5.908292622503169  41.9021629987178 4.854888352183451  40.59377777777778 5  L 7.406222222222221 5  C 6.0978370012822065 4.854888352183455  5.038220751757202 5.908292622503171  5 7.207058823529411  L 5 30.734117647058827  C 5.038222222222223 32.03647058823529  6.097777777777779 33.08823529411765  7.406222222222223 33  L 40.59377777777778 33  C 41.9021629987178 33.08628811840479  42.9617792482428 32.03288384808507  43 30.734117647058827  Z " stroke-width="0" stroke-dasharray="0" stroke="rgba(255, 255, 255, 0)" fill="none" transform="matrix(1 0 0 1 531 138 )" class="stroke" mask="url(#Clip696)" />
    <path d="M 7.498032009483933 42.49941176470588  C 7.498032009483933 41.23472663056782  8.504679667957014 40.19601844956316  9.777777777777777 40  L 38.22222222222222 40  C 39.49532033204299 40.19601844956316  40.50196799051607 41.23472663056782  40.50196799051607 42.49941176470588  C 40.50196799051607 43.764096898843945  39.49532033204299 44.802805079848596  38.22222222222222 44  L 9.777777777777777 44  C 8.504679667957014 44.802805079848596  7.498032009483933 43.764096898843945  7.498032009483933 42.49941176470588  Z " stroke-width="0" stroke-dasharray="0" stroke="rgba(255, 255, 255, 0)" fill="none" transform="matrix(1 0 0 1 531 138 )" class="stroke" mask="url(#Clip696)" />
    <path d="M 16.764444444444443 17.68235294117647  L 16.76088888888889 17.68235294117647  C 17.720888888888886 16.799999999999997  18.96177777777778 16.57411764705882  19.534222222222226 17.18470588235294  L 22.940444444444445 20.80941176470588  L 29.873777777777782 14.392941176470586  C 30.316650044853603 13.964487507263591  30.910605003477862 13.724701347560902  31.52902076771204 13.724701347560902  C 32.838794734421874 13.724701347560902  33.90057632326759 14.778675718841589  33.90057632326759 16.078818994619727  C 33.90057632326759 16.749048459110792  33.612777731311446 17.387502748199008  33.10933333333334 17.83411764705882  L 24.44088888888889 25.852941176470587  C 23.676611458471964 26.560602354390372  22.535736012706245 26.688186294085774  21.632 26.16705882352941  L 21.45422222222222 26.078823529411764  C 21.38379966455682 26.034038312676685  21.319298708766397 25.98068274262947  21.262222222222224 25.919999999999998  L 16.071111111111108 20.392941176470586  C 15.498666666666667 19.78235294117647  15.808 18.568235294117645  16.764444444444443 17.68235294117647  Z " stroke-width="0" stroke-dasharray="0" stroke="rgba(255, 255, 255, 0)" fill="none" transform="matrix(1 0 0 1 531 138 )" class="stroke" mask="url(#Clip696)" />
  </g>
</svg>