<?xml version="1.0" encoding="utf-8"?>
<svg version="1.1" xmlns:xlink="http://www.w3.org/1999/xlink" width="50px" height="45px" xmlns="http://www.w3.org/2000/svg">
  <defs>
    <pattern id="BGPattern" patternUnits="userSpaceOnUse" alignment="0 0" imageRepeat="None" />
    <mask fill="white" id="Clip698">
      <path d="M 50 5.386363636363637  C 49.994369369369366 2.4034090909090917  47.663288288288285 0  44.73536036036036 0  L 5.737612612612613 0  C 2.8096846846846852 0  0.37725225225225245 2.4034090909090917  1 5.3806818181818175  L 1 30.414772727272727  C 0.37725225225225245 33.36931818181818  2.8096846846846852 35.79545454545455  5.737612612612613 35  L 16.379504504504503 35  L 16.379504504504503 41.15340909090909  L 13.699324324324321 41.15340909090909  C 12.730855855855856 41.15340909090909  11.936936936936934 41.93181818181818  11.936936936936934 42.93181818181817  C 11.936936936936934 43.90909090909091  12.730855855855856 44.710227272727266  13.699324324324321 44  L 36.74549549549549 44  C 37.71396396396396 44.710227272727266  38.507882882882875 43.93181818181817  38.507882882882875 42.93181818181817  C 38.507882882882875 41.954545454545446  37.713963963963955 41.15340909090909  36.74549549549549 41.15340909090909  L 32.331081081081074 41.15340909090909  L 32.331081081081074 35  L 44.73536036036036 35  C 47.663288288288285 35.79545454545455  49.994369369369366 33.36931818181818  50 30.414772727272727  L 50 5.386363636363637  Z M 28.73310810810811 35.79545454545455  L 28.73310810810811 41.15340909090909  L 19.90427927927928 41.15340909090909  L 19.90427927927928 35.79545454545455  L 28.73310810810811 35.79545454545455  Z M 46 21.477272727272727  L 46.4695945945946 21.477272727272723  L 46.4695945945946 30.414772727272727  C 46.4695945945946 31.392045454545453  45.72635135135135 32.24431818181819  44.73536036036036 32  L 5.737612612612613 32  C 4.769144144144145 32.24431818181819  3.952702702702704 31.392045454545453  3.952702702702704 30.414772727272727  L 3.952702702702704 21.477272727272727  L 4 21.477272727272727  L 4 5.386363636363637  C 3.975225225225226 4.386363636363637  4.769144144144145 3.556818181818183  5.737612612612614 4  L 44.72972972972973 4  C 45.698198198198206 3.556818181818183  46.46396396396397 4.380681818181819  46 5.386363636363637  L 46 21.477272727272727  Z M 31.71171171171171 24.46590909090909  C 32.40427927927927 23.761363636363637  32.40427927927927 22.60227272727273  31.706081081081084 21.892045454545457  L 27.88851351351352 18.039772727272727  L 31.987612612612615 13.90340909090909  C 32.685810810810814 13.198863636363637  32.685810810810814 12.039772727272727  31.987612612612615 11.329545454545453  C 31.289414414414416 10.625  30.14076576576577 10.625  29.43693693693694 11.329545454545453  L 25.33783783783784 15.47159090909091  L 21.35135135135135 11.448863636363637  C 20.653153153153152 10.744318181818183  19.504504504504503 10.744318181818183  18.800675675675674 11.448863636363637  C 18.10247747747748 12.153409090909088  18.10247747747748 13.3125  18.800675675675674 14.022727272727273  L 22.78716216216216 18.045454545454547  L 19.08783783783784 21.778409090909093  C 18.38963963963964 22.482954545454547  18.38963963963964 23.642045454545453  19.08783783783784 24.352272727272727  C 19.786036036036034 25.05681818181818  20.934684684684683 25.05681818181818  21.638513513513512 24.352272727272727  L 25.343468468468473 20.613636363636363  L 29.161036036036037 24.46590909090909  C 29.859234234234233 25.170454545454547  31.007882882882882 25.170454545454547  31.71171171171171 24.46590909090909  Z " fill-rule="evenodd" />
    </mask>
  </defs>
  <g transform="matrix(1 0 0 1 -862 -138 )">
    <path d="M 50 5.386363636363637  C 49.994369369369366 2.4034090909090917  47.663288288288285 0  44.73536036036036 0  L 5.737612612612613 0  C 2.8096846846846852 0  0.37725225225225245 2.4034090909090917  1 5.3806818181818175  L 1 30.414772727272727  C 0.37725225225225245 33.36931818181818  2.8096846846846852 35.79545454545455  5.737612612612613 35  L 16.379504504504503 35  L 16.379504504504503 41.15340909090909  L 13.699324324324321 41.15340909090909  C 12.730855855855856 41.15340909090909  11.936936936936934 41.93181818181818  11.936936936936934 42.93181818181817  C 11.936936936936934 43.90909090909091  12.730855855855856 44.710227272727266  13.699324324324321 44  L 36.74549549549549 44  C 37.71396396396396 44.710227272727266  38.507882882882875 43.93181818181817  38.507882882882875 42.93181818181817  C 38.507882882882875 41.954545454545446  37.713963963963955 41.15340909090909  36.74549549549549 41.15340909090909  L 32.331081081081074 41.15340909090909  L 32.331081081081074 35  L 44.73536036036036 35  C 47.663288288288285 35.79545454545455  49.994369369369366 33.36931818181818  50 30.414772727272727  L 50 5.386363636363637  Z M 28.73310810810811 35.79545454545455  L 28.73310810810811 41.15340909090909  L 19.90427927927928 41.15340909090909  L 19.90427927927928 35.79545454545455  L 28.73310810810811 35.79545454545455  Z M 46 21.477272727272727  L 46.4695945945946 21.477272727272723  L 46.4695945945946 30.414772727272727  C 46.4695945945946 31.392045454545453  45.72635135135135 32.24431818181819  44.73536036036036 32  L 5.737612612612613 32  C 4.769144144144145 32.24431818181819  3.952702702702704 31.392045454545453  3.952702702702704 30.414772727272727  L 3.952702702702704 21.477272727272727  L 4 21.477272727272727  L 4 5.386363636363637  C 3.975225225225226 4.386363636363637  4.769144144144145 3.556818181818183  5.737612612612614 4  L 44.72972972972973 4  C 45.698198198198206 3.556818181818183  46.46396396396397 4.380681818181819  46 5.386363636363637  L 46 21.477272727272727  Z M 31.71171171171171 24.46590909090909  C 32.40427927927927 23.761363636363637  32.40427927927927 22.60227272727273  31.706081081081084 21.892045454545457  L 27.88851351351352 18.039772727272727  L 31.987612612612615 13.90340909090909  C 32.685810810810814 13.198863636363637  32.685810810810814 12.039772727272727  31.987612612612615 11.329545454545453  C 31.289414414414416 10.625  30.14076576576577 10.625  29.43693693693694 11.329545454545453  L 25.33783783783784 15.47159090909091  L 21.35135135135135 11.448863636363637  C 20.653153153153152 10.744318181818183  19.504504504504503 10.744318181818183  18.800675675675674 11.448863636363637  C 18.10247747747748 12.153409090909088  18.10247747747748 13.3125  18.800675675675674 14.022727272727273  L 22.78716216216216 18.045454545454547  L 19.08783783783784 21.778409090909093  C 18.38963963963964 22.482954545454547  18.38963963963964 23.642045454545453  19.08783783783784 24.352272727272727  C 19.786036036036034 25.05681818181818  20.934684684684683 25.05681818181818  21.638513513513512 24.352272727272727  L 25.343468468468473 20.613636363636363  L 29.161036036036037 24.46590909090909  C 29.859234234234233 25.170454545454547  31.007882882882882 25.170454545454547  31.71171171171171 24.46590909090909  Z " fill-rule="nonzero" fill="rgba(127, 127, 127, 1)" stroke="none" transform="matrix(1 0 0 1 862 138 )" class="fill" />
    <path d="M 50 5.386363636363637  C 49.994369369369366 2.4034090909090917  47.663288288288285 0  44.73536036036036 0  L 5.737612612612613 0  C 2.8096846846846852 0  0.37725225225225245 2.4034090909090917  1 5.3806818181818175  L 1 30.414772727272727  C 0.37725225225225245 33.36931818181818  2.8096846846846852 35.79545454545455  5.737612612612613 35  L 16.379504504504503 35  L 16.379504504504503 41.15340909090909  L 13.699324324324321 41.15340909090909  C 12.730855855855856 41.15340909090909  11.936936936936934 41.93181818181818  11.936936936936934 42.93181818181817  C 11.936936936936934 43.90909090909091  12.730855855855856 44.710227272727266  13.699324324324321 44  L 36.74549549549549 44  C 37.71396396396396 44.710227272727266  38.507882882882875 43.93181818181817  38.507882882882875 42.93181818181817  C 38.507882882882875 41.954545454545446  37.713963963963955 41.15340909090909  36.74549549549549 41.15340909090909  L 32.331081081081074 41.15340909090909  L 32.331081081081074 35  L 44.73536036036036 35  C 47.663288288288285 35.79545454545455  49.994369369369366 33.36931818181818  50 30.414772727272727  L 50 5.386363636363637  Z " stroke-width="0" stroke-dasharray="0" stroke="rgba(255, 255, 255, 0)" fill="none" transform="matrix(1 0 0 1 862 138 )" class="stroke" mask="url(#Clip698)" />
    <path d="M 28.73310810810811 35.79545454545455  L 28.73310810810811 41.15340909090909  L 19.90427927927928 41.15340909090909  L 19.90427927927928 35.79545454545455  L 28.73310810810811 35.79545454545455  Z " stroke-width="0" stroke-dasharray="0" stroke="rgba(255, 255, 255, 0)" fill="none" transform="matrix(1 0 0 1 862 138 )" class="stroke" mask="url(#Clip698)" />
    <path d="M 46 21.477272727272727  L 46.4695945945946 21.477272727272723  L 46.4695945945946 30.414772727272727  C 46.4695945945946 31.392045454545453  45.72635135135135 32.24431818181819  44.73536036036036 32  L 5.737612612612613 32  C 4.769144144144145 32.24431818181819  3.952702702702704 31.392045454545453  3.952702702702704 30.414772727272727  L 3.952702702702704 21.477272727272727  L 4 21.477272727272727  L 4 5.386363636363637  C 3.975225225225226 4.386363636363637  4.769144144144145 3.556818181818183  5.737612612612614 4  L 44.72972972972973 4  C 45.698198198198206 3.556818181818183  46.46396396396397 4.380681818181819  46 5.386363636363637  L 46 21.477272727272727  Z " stroke-width="0" stroke-dasharray="0" stroke="rgba(255, 255, 255, 0)" fill="none" transform="matrix(1 0 0 1 862 138 )" class="stroke" mask="url(#Clip698)" />
    <path d="M 31.71171171171171 24.46590909090909  C 32.40427927927927 23.761363636363637  32.40427927927927 22.60227272727273  31.706081081081084 21.892045454545457  L 27.88851351351352 18.039772727272727  L 31.987612612612615 13.90340909090909  C 32.685810810810814 13.198863636363637  32.685810810810814 12.039772727272727  31.987612612612615 11.329545454545453  C 31.289414414414416 10.625  30.14076576576577 10.625  29.43693693693694 11.329545454545453  L 25.33783783783784 15.47159090909091  L 21.35135135135135 11.448863636363637  C 20.653153153153152 10.744318181818183  19.504504504504503 10.744318181818183  18.800675675675674 11.448863636363637  C 18.10247747747748 12.153409090909088  18.10247747747748 13.3125  18.800675675675674 14.022727272727273  L 22.78716216216216 18.045454545454547  L 19.08783783783784 21.778409090909093  C 18.38963963963964 22.482954545454547  18.38963963963964 23.642045454545453  19.08783783783784 24.352272727272727  C 19.786036036036034 25.05681818181818  20.934684684684683 25.05681818181818  21.638513513513512 24.352272727272727  L 25.343468468468473 20.613636363636363  L 29.161036036036037 24.46590909090909  C 29.859234234234233 25.170454545454547  31.007882882882882 25.170454545454547  31.71171171171171 24.46590909090909  Z " stroke-width="0" stroke-dasharray="0" stroke="rgba(255, 255, 255, 0)" fill="none" transform="matrix(1 0 0 1 862 138 )" class="stroke" mask="url(#Clip698)" />
  </g>
</svg>