<?xml version="1.0" encoding="utf-8"?>
<svg version="1.1" xmlns:xlink="http://www.w3.org/1999/xlink" width="80px" height="80px" xmlns="http://www.w3.org/2000/svg">
  <defs>
    <pattern id="BGPattern" patternUnits="userSpaceOnUse" alignment="0 0" imageRepeat="None" />
    <mask fill="white" id="Clip699">
      <path d="M 0 40  C 0 17.599999999999998  17.599999999999998 0  40 0  C 62.400000000000006 0  80 17.599999999999998  80 40  C 80 62.400000000000006  62.400000000000006 80  40 80  C 17.599999999999998 80  0 62.400000000000006  0 40  Z " fill-rule="evenodd" />
    </mask>
  </defs>
  <g transform="matrix(1 0 0 1 -1169 -120 )">
    <path d="M 0 40  C 0 17.599999999999998  17.599999999999998 0  40 0  C 62.400000000000006 0  80 17.599999999999998  80 40  C 80 62.400000000000006  62.400000000000006 80  40 80  C 17.599999999999998 80  0 62.400000000000006  0 40  Z " fill-rule="nonzero" fill="rgba(254, 243, 230, 1)" stroke="none" transform="matrix(1 0 0 1 1169 120 )" class="fill" />
    <path d="M 0 40  C 0 17.599999999999998  17.599999999999998 0  40 0  C 62.400000000000006 0  80 17.599999999999998  80 40  C 80 62.400000000000006  62.400000000000006 80  40 80  C 17.599999999999998 80  0 62.400000000000006  0 40  Z " stroke-width="2" stroke-dasharray="0" stroke="rgba(254, 243, 230, 1)" fill="none" transform="matrix(1 0 0 1 1169 120 )" class="stroke" mask="url(#Clip699)" />
  </g>
</svg>