<?xml version="1.0" encoding="utf-8"?>
<svg version="1.1" xmlns:xlink="http://www.w3.org/1999/xlink" width="25px" height="14px" xmlns="http://www.w3.org/2000/svg">
  <defs>
    <pattern id="BGPattern" patternUnits="userSpaceOnUse" alignment="0 0" imageRepeat="None" />
    <mask fill="white" id="Clip714">
      <path d="M 0 3.5  C 0 1.5670033755922077  1.5670033755922228 0  3.5000000000000004 0  L 21.5 0  C 23.432996624407775 0  25 1.5670033755922077  25 3.5  L 25 10.5  C 25 12.432996624407792  23.432996624407775 14  21.5 14  L 3.5000000000000004 14  C 1.5670033755922228 14  0 12.432996624407792  0 10.5  L 0 3.5  Z " fill-rule="evenodd" />
    </mask>
  </defs>
  <g transform="matrix(1 0 0 1 -681 -614 )">
    <path d="M 0 3.5  C 0 1.5670033755922077  1.5670033755922228 0  3.5000000000000004 0  L 21.5 0  C 23.432996624407775 0  25 1.5670033755922077  25 3.5  L 25 10.5  C 25 12.432996624407792  23.432996624407775 14  21.5 14  L 3.5000000000000004 14  C 1.5670033755922228 14  0 12.432996624407792  0 10.5  L 0 3.5  Z " fill-rule="nonzero" fill="rgba(253, 180, 98, 1)" stroke="none" transform="matrix(1 0 0 1 681 614 )" class="fill" />
    <path d="M 0 3.5  C 0 1.5670033755922077  1.5670033755922228 0  3.5000000000000004 0  L 21.5 0  C 23.432996624407775 0  25 1.5670033755922077  25 3.5  L 25 10.5  C 25 12.432996624407792  23.432996624407775 14  21.5 14  L 3.5000000000000004 14  C 1.5670033755922228 14  0 12.432996624407792  0 10.5  L 0 3.5  Z " stroke-width="0" stroke-dasharray="0" stroke="rgba(255, 255, 255, 0)" fill="none" transform="matrix(1 0 0 1 681 614 )" class="stroke" mask="url(#Clip714)" />
  </g>
</svg>