<?xml version="1.0" encoding="utf-8"?>
<svg version="1.1" xmlns:xlink="http://www.w3.org/1999/xlink" width="25px" height="15px" xmlns="http://www.w3.org/2000/svg">
  <defs>
    <pattern id="BGPattern" patternUnits="userSpaceOnUse" alignment="0 0" imageRepeat="None" />
    <mask fill="white" id="Clip737">
      <path d="M 0 3.6500000000000057  C 0 1.7170033755922205  1.567003375592208 0.14999999999999858  3.5000000000000004 0.14999999999999858  L 21.5 0.14999999999999858  C 23.432996624407792 0.14999999999999858  25 1.7170033755922205  25 3.6500000000000057  L 25 10.650000000000006  C 25 12.58299662440777  23.432996624407792 14.150000000000006  21.5 14  L 3.5000000000000004 14  C 1.567003375592208 14.150000000000006  0 12.58299662440777  0 10.650000000000006  L 0 3.6500000000000057  Z " fill-rule="evenodd" />
    </mask>
  </defs>
  <g transform="matrix(1 0 0 1 -1576 -357 )">
    <path d="M 0 3.6500000000000057  C 0 1.7170033755922205  1.567003375592208 0.14999999999999858  3.5000000000000004 0.14999999999999858  L 21.5 0.14999999999999858  C 23.432996624407792 0.14999999999999858  25 1.7170033755922205  25 3.6500000000000057  L 25 10.650000000000006  C 25 12.58299662440777  23.432996624407792 14.150000000000006  21.5 14  L 3.5000000000000004 14  C 1.567003375592208 14.150000000000006  0 12.58299662440777  0 10.650000000000006  L 0 3.6500000000000057  Z " fill-rule="nonzero" fill="rgba(240, 240, 240, 1)" stroke="none" transform="matrix(1 0 0 1 1576 357 )" class="fill" />
    <path d="M 0 3.6500000000000057  C 0 1.7170033755922205  1.567003375592208 0.14999999999999858  3.5000000000000004 0.14999999999999858  L 21.5 0.14999999999999858  C 23.432996624407792 0.14999999999999858  25 1.7170033755922205  25 3.6500000000000057  L 25 10.650000000000006  C 25 12.58299662440777  23.432996624407792 14.150000000000006  21.5 14  L 3.5000000000000004 14  C 1.567003375592208 14.150000000000006  0 12.58299662440777  0 10.650000000000006  L 0 3.6500000000000057  Z " stroke-width="0" stroke-dasharray="0" stroke="rgba(255, 255, 255, 0)" fill="none" transform="matrix(1 0 0 1 1576 357 )" class="stroke" mask="url(#Clip737)" />
  </g>
</svg>