<?xml version="1.0" encoding="utf-8"?>
<svg version="1.1" xmlns:xlink="http://www.w3.org/1999/xlink" width="497px" height="35px" xmlns="http://www.w3.org/2000/svg">
  <defs>
    <pattern id="BGPattern" patternUnits="userSpaceOnUse" alignment="0 0" imageRepeat="None" />
    <mask fill="white" id="Clip233">
      <path d="M 0 31  L 0 3  C 0 1.3199999999999932  2.020740740740741 0  4.5925925925925934 0  L 491.4074074074074 0  C 493.97925925925927 0  496 1.3199999999999932  496 3  L 496 25.01687763713079  L 496 31  C 496 32.68000000000001  493.97925925925927 34  491.4074074074074 34  L 4.5925925925925934 34  C 2.020740740740741 34  0 32.68000000000001  0 31  Z " fill-rule="evenodd" />
    </mask>
  </defs>
  <g transform="matrix(1 0 0 1 -24 -101 )">
    <path d="M 0 31  L 0 3  C 0 1.3199999999999932  2.020740740740741 0  4.5925925925925934 0  L 491.4074074074074 0  C 493.97925925925927 0  496 1.3199999999999932  496 3  L 496 25.01687763713079  L 496 31  C 496 32.68000000000001  493.97925925925927 34  491.4074074074074 34  L 4.5925925925925934 34  C 2.020740740740741 34  0 32.68000000000001  0 31  Z " fill-rule="nonzero" fill="rgba(255, 255, 255, 1)" stroke="none" transform="matrix(1 0 0 1 24 101 )" class="fill" />
    <path d="M 0 31  L 0 3  C 0 1.3199999999999932  2.020740740740741 0  4.5925925925925934 0  L 491.4074074074074 0  C 493.97925925925927 0  496 1.3199999999999932  496 3  L 496 25.01687763713079  L 496 31  C 496 32.68000000000001  493.97925925925927 34  491.4074074074074 34  L 4.5925925925925934 34  C 2.020740740740741 34  0 32.68000000000001  0 31  Z " stroke-width="2" stroke-dasharray="0" stroke="rgba(221, 221, 221, 1)" fill="none" transform="matrix(1 0 0 1 24 101 )" class="stroke" mask="url(#Clip233)" />
  </g>
</svg>