<?xml version="1.0" encoding="utf-8"?>
<svg version="1.1" xmlns:xlink="http://www.w3.org/1999/xlink" width="325px" height="35px" xmlns="http://www.w3.org/2000/svg">
  <defs>
    <pattern id="BGPattern" patternUnits="userSpaceOnUse" alignment="0 0" imageRepeat="None" />
    <mask fill="white" id="Clip818">
      <path d="M 0 31  L 0 3  C 0 1.3199999999999932  1.32 0  3.0000000000000004 0  L 321 0  C 322.68 0  324 1.3199999999999932  324 3  L 324 25.01687763713079  L 324 31  C 324 32.68000000000001  322.68 34  321 34  L 3.0000000000000004 34  C 1.32 34  0 32.68000000000001  0 31  Z " fill-rule="evenodd" />
    </mask>
  </defs>
  <g transform="matrix(1 0 0 1 -152 -68 )">
    <path d="M 0 31  L 0 3  C 0 1.3199999999999932  1.32 0  3.0000000000000004 0  L 321 0  C 322.68 0  324 1.3199999999999932  324 3  L 324 25.01687763713079  L 324 31  C 324 32.68000000000001  322.68 34  321 34  L 3.0000000000000004 34  C 1.32 34  0 32.68000000000001  0 31  Z " fill-rule="nonzero" fill="rgba(255, 255, 255, 1)" stroke="none" transform="matrix(1 0 0 1 152 68 )" class="fill" />
    <path d="M 0 31  L 0 3  C 0 1.3199999999999932  1.32 0  3.0000000000000004 0  L 321 0  C 322.68 0  324 1.3199999999999932  324 3  L 324 25.01687763713079  L 324 31  C 324 32.68000000000001  322.68 34  321 34  L 3.0000000000000004 34  C 1.32 34  0 32.68000000000001  0 31  Z " stroke-width="2" stroke-dasharray="0" stroke="rgba(221, 221, 221, 1)" fill="none" transform="matrix(1 0 0 1 152 68 )" class="stroke" mask="url(#Clip818)" />
  </g>
</svg>