<?xml version="1.0" encoding="utf-8"?>
<svg version="1.1" xmlns:xlink="http://www.w3.org/1999/xlink" width="361px" height="35px" xmlns="http://www.w3.org/2000/svg">
  <defs>
    <pattern id="BGPattern" patternUnits="userSpaceOnUse" alignment="0 0" imageRepeat="None" />
    <mask fill="white" id="Clip194">
      <path d="M 0 31  L 0 3  C 0 1.3199999999999932  1.4666666666666668 0  3.333333333333334 0  L 356.66666666666663 0  C 358.53333333333336 0  360 1.3199999999999932  360 3  L 360 25.01687763713079  L 360 31  C 360 32.68000000000001  358.53333333333336 34  356.66666666666663 34  L 3.333333333333334 34  C 1.4666666666666668 34  0 32.68000000000001  0 31  Z " fill-rule="evenodd" />
    </mask>
  </defs>
  <g transform="matrix(1 0 0 1 -634 -126 )">
    <path d="M 0 31  L 0 3  C 0 1.3199999999999932  1.4666666666666668 0  3.333333333333334 0  L 356.66666666666663 0  C 358.53333333333336 0  360 1.3199999999999932  360 3  L 360 25.01687763713079  L 360 31  C 360 32.68000000000001  358.53333333333336 34  356.66666666666663 34  L 3.333333333333334 34  C 1.4666666666666668 34  0 32.68000000000001  0 31  Z " fill-rule="nonzero" fill="rgba(255, 255, 255, 1)" stroke="none" transform="matrix(1 0 0 1 634 126 )" class="fill" />
    <path d="M 0 31  L 0 3  C 0 1.3199999999999932  1.4666666666666668 0  3.333333333333334 0  L 356.66666666666663 0  C 358.53333333333336 0  360 1.3199999999999932  360 3  L 360 25.01687763713079  L 360 31  C 360 32.68000000000001  358.53333333333336 34  356.66666666666663 34  L 3.333333333333334 34  C 1.4666666666666668 34  0 32.68000000000001  0 31  Z " stroke-width="2" stroke-dasharray="0" stroke="rgba(221, 221, 221, 1)" fill="none" transform="matrix(1 0 0 1 634 126 )" class="stroke" mask="url(#Clip194)" />
  </g>
</svg>