<?xml version="1.0" encoding="utf-8"?>
<svg version="1.1" xmlns:xlink="http://www.w3.org/1999/xlink" width="80px" height="80px" xmlns="http://www.w3.org/2000/svg">
  <g transform="matrix(1 0 0 1 -259 -10 )">
    <path d="M 259 10  L 339 10  L 339 90  L 259 90  L 259 10  " fill-rule="nonzero" fill="rgba(204, 204, 204, 1)" stroke="none" class="fill" />
    <path d="M 265 16  L 333 16  L 333 84  L 265 84  L 265 16  " fill-rule="nonzero" fill="rgba(255, 255, 255, 1)" stroke="none" class="fill" />
    <path d="M 306.6 34  C 303.24 34  300.6 31.36  300.6 28  C 300.6 24.64  303.24 22  306.6 22  C 309.96000000000004 22  312.6 24.64  312.6 28  C 312.6 31.36  309.96000000000004 34  306.6 34  " fill-rule="nonzero" fill="rgba(204, 204, 204, 1)" stroke="none" class="fill" />
    <path d="M 267 82  L 267 46.8  L 283 30.799999999999997  L 305.4 43.6  L 318.2 40.4  L 331 43.6  L 331 82  L 267 82  " fill-rule="nonzero" fill="rgba(22, 155, 213, 1)" stroke="none" class="fill" />
  </g>
</svg>