<?xml version="1.0" encoding="utf-8"?>
<svg version="1.1" xmlns:xlink="http://www.w3.org/1999/xlink" width="318px" height="28px" xmlns="http://www.w3.org/2000/svg">
  <defs>
    <pattern id="BGPattern" patternUnits="userSpaceOnUse" alignment="0 0" imageRepeat="None" />
    <mask fill="white" id="Clip191">
      <path d="M 2.484375 0  C 2.484375 0  315.515625 0  315.515625 0  C 316.201666275 0  316.822760025 0.24484427712500012  317.27234345625 0.6407039187500001  C 317.7219268875 1.0365635525  318 1.5834385525  318 2.1875  C 318 2.1875  318 25.8125  318 25.8125  C 318 26.416561412500002  317.7219268875 26.963436412500002  317.27234345625 27.359296125  C 316.822760025 27.755155750000004  316.201666275 28  315.515625 28  C 315.515625 28  2.484375 28  2.484375 28  C 1.7983337846250003 28  1.177240034625 27.755155750000004  0.7276565934375014 27.359296125  C 0.2780731433062484 26.963436412500002  0 26.416561412500002  0 25.8125  C 0 25.8125  0 2.1875  0 2.1875  C 0 1.5834385525  0.2780731433062484 1.0365635525  0.7276565934375014 0.6407039187500001  C 1.177240034625 0.24484427712500012  1.7983337846250003 0  2.484375 0  Z " fill-rule="evenodd" />
    </mask>
  </defs>
  <g transform="matrix(1 0 0 1 -546 -112 )">
    <path d="M 2.484375 0  C 2.484375 0  315.515625 0  315.515625 0  C 316.201666275 0  316.822760025 0.24484427712500012  317.27234345625 0.6407039187500001  C 317.7219268875 1.0365635525  318 1.5834385525  318 2.1875  C 318 2.1875  318 25.8125  318 25.8125  C 318 26.416561412500002  317.7219268875 26.963436412500002  317.27234345625 27.359296125  C 316.822760025 27.755155750000004  316.201666275 28  315.515625 28  C 315.515625 28  2.484375 28  2.484375 28  C 1.7983337846250003 28  1.177240034625 27.755155750000004  0.7276565934375014 27.359296125  C 0.2780731433062484 26.963436412500002  0 26.416561412500002  0 25.8125  C 0 25.8125  0 2.1875  0 2.1875  C 0 1.5834385525  0.2780731433062484 1.0365635525  0.7276565934375014 0.6407039187500001  C 1.177240034625 0.24484427712500012  1.7983337846250003 0  2.484375 0  Z " fill-rule="nonzero" fill="rgba(255, 255, 255, 0)" stroke="none" transform="matrix(1 0 0 1 546 112 )" class="fill" />
    <path d="M 2.484375 0  C 2.484375 0  315.515625 0  315.515625 0  C 316.201666275 0  316.822760025 0.24484427712500012  317.27234345625 0.6407039187500001  C 317.7219268875 1.0365635525  318 1.5834385525  318 2.1875  C 318 2.1875  318 25.8125  318 25.8125  C 318 26.416561412500002  317.7219268875 26.963436412500002  317.27234345625 27.359296125  C 316.822760025 27.755155750000004  316.201666275 28  315.515625 28  C 315.515625 28  2.484375 28  2.484375 28  C 1.7983337846250003 28  1.177240034625 27.755155750000004  0.7276565934375014 27.359296125  C 0.2780731433062484 26.963436412500002  0 26.416561412500002  0 25.8125  C 0 25.8125  0 2.1875  0 2.1875  C 0 1.5834385525  0.2780731433062484 1.0365635525  0.7276565934375014 0.6407039187500001  C 1.177240034625 0.24484427712500012  1.7983337846250003 0  2.484375 0  Z " stroke-width="0" stroke-dasharray="0" stroke="rgba(0, 82, 217, 1)" fill="none" transform="matrix(1 0 0 1 546 112 )" class="stroke" mask="url(#Clip191)" />
  </g>
</svg>