<?xml version="1.0" encoding="utf-8"?>
<svg version="1.1" xmlns:xlink="http://www.w3.org/1999/xlink" width="11px" height="11px" xmlns="http://www.w3.org/2000/svg">
  <defs>
    <pattern id="BGPattern" patternUnits="userSpaceOnUse" alignment="0 0" imageRepeat="None" />
    <mask fill="white" id="Clip657">
      <path d="M 9.821428571428571 6.428608928571435  L 1.4430448000000038 6.428608214285722  L 4.164661678571439 9.000351071428573  L 3.6740824142857162 9.519519785714294  L 0.3389576214285788 6.368053978571433  C 0.09007044285713814 6.13286699285715  0.2564730357143016 5.714322500000009  0.5989647357142758 5.714322500000009  L 9.821428571428571 5.714323178571428  L 9.821428571428571 6.428608928571435  Z M 0.178745814285719 3.571466035714285  L 8.577318214285706 3.5714667214285662  L 5.831454821428556 0.893720857142861  L 6.330148149999998 0.3823416571428595  L 9.666727642857163 3.636148999999997  C 9.909821928571441 3.873212000000003  9.74200864285714 4.28575243571428  9.402420857142845 4.28575243571428  L 0.178745814285719 4.285751749999998  L 0.178745814285719 3.571466035714285  Z " fill-rule="evenodd" />
    </mask>
  </defs>
  <g transform="matrix(1 0 0 1 -449 -36 )">
    <path d="M 9.821428571428571 6.428608928571435  L 1.4430448000000038 6.428608214285722  L 4.164661678571439 9.000351071428573  L 3.6740824142857162 9.519519785714294  L 0.3389576214285788 6.368053978571433  C 0.09007044285713814 6.13286699285715  0.2564730357143016 5.714322500000009  0.5989647357142758 5.714322500000009  L 9.821428571428571 5.714323178571428  L 9.821428571428571 6.428608928571435  Z M 0.178745814285719 3.571466035714285  L 8.577318214285706 3.5714667214285662  L 5.831454821428556 0.893720857142861  L 6.330148149999998 0.3823416571428595  L 9.666727642857163 3.636148999999997  C 9.909821928571441 3.873212000000003  9.74200864285714 4.28575243571428  9.402420857142845 4.28575243571428  L 0.178745814285719 4.285751749999998  L 0.178745814285719 3.571466035714285  Z " fill-rule="nonzero" fill="rgba(0, 0, 0, 0.8980392156862745)" stroke="none" transform="matrix(1 0 0 1 449 36 )" class="fill" />
    <path d="M 9.821428571428571 6.428608928571435  L 1.4430448000000038 6.428608214285722  L 4.164661678571439 9.000351071428573  L 3.6740824142857162 9.519519785714294  L 0.3389576214285788 6.368053978571433  C 0.09007044285713814 6.13286699285715  0.2564730357143016 5.714322500000009  0.5989647357142758 5.714322500000009  L 9.821428571428571 5.714323178571428  L 9.821428571428571 6.428608928571435  Z " stroke-width="0" stroke-dasharray="0" stroke="rgba(255, 255, 255, 0)" fill="none" transform="matrix(1 0 0 1 449 36 )" class="stroke" mask="url(#Clip657)" />
    <path d="M 0.178745814285719 3.571466035714285  L 8.577318214285706 3.5714667214285662  L 5.831454821428556 0.893720857142861  L 6.330148149999998 0.3823416571428595  L 9.666727642857163 3.636148999999997  C 9.909821928571441 3.873212000000003  9.74200864285714 4.28575243571428  9.402420857142845 4.28575243571428  L 0.178745814285719 4.285751749999998  L 0.178745814285719 3.571466035714285  Z " stroke-width="0" stroke-dasharray="0" stroke="rgba(255, 255, 255, 0)" fill="none" transform="matrix(1 0 0 1 449 36 )" class="stroke" mask="url(#Clip657)" />
    <path d="M 0.5842474500000046 6.108469964285713  L 0.3389576214285788 6.368053978571433  " stroke-width="0" stroke-dasharray="0" stroke="rgba(255, 255, 255, 0)" fill="none" transform="matrix(1 0 0 1 449 36 )" class="stroke" />
  </g>
</svg>