<?xml version="1.0" encoding="utf-8"?>
<svg version="1.1" xmlns:xlink="http://www.w3.org/1999/xlink" width="6px" height="19px" xmlns="http://www.w3.org/2000/svg">
  <defs>
    <pattern id="BGPattern" patternUnits="userSpaceOnUse" alignment="0 0" imageRepeat="None" />
    <mask fill="white" id="Clip624">
      <path d="M 4.5 0.29999999999999716  C 4.899999999999999 0.29999999999999716  5.299999999999997 0.7000999999999991  5.200000000000003 1.200099999999999  L 4.700000000000003 11.100000000000001  C 4.700000000000003 11.700000000000003  4.200000000000003 12.200099999999999  3.6000000000000014 12.200099999999999  L 2.3999999999999986 12.200099999999999  C 1.7999999999999972 12.200099999999999  1.2999999999999972 11.700000000000003  1.2999999999999972 11.100000000000001  L 0.7999999999999972 1.200099999999999  C 0.7999999999999972 0.7000999999999991  1.2000000000000028 0.29999999999999716  1.7000000000000028 0.29999999999999716  L 4.5 0.29999999999999716  Z M 4.600000000000001 14.600000000000001  C 5 15  5.299999999999997 15.500100000000003  5.299999999999997 16.2001  C 5.299999999999997 16.8001  5 17.4  4.600000000000001 17.799999999999997  C 4.200000000000003 18.200000000000003  3.6000000000000014 18.5  3 18.5  C 2.3999999999999986 18.5  1.7999999999999972 18.200000000000003  1.3999999999999986 17.799999999999997  C 1 17.4  0.7000000000000028 16.8001  0.7000000000000028 16.2001  C 0.7000000000000028 14.900100000000002  1.7000000000000028 13.9001  3 13.9001  C 3.6000000000000014 13.9001  4.200000000000003 14.200000000000003  4.600000000000001 14.600000000000001  Z " fill-rule="evenodd" />
    </mask>
  </defs>
  <g transform="matrix(1 0 0 1 -1192 -421 )">
    <path d="M 4.5 0.29999999999999716  C 4.899999999999999 0.29999999999999716  5.299999999999997 0.7000999999999991  5.200000000000003 1.200099999999999  L 4.700000000000003 11.100000000000001  C 4.700000000000003 11.700000000000003  4.200000000000003 12.200099999999999  3.6000000000000014 12.200099999999999  L 2.3999999999999986 12.200099999999999  C 1.7999999999999972 12.200099999999999  1.2999999999999972 11.700000000000003  1.2999999999999972 11.100000000000001  L 0.7999999999999972 1.200099999999999  C 0.7999999999999972 0.7000999999999991  1.2000000000000028 0.29999999999999716  1.7000000000000028 0.29999999999999716  L 4.5 0.29999999999999716  Z M 4.600000000000001 14.600000000000001  C 5 15  5.299999999999997 15.500100000000003  5.299999999999997 16.2001  C 5.299999999999997 16.8001  5 17.4  4.600000000000001 17.799999999999997  C 4.200000000000003 18.200000000000003  3.6000000000000014 18.5  3 18.5  C 2.3999999999999986 18.5  1.7999999999999972 18.200000000000003  1.3999999999999986 17.799999999999997  C 1 17.4  0.7000000000000028 16.8001  0.7000000000000028 16.2001  C 0.7000000000000028 14.900100000000002  1.7000000000000028 13.9001  3 13.9001  C 3.6000000000000014 13.9001  4.200000000000003 14.200000000000003  4.600000000000001 14.600000000000001  Z " fill-rule="nonzero" fill="rgba(77, 134, 229, 1)" stroke="none" transform="matrix(1 0 0 1 1192 421 )" class="fill" />
    <path d="M 4.5 0.29999999999999716  C 4.899999999999999 0.29999999999999716  5.299999999999997 0.7000999999999991  5.200000000000003 1.200099999999999  L 4.700000000000003 11.100000000000001  C 4.700000000000003 11.700000000000003  4.200000000000003 12.200099999999999  3.6000000000000014 12.200099999999999  L 2.3999999999999986 12.200099999999999  C 1.7999999999999972 12.200099999999999  1.2999999999999972 11.700000000000003  1.2999999999999972 11.100000000000001  L 0.7999999999999972 1.200099999999999  C 0.7999999999999972 0.7000999999999991  1.2000000000000028 0.29999999999999716  1.7000000000000028 0.29999999999999716  L 4.5 0.29999999999999716  Z " stroke-width="0" stroke-dasharray="0" stroke="rgba(255, 255, 255, 0)" fill="none" transform="matrix(1 0 0 1 1192 421 )" class="stroke" mask="url(#Clip624)" />
    <path d="M 4.600000000000001 14.600000000000001  C 5 15  5.299999999999997 15.500100000000003  5.299999999999997 16.2001  C 5.299999999999997 16.8001  5 17.4  4.600000000000001 17.799999999999997  C 4.200000000000003 18.200000000000003  3.6000000000000014 18.5  3 18.5  C 2.3999999999999986 18.5  1.7999999999999972 18.200000000000003  1.3999999999999986 17.799999999999997  C 1 17.4  0.7000000000000028 16.8001  0.7000000000000028 16.2001  C 0.7000000000000028 14.900100000000002  1.7000000000000028 13.9001  3 13.9001  C 3.6000000000000014 13.9001  4.200000000000003 14.200000000000003  4.600000000000001 14.600000000000001  Z " stroke-width="0" stroke-dasharray="0" stroke="rgba(255, 255, 255, 0)" fill="none" transform="matrix(1 0 0 1 1192 421 )" class="stroke" mask="url(#Clip624)" />
  </g>
</svg>