<?xml version="1.0" encoding="utf-8"?>
<svg version="1.1" xmlns:xlink="http://www.w3.org/1999/xlink" width="48px" height="45px" xmlns="http://www.w3.org/2000/svg">
  <defs>
    <pattern id="BGPattern" patternUnits="userSpaceOnUse" alignment="0 0" imageRepeat="None" />
    <mask fill="white" id="Clip41">
      <path d="M 39.42857142857143 34.61538461538462  C 39.42857142857143 34.61538461538462  39.42857142857143 34.61538461538462  39.42857142857143 34  L 20.57142857142857 34  C 20.57142857142857 34.61538461538462  20.57142857142857 34.61538461538462  20.57142857142857 34.61538461538462  C 19.624654714575783 34.61538461538462  18.857142857142858 35.390276394523625  18.857142857142858 36.34615384615385  C 18.857142857142858 37.30203129778406  19.624654714575783 38.07692307692307  20.57142857142857 38.07692307692307  C 20.57142857142857 38.07692307692307  20.57142857142857 38.07692307692307  20.57142857142857 38  L 39.42857142857143 38  C 39.42857142857143 38.07692307692307  39.42857142857143 38.07692307692307  39.42857142857143 38.07692307692307  C 40.37534528542422 38.07692307692307  41.14285714285714 37.30203129778406  41.14285714285714 36.34615384615385  C 41.14285714285714 35.390276394523625  40.37534528542422 34.61538461538462  39.42857142857143 34.61538461538462  Z M 39.42857142857143 20.76923076923077  C 39.42857142857143 20.76923076923077  39.42857142857143 20.76923076923077  39.42857142857143 21  L 20.57142857142857 21  C 20.57142857142857 20.76923076923077  20.57142857142857 20.76923076923077  20.57142857142857 20.76923076923077  C 19.624654714575783 20.76923076923077  18.857142857142858 21.54412254836978  18.857142857142858 22.5  C 18.857142857142858 23.455877451630222  19.624654714575783 24.23076923076923  20.57142857142857 24.23076923076923  C 20.57142857142857 24.23076923076923  20.57142857142857 24.23076923076923  20.57142857142857 24  L 39.42857142857143 24  C 39.42857142857143 24.23076923076923  39.42857142857143 24.23076923076923  39.42857142857143 24.23076923076923  C 40.37534528542422 24.23076923076923  41.14285714285714 23.455877451630222  41.14285714285714 22.5  C 41.14285714285714 21.54412254836978  40.37534528542422 20.76923076923077  39.42857142857143 20.76923076923077  Z M 39.42857142857143 6.923076923076923  C 39.42857142857143 6.923076923076923  39.42857142857143 6.923076923076923  39.42857142857143 7  L 20.57142857142857 7  C 20.57142857142857 6.923076923076923  20.57142857142857 6.923076923076923  20.57142857142857 6.923076923076923  C 19.624654714575783 6.923076923076923  18.857142857142858 7.697968702215935  18.857142857142858 8.653846153846155  C 18.857142857142858 9.609723605476372  19.624654714575783 10.384615384615385  20.57142857142857 10.384615384615385  C 20.57142857142857 10.384615384615385  20.57142857142857 10.384615384615385  20.57142857142857 11  L 39.42857142857143 11  C 39.42857142857143 10.384615384615385  39.42857142857143 10.384615384615385  39.42857142857143 10.384615384615385  C 40.37534528542422 10.384615384615385  41.14285714285714 9.609723605476372  41.14285714285714 8.653846153846155  C 41.14285714285714 7.697968702215935  40.37534528542422 6.923076923076923  39.42857142857143 6.923076923076923  Z M 12.857142857142858 34.61538461538462  L 9.428571428571429 34.61538461538462  C 8.48179757171864 34.61538461538462  7.714285714285715 35.390276394523625  7.714285714285715 36.34615384615385  C 7.714285714285715 37.30203129778406  8.48179757171864 38.07692307692307  9.428571428571429 38.07692307692307  L 12.857142857142858 38.07692307692307  C 13.803916713995648 38.07692307692307  14.57142857142857 37.30203129778406  14.57142857142857 36.34615384615385  C 14.57142857142857 35.390276394523625  13.803916713995648 34.61538461538462  12.857142857142858 34.61538461538462  Z M 12.857142857142858 20.76923076923077  L 9.428571428571429 20.76923076923077  C 8.48179757171864 20.76923076923077  7.714285714285715 21.54412254836978  7.714285714285715 22.5  C 7.714285714285715 23.455877451630222  8.48179757171864 24.23076923076923  9.428571428571429 24.23076923076923  L 12.857142857142858 24.23076923076923  C 13.803916713995648 24.23076923076923  14.57142857142857 23.455877451630222  14.57142857142857 22.5  C 14.57142857142857 21.54412254836978  13.803916713995648 20.76923076923077  12.857142857142858 20.76923076923077  Z M 12.857142857142858 6.923076923076923  L 9.428571428571429 6.923076923076923  C 8.48179757171864 6.923076923076923  7.714285714285715 7.697968702215935  7.714285714285715 8.653846153846155  C 7.714285714285715 9.609723605476372  8.48179757171864 10.384615384615385  9.428571428571429 10.384615384615385  L 12.857142857142858 10.384615384615385  C 13.803916713995648 10.384615384615385  14.57142857142857 9.609723605476372  14.57142857142857 8.653846153846155  C 14.57142857142857 7.697968702215935  13.803916713995648 6.923076923076923  12.857142857142858 6.923076923076923  Z M 48 5.1923076923076925  C 48 2.324675337417034  45.69746442770122 0  42.85714285714286 0  L 5.142857142857142 0  C 2.3025355722987744 0  0 2.324675337417034  0 5.1923076923076925  L 0 39.80769230769231  C 0 42.67532466258296  2.302535572298777 45  5.142857142857142 45  L 42.85714285714286 45  C 45.69746442770122 45  48 42.67532466258296  48 39.80769230769231  L 48 5.1923076923076925  Z M 44 5.1923076923076925  L 44 39.80769230769231  C 44.57142857142857 40.76356975932253  43.80391671399565 41.53846153846154  42.85714285714286 41  L 5.142857142857142 41  C 4.196083286004354 41.53846153846154  3.4285714285714284 40.76356975932253  3.4285714285714284 39.80769230769231  L 3.4285714285714284 31  L 39.42857142857143 31  C 39.42857142857143 31.153846153846153  39.42857142857143 31.153846153846153  39.42857142857143 31.153846153846153  C 40.37534528542422 31.153846153846153  41.14285714285714 30.378954374707146  41.14285714285714 29.423076923076923  C 41.14285714285714 28.4671994714467  40.37534528542422 27.692307692307693  39.42857142857143 27.692307692307693  C 39.42857142857143 27.692307692307693  39.42857142857143 27.692307692307693  39.42857142857143 27  L 3.4285714285714284 27  L 3.4285714285714284 18  L 39.42857142857143 18  C 39.42857142857143 17.30769230769231  39.42857142857143 17.30769230769231  39.42857142857143 17.30769230769231  C 40.37534528542422 17.30769230769231  41.14285714285714 16.532800528553295  41.14285714285714 15.576923076923077  C 41.14285714285714 14.621045625292858  40.37534528542422 13.846153846153847  39.42857142857143 13.846153846153847  C 39.42857142857143 13.846153846153847  39.42857142857143 13.846153846153847  39.42857142857143 14  L 3.4285714285714284 14  L 3.4285714285714284 5.1923076923076925  C 3.4285714285714284 4.236430240677474  4.196083286004354 3.4615384615384617  5.142857142857142 4  L 42.85714285714286 4  C 43.80391671399565 3.4615384615384617  44.57142857142857 4.236430240677474  44 5.1923076923076925  Z " fill-rule="evenodd" />
    </mask>
  </defs>
  <g transform="matrix(1 0 0 1 -213 -138 )">
    <path d="M 39.42857142857143 34.61538461538462  C 39.42857142857143 34.61538461538462  39.42857142857143 34.61538461538462  39.42857142857143 34  L 20.57142857142857 34  C 20.57142857142857 34.61538461538462  20.57142857142857 34.61538461538462  20.57142857142857 34.61538461538462  C 19.624654714575783 34.61538461538462  18.857142857142858 35.390276394523625  18.857142857142858 36.34615384615385  C 18.857142857142858 37.30203129778406  19.624654714575783 38.07692307692307  20.57142857142857 38.07692307692307  C 20.57142857142857 38.07692307692307  20.57142857142857 38.07692307692307  20.57142857142857 38  L 39.42857142857143 38  C 39.42857142857143 38.07692307692307  39.42857142857143 38.07692307692307  39.42857142857143 38.07692307692307  C 40.37534528542422 38.07692307692307  41.14285714285714 37.30203129778406  41.14285714285714 36.34615384615385  C 41.14285714285714 35.390276394523625  40.37534528542422 34.61538461538462  39.42857142857143 34.61538461538462  Z M 39.42857142857143 20.76923076923077  C 39.42857142857143 20.76923076923077  39.42857142857143 20.76923076923077  39.42857142857143 21  L 20.57142857142857 21  C 20.57142857142857 20.76923076923077  20.57142857142857 20.76923076923077  20.57142857142857 20.76923076923077  C 19.624654714575783 20.76923076923077  18.857142857142858 21.54412254836978  18.857142857142858 22.5  C 18.857142857142858 23.455877451630222  19.624654714575783 24.23076923076923  20.57142857142857 24.23076923076923  C 20.57142857142857 24.23076923076923  20.57142857142857 24.23076923076923  20.57142857142857 24  L 39.42857142857143 24  C 39.42857142857143 24.23076923076923  39.42857142857143 24.23076923076923  39.42857142857143 24.23076923076923  C 40.37534528542422 24.23076923076923  41.14285714285714 23.455877451630222  41.14285714285714 22.5  C 41.14285714285714 21.54412254836978  40.37534528542422 20.76923076923077  39.42857142857143 20.76923076923077  Z M 39.42857142857143 6.923076923076923  C 39.42857142857143 6.923076923076923  39.42857142857143 6.923076923076923  39.42857142857143 7  L 20.57142857142857 7  C 20.57142857142857 6.923076923076923  20.57142857142857 6.923076923076923  20.57142857142857 6.923076923076923  C 19.624654714575783 6.923076923076923  18.857142857142858 7.697968702215935  18.857142857142858 8.653846153846155  C 18.857142857142858 9.609723605476372  19.624654714575783 10.384615384615385  20.57142857142857 10.384615384615385  C 20.57142857142857 10.384615384615385  20.57142857142857 10.384615384615385  20.57142857142857 11  L 39.42857142857143 11  C 39.42857142857143 10.384615384615385  39.42857142857143 10.384615384615385  39.42857142857143 10.384615384615385  C 40.37534528542422 10.384615384615385  41.14285714285714 9.609723605476372  41.14285714285714 8.653846153846155  C 41.14285714285714 7.697968702215935  40.37534528542422 6.923076923076923  39.42857142857143 6.923076923076923  Z M 12.857142857142858 34.61538461538462  L 9.428571428571429 34.61538461538462  C 8.48179757171864 34.61538461538462  7.714285714285715 35.390276394523625  7.714285714285715 36.34615384615385  C 7.714285714285715 37.30203129778406  8.48179757171864 38.07692307692307  9.428571428571429 38.07692307692307  L 12.857142857142858 38.07692307692307  C 13.803916713995648 38.07692307692307  14.57142857142857 37.30203129778406  14.57142857142857 36.34615384615385  C 14.57142857142857 35.390276394523625  13.803916713995648 34.61538461538462  12.857142857142858 34.61538461538462  Z M 12.857142857142858 20.76923076923077  L 9.428571428571429 20.76923076923077  C 8.48179757171864 20.76923076923077  7.714285714285715 21.54412254836978  7.714285714285715 22.5  C 7.714285714285715 23.455877451630222  8.48179757171864 24.23076923076923  9.428571428571429 24.23076923076923  L 12.857142857142858 24.23076923076923  C 13.803916713995648 24.23076923076923  14.57142857142857 23.455877451630222  14.57142857142857 22.5  C 14.57142857142857 21.54412254836978  13.803916713995648 20.76923076923077  12.857142857142858 20.76923076923077  Z M 12.857142857142858 6.923076923076923  L 9.428571428571429 6.923076923076923  C 8.48179757171864 6.923076923076923  7.714285714285715 7.697968702215935  7.714285714285715 8.653846153846155  C 7.714285714285715 9.609723605476372  8.48179757171864 10.384615384615385  9.428571428571429 10.384615384615385  L 12.857142857142858 10.384615384615385  C 13.803916713995648 10.384615384615385  14.57142857142857 9.609723605476372  14.57142857142857 8.653846153846155  C 14.57142857142857 7.697968702215935  13.803916713995648 6.923076923076923  12.857142857142858 6.923076923076923  Z M 48 5.1923076923076925  C 48 2.324675337417034  45.69746442770122 0  42.85714285714286 0  L 5.142857142857142 0  C 2.3025355722987744 0  0 2.324675337417034  0 5.1923076923076925  L 0 39.80769230769231  C 0 42.67532466258296  2.302535572298777 45  5.142857142857142 45  L 42.85714285714286 45  C 45.69746442770122 45  48 42.67532466258296  48 39.80769230769231  L 48 5.1923076923076925  Z M 44 5.1923076923076925  L 44 39.80769230769231  C 44.57142857142857 40.76356975932253  43.80391671399565 41.53846153846154  42.85714285714286 41  L 5.142857142857142 41  C 4.196083286004354 41.53846153846154  3.4285714285714284 40.76356975932253  3.4285714285714284 39.80769230769231  L 3.4285714285714284 31  L 39.42857142857143 31  C 39.42857142857143 31.153846153846153  39.42857142857143 31.153846153846153  39.42857142857143 31.153846153846153  C 40.37534528542422 31.153846153846153  41.14285714285714 30.378954374707146  41.14285714285714 29.423076923076923  C 41.14285714285714 28.4671994714467  40.37534528542422 27.692307692307693  39.42857142857143 27.692307692307693  C 39.42857142857143 27.692307692307693  39.42857142857143 27.692307692307693  39.42857142857143 27  L 3.4285714285714284 27  L 3.4285714285714284 18  L 39.42857142857143 18  C 39.42857142857143 17.30769230769231  39.42857142857143 17.30769230769231  39.42857142857143 17.30769230769231  C 40.37534528542422 17.30769230769231  41.14285714285714 16.532800528553295  41.14285714285714 15.576923076923077  C 41.14285714285714 14.621045625292858  40.37534528542422 13.846153846153847  39.42857142857143 13.846153846153847  C 39.42857142857143 13.846153846153847  39.42857142857143 13.846153846153847  39.42857142857143 14  L 3.4285714285714284 14  L 3.4285714285714284 5.1923076923076925  C 3.4285714285714284 4.236430240677474  4.196083286004354 3.4615384615384617  5.142857142857142 4  L 42.85714285714286 4  C 43.80391671399565 3.4615384615384617  44.57142857142857 4.236430240677474  44 5.1923076923076925  Z " fill-rule="nonzero" fill="rgba(0, 82, 217, 1)" stroke="none" transform="matrix(1 0 0 1 213 138 )" class="fill" />
    <path d="M 39.42857142857143 34.61538461538462  C 39.42857142857143 34.61538461538462  39.42857142857143 34.61538461538462  39.42857142857143 34  L 20.57142857142857 34  C 20.57142857142857 34.61538461538462  20.57142857142857 34.61538461538462  20.57142857142857 34.61538461538462  C 19.624654714575783 34.61538461538462  18.857142857142858 35.390276394523625  18.857142857142858 36.34615384615385  C 18.857142857142858 37.30203129778406  19.624654714575783 38.07692307692307  20.57142857142857 38.07692307692307  C 20.57142857142857 38.07692307692307  20.57142857142857 38.07692307692307  20.57142857142857 38  L 39.42857142857143 38  C 39.42857142857143 38.07692307692307  39.42857142857143 38.07692307692307  39.42857142857143 38.07692307692307  C 40.37534528542422 38.07692307692307  41.14285714285714 37.30203129778406  41.14285714285714 36.34615384615385  C 41.14285714285714 35.390276394523625  40.37534528542422 34.61538461538462  39.42857142857143 34.61538461538462  Z " stroke-width="0" stroke-dasharray="0" stroke="rgba(255, 255, 255, 0)" fill="none" transform="matrix(1 0 0 1 213 138 )" class="stroke" mask="url(#Clip41)" />
    <path d="M 39.42857142857143 20.76923076923077  C 39.42857142857143 20.76923076923077  39.42857142857143 20.76923076923077  39.42857142857143 21  L 20.57142857142857 21  C 20.57142857142857 20.76923076923077  20.57142857142857 20.76923076923077  20.57142857142857 20.76923076923077  C 19.624654714575783 20.76923076923077  18.857142857142858 21.54412254836978  18.857142857142858 22.5  C 18.857142857142858 23.455877451630222  19.624654714575783 24.23076923076923  20.57142857142857 24.23076923076923  C 20.57142857142857 24.23076923076923  20.57142857142857 24.23076923076923  20.57142857142857 24  L 39.42857142857143 24  C 39.42857142857143 24.23076923076923  39.42857142857143 24.23076923076923  39.42857142857143 24.23076923076923  C 40.37534528542422 24.23076923076923  41.14285714285714 23.455877451630222  41.14285714285714 22.5  C 41.14285714285714 21.54412254836978  40.37534528542422 20.76923076923077  39.42857142857143 20.76923076923077  Z " stroke-width="0" stroke-dasharray="0" stroke="rgba(255, 255, 255, 0)" fill="none" transform="matrix(1 0 0 1 213 138 )" class="stroke" mask="url(#Clip41)" />
    <path d="M 39.42857142857143 6.923076923076923  C 39.42857142857143 6.923076923076923  39.42857142857143 6.923076923076923  39.42857142857143 7  L 20.57142857142857 7  C 20.57142857142857 6.923076923076923  20.57142857142857 6.923076923076923  20.57142857142857 6.923076923076923  C 19.624654714575783 6.923076923076923  18.857142857142858 7.697968702215935  18.857142857142858 8.653846153846155  C 18.857142857142858 9.609723605476372  19.624654714575783 10.384615384615385  20.57142857142857 10.384615384615385  C 20.57142857142857 10.384615384615385  20.57142857142857 10.384615384615385  20.57142857142857 11  L 39.42857142857143 11  C 39.42857142857143 10.384615384615385  39.42857142857143 10.384615384615385  39.42857142857143 10.384615384615385  C 40.37534528542422 10.384615384615385  41.14285714285714 9.609723605476372  41.14285714285714 8.653846153846155  C 41.14285714285714 7.697968702215935  40.37534528542422 6.923076923076923  39.42857142857143 6.923076923076923  Z " stroke-width="0" stroke-dasharray="0" stroke="rgba(255, 255, 255, 0)" fill="none" transform="matrix(1 0 0 1 213 138 )" class="stroke" mask="url(#Clip41)" />
    <path d="M 12.857142857142858 34.61538461538462  L 9.428571428571429 34.61538461538462  C 8.48179757171864 34.61538461538462  7.714285714285715 35.390276394523625  7.714285714285715 36.34615384615385  C 7.714285714285715 37.30203129778406  8.48179757171864 38.07692307692307  9.428571428571429 38.07692307692307  L 12.857142857142858 38.07692307692307  C 13.803916713995648 38.07692307692307  14.57142857142857 37.30203129778406  14.57142857142857 36.34615384615385  C 14.57142857142857 35.390276394523625  13.803916713995648 34.61538461538462  12.857142857142858 34.61538461538462  Z " stroke-width="0" stroke-dasharray="0" stroke="rgba(255, 255, 255, 0)" fill="none" transform="matrix(1 0 0 1 213 138 )" class="stroke" mask="url(#Clip41)" />
    <path d="M 12.857142857142858 20.76923076923077  L 9.428571428571429 20.76923076923077  C 8.48179757171864 20.76923076923077  7.714285714285715 21.54412254836978  7.714285714285715 22.5  C 7.714285714285715 23.455877451630222  8.48179757171864 24.23076923076923  9.428571428571429 24.23076923076923  L 12.857142857142858 24.23076923076923  C 13.803916713995648 24.23076923076923  14.57142857142857 23.455877451630222  14.57142857142857 22.5  C 14.57142857142857 21.54412254836978  13.803916713995648 20.76923076923077  12.857142857142858 20.76923076923077  Z " stroke-width="0" stroke-dasharray="0" stroke="rgba(255, 255, 255, 0)" fill="none" transform="matrix(1 0 0 1 213 138 )" class="stroke" mask="url(#Clip41)" />
    <path d="M 12.857142857142858 6.923076923076923  L 9.428571428571429 6.923076923076923  C 8.48179757171864 6.923076923076923  7.714285714285715 7.697968702215935  7.714285714285715 8.653846153846155  C 7.714285714285715 9.609723605476372  8.48179757171864 10.384615384615385  9.428571428571429 10.384615384615385  L 12.857142857142858 10.384615384615385  C 13.803916713995648 10.384615384615385  14.57142857142857 9.609723605476372  14.57142857142857 8.653846153846155  C 14.57142857142857 7.697968702215935  13.803916713995648 6.923076923076923  12.857142857142858 6.923076923076923  Z " stroke-width="0" stroke-dasharray="0" stroke="rgba(255, 255, 255, 0)" fill="none" transform="matrix(1 0 0 1 213 138 )" class="stroke" mask="url(#Clip41)" />
    <path d="M 48 5.1923076923076925  C 48 2.324675337417034  45.69746442770122 0  42.85714285714286 0  L 5.142857142857142 0  C 2.3025355722987744 0  0 2.324675337417034  0 5.1923076923076925  L 0 39.80769230769231  C 0 42.67532466258296  2.302535572298777 45  5.142857142857142 45  L 42.85714285714286 45  C 45.69746442770122 45  48 42.67532466258296  48 39.80769230769231  L 48 5.1923076923076925  Z " stroke-width="0" stroke-dasharray="0" stroke="rgba(255, 255, 255, 0)" fill="none" transform="matrix(1 0 0 1 213 138 )" class="stroke" mask="url(#Clip41)" />
    <path d="M 44 5.1923076923076925  L 44 39.80769230769231  C 44.57142857142857 40.76356975932253  43.80391671399565 41.53846153846154  42.85714285714286 41  L 5.142857142857142 41  C 4.196083286004354 41.53846153846154  3.4285714285714284 40.76356975932253  3.4285714285714284 39.80769230769231  L 3.4285714285714284 31  L 39.42857142857143 31  C 39.42857142857143 31.153846153846153  39.42857142857143 31.153846153846153  39.42857142857143 31.153846153846153  C 40.37534528542422 31.153846153846153  41.14285714285714 30.378954374707146  41.14285714285714 29.423076923076923  C 41.14285714285714 28.4671994714467  40.37534528542422 27.692307692307693  39.42857142857143 27.692307692307693  C 39.42857142857143 27.692307692307693  39.42857142857143 27.692307692307693  39.42857142857143 27  L 3.4285714285714284 27  L 3.4285714285714284 18  L 39.42857142857143 18  C 39.42857142857143 17.30769230769231  39.42857142857143 17.30769230769231  39.42857142857143 17.30769230769231  C 40.37534528542422 17.30769230769231  41.14285714285714 16.532800528553295  41.14285714285714 15.576923076923077  C 41.14285714285714 14.621045625292858  40.37534528542422 13.846153846153847  39.42857142857143 13.846153846153847  C 39.42857142857143 13.846153846153847  39.42857142857143 13.846153846153847  39.42857142857143 14  L 3.4285714285714284 14  L 3.4285714285714284 5.1923076923076925  C 3.4285714285714284 4.236430240677474  4.196083286004354 3.4615384615384617  5.142857142857142 4  L 42.85714285714286 4  C 43.80391671399565 3.4615384615384617  44.57142857142857 4.236430240677474  44 5.1923076923076925  Z " stroke-width="0" stroke-dasharray="0" stroke="rgba(255, 255, 255, 0)" fill="none" transform="matrix(1 0 0 1 213 138 )" class="stroke" mask="url(#Clip41)" />
  </g>
</svg>