<?xml version="1.0" encoding="utf-8"?>
<svg version="1.1" xmlns:xlink="http://www.w3.org/1999/xlink" width="30px" height="29px" xmlns="http://www.w3.org/2000/svg">
  <defs>
    <pattern id="BGPattern" patternUnits="userSpaceOnUse" alignment="0 0" imageRepeat="None" />
    <mask fill="white" id="Clip625">
      <path d="M 27.12705155347794 28.49776947943156  L 27.127051553477937 28  L 2.2582613081525804 28  C 1.0108547673896784 28.49776947943156  0 27.419328501121917  0 26.08964309947644  L 0 2.992052564697083  C 0 1.660163260284218  1.0108547673896784 0.5824569162303668  2.2582613081525804 1  L 27.127051553477937 1  C 27.726511946148094 0.5824569162303668  28.300994809274496 0.8359052423335829  28.724877931189233 1.287704430815257  C 29.148761053103968 1.7395036192969329  29.38604746073299 2.3529220276738965  29 2.991317930441287  L 29 26.088908465220648  C 29.3838435579656 27.418593866866118  28.37372342483172 28.494830942408377  27.12705155347794 28.49776947943156  Z M 2.2582613081525804 2.145020919970081  L 2.2582613081525804 2.148694091249066  C 1.820420135377711 2.148694091249066  1.4663271271503364 2.5277646290201936  2 2.9935218332086766  L 2 26.09184700224383  C 1.4663271271503364 26.55833884068811  1.820420135377711 26.936674744203437  2.2582613081525804 27  L 27.127051553477937 27  C 27.564892726252808 26.936674744203437  27.91898573448018 26.55833884068811  28 26.09184700224383  L 28 2.9913179304412854  C 27.91898573448018 2.5248260919970082  27.564892726252808 2.1464901884816747  27.127051553477937 2.145020919970081  L 2.2582613081525804 2.145020919970081  Z " fill-rule="evenodd" />
    </mask>
  </defs>
  <g transform="matrix(1 0 0 1 -1787 -410 )">
    <path d="M 27.12705155347794 28.49776947943156  L 27.127051553477937 28  L 2.2582613081525804 28  C 1.0108547673896784 28.49776947943156  0 27.419328501121917  0 26.08964309947644  L 0 2.992052564697083  C 0 1.660163260284218  1.0108547673896784 0.5824569162303668  2.2582613081525804 1  L 27.127051553477937 1  C 27.726511946148094 0.5824569162303668  28.300994809274496 0.8359052423335829  28.724877931189233 1.287704430815257  C 29.148761053103968 1.7395036192969329  29.38604746073299 2.3529220276738965  29 2.991317930441287  L 29 26.088908465220648  C 29.3838435579656 27.418593866866118  28.37372342483172 28.494830942408377  27.12705155347794 28.49776947943156  Z M 2.2582613081525804 2.145020919970081  L 2.2582613081525804 2.148694091249066  C 1.820420135377711 2.148694091249066  1.4663271271503364 2.5277646290201936  2 2.9935218332086766  L 2 26.09184700224383  C 1.4663271271503364 26.55833884068811  1.820420135377711 26.936674744203437  2.2582613081525804 27  L 27.127051553477937 27  C 27.564892726252808 26.936674744203437  27.91898573448018 26.55833884068811  28 26.09184700224383  L 28 2.9913179304412854  C 27.91898573448018 2.5248260919970082  27.564892726252808 2.1464901884816747  27.127051553477937 2.145020919970081  L 2.2582613081525804 2.145020919970081  Z " fill-rule="nonzero" fill="rgba(212, 227, 252, 1)" stroke="none" transform="matrix(1 0 0 1 1787 410 )" class="fill" />
    <path d="M 27.12705155347794 28.49776947943156  L 27.127051553477937 28  L 2.2582613081525804 28  C 1.0108547673896784 28.49776947943156  0 27.419328501121917  0 26.08964309947644  L 0 2.992052564697083  C 0 1.660163260284218  1.0108547673896784 0.5824569162303668  2.2582613081525804 1  L 27.127051553477937 1  C 27.726511946148094 0.5824569162303668  28.300994809274496 0.8359052423335829  28.724877931189233 1.287704430815257  C 29.148761053103968 1.7395036192969329  29.38604746073299 2.3529220276738965  29 2.991317930441287  L 29 26.088908465220648  C 29.3838435579656 27.418593866866118  28.37372342483172 28.494830942408377  27.12705155347794 28.49776947943156  Z " stroke-width="0" stroke-dasharray="0" stroke="rgba(255, 255, 255, 0)" fill="none" transform="matrix(1 0 0 1 1787 410 )" class="stroke" mask="url(#Clip625)" />
    <path d="M 2.2582613081525804 2.145020919970081  L 2.2582613081525804 2.148694091249066  C 1.820420135377711 2.148694091249066  1.4663271271503364 2.5277646290201936  2 2.9935218332086766  L 2 26.09184700224383  C 1.4663271271503364 26.55833884068811  1.820420135377711 26.936674744203437  2.2582613081525804 27  L 27.127051553477937 27  C 27.564892726252808 26.936674744203437  27.91898573448018 26.55833884068811  28 26.09184700224383  L 28 2.9913179304412854  C 27.91898573448018 2.5248260919970082  27.564892726252808 2.1464901884816747  27.127051553477937 2.145020919970081  L 2.2582613081525804 2.145020919970081  Z " stroke-width="0" stroke-dasharray="0" stroke="rgba(255, 255, 255, 0)" fill="none" transform="matrix(1 0 0 1 1787 410 )" class="stroke" mask="url(#Clip625)" />
  </g>
</svg>