<?xml version="1.0" encoding="utf-8"?>
<svg version="1.1" xmlns:xlink="http://www.w3.org/1999/xlink" width="6px" height="22px" xmlns="http://www.w3.org/2000/svg">
  <defs>
    <pattern id="BGPattern" patternUnits="userSpaceOnUse" alignment="0 0" imageRepeat="None" />
    <mask fill="white" id="Clip132">
      <path d="M 4.659419904263277 9.726355921465967  L 4.6579506357516856 9.724886652954375  C 5.3609942475691845 9.724886652954375  5.712148718773374 10.092937712041888  5.712148718773374 10.827570526551984  C 5.712148718773374 11.56220334106208  5.3609942475691845 11.928785131637994  4.6579506357516856 11.928785131637994  L 1.622447831712794 11.928785131637994  C 0.9208734884068797 11.928785131637994  0.5697189820493662 11.56220334106208  0.5697189820493662 10.82757052655198  C 0.5697189820493662 10.092937712041884  0.9208734532535559 9.726355921465967  1.6239171002243857 9.726355921465967  L 4.659419904263277 9.726355921465967  Z M 0.5697189820493662 20.377062551234108  C 0.5697189820493662 19.64242970157068  0.9208734532535559 19.275113311892294  1.6239171002243857 19.275113347045625  L 4.659419904263277 19.275113347045625  C 5.3609942475691845 19.275113347045625  5.712148753926705 19.642429771877335  5.712148718773374 20.377062551234108  C 5.712148683620047 21.111695330590877  5.3609942475691845 21.479011790575917  4.6579506357516856 21.479011790575917  L 1.622447831712794 21.479011790575917  C 0.9208734884068797 21.479011790575917  0.5697189820493662 21.11169540089753  0.5697189820493662 20.377062551234108  Z M 0.5697189820493662 1.2766092333582648  C 0.5697189820493662 0.5419764188481686  0.9208734884068797 0.17465999401645507  1.6239171002243857 0.17465999401645507  L 4.659419904263277 0.17465999401645507  C 5.3609942475691845 0.17465999401645507  5.712148718773374 0.5419764188481668  5.712148718773374 1.2766092333582648  C 5.712148718773374 2.011242047868361  5.3609942475691845 2.3785584375467472  4.6579506357516856 2.3785584375467472  L 1.622447831712794 2.3785584375467472  C 0.9208734884068797 2.3785584375467472  0.5697189820493662 2.011242047868361  0.5697189820493662 1.2766092333582648  Z " fill-rule="evenodd" />
    </mask>
  </defs>
  <g transform="matrix(1 0 0 1 -1807 -406 )">
    <path d="M 4.659419904263277 9.726355921465967  L 4.6579506357516856 9.724886652954375  C 5.3609942475691845 9.724886652954375  5.712148718773374 10.092937712041888  5.712148718773374 10.827570526551984  C 5.712148718773374 11.56220334106208  5.3609942475691845 11.928785131637994  4.6579506357516856 11.928785131637994  L 1.622447831712794 11.928785131637994  C 0.9208734884068797 11.928785131637994  0.5697189820493662 11.56220334106208  0.5697189820493662 10.82757052655198  C 0.5697189820493662 10.092937712041884  0.9208734532535559 9.726355921465967  1.6239171002243857 9.726355921465967  L 4.659419904263277 9.726355921465967  Z M 0.5697189820493662 20.377062551234108  C 0.5697189820493662 19.64242970157068  0.9208734532535559 19.275113311892294  1.6239171002243857 19.275113347045625  L 4.659419904263277 19.275113347045625  C 5.3609942475691845 19.275113347045625  5.712148753926705 19.642429771877335  5.712148718773374 20.377062551234108  C 5.712148683620047 21.111695330590877  5.3609942475691845 21.479011790575917  4.6579506357516856 21.479011790575917  L 1.622447831712794 21.479011790575917  C 0.9208734884068797 21.479011790575917  0.5697189820493662 21.11169540089753  0.5697189820493662 20.377062551234108  Z M 0.5697189820493662 1.2766092333582648  C 0.5697189820493662 0.5419764188481686  0.9208734884068797 0.17465999401645507  1.6239171002243857 0.17465999401645507  L 4.659419904263277 0.17465999401645507  C 5.3609942475691845 0.17465999401645507  5.712148718773374 0.5419764188481668  5.712148718773374 1.2766092333582648  C 5.712148718773374 2.011242047868361  5.3609942475691845 2.3785584375467472  4.6579506357516856 2.3785584375467472  L 1.622447831712794 2.3785584375467472  C 0.9208734884068797 2.3785584375467472  0.5697189820493662 2.011242047868361  0.5697189820493662 1.2766092333582648  Z " fill-rule="nonzero" fill="rgba(227, 77, 89, 1)" stroke="none" transform="matrix(1 0 0 1 1807 406 )" class="fill" />
    <path d="M 4.659419904263277 9.726355921465967  L 4.6579506357516856 9.724886652954375  C 5.3609942475691845 9.724886652954375  5.712148718773374 10.092937712041888  5.712148718773374 10.827570526551984  C 5.712148718773374 11.56220334106208  5.3609942475691845 11.928785131637994  4.6579506357516856 11.928785131637994  L 1.622447831712794 11.928785131637994  C 0.9208734884068797 11.928785131637994  0.5697189820493662 11.56220334106208  0.5697189820493662 10.82757052655198  C 0.5697189820493662 10.092937712041884  0.9208734532535559 9.726355921465967  1.6239171002243857 9.726355921465967  L 4.659419904263277 9.726355921465967  Z " stroke-width="0" stroke-dasharray="0" stroke="rgba(255, 255, 255, 0)" fill="none" transform="matrix(1 0 0 1 1807 406 )" class="stroke" mask="url(#Clip132)" />
    <path d="M 0.5697189820493662 20.377062551234108  C 0.5697189820493662 19.64242970157068  0.9208734532535559 19.275113311892294  1.6239171002243857 19.275113347045625  L 4.659419904263277 19.275113347045625  C 5.3609942475691845 19.275113347045625  5.712148753926705 19.642429771877335  5.712148718773374 20.377062551234108  C 5.712148683620047 21.111695330590877  5.3609942475691845 21.479011790575917  4.6579506357516856 21.479011790575917  L 1.622447831712794 21.479011790575917  C 0.9208734884068797 21.479011790575917  0.5697189820493662 21.11169540089753  0.5697189820493662 20.377062551234108  Z " stroke-width="0" stroke-dasharray="0" stroke="rgba(255, 255, 255, 0)" fill="none" transform="matrix(1 0 0 1 1807 406 )" class="stroke" mask="url(#Clip132)" />
    <path d="M 0.5697189820493662 1.2766092333582648  C 0.5697189820493662 0.5419764188481686  0.9208734884068797 0.17465999401645507  1.6239171002243857 0.17465999401645507  L 4.659419904263277 0.17465999401645507  C 5.3609942475691845 0.17465999401645507  5.712148718773374 0.5419764188481668  5.712148718773374 1.2766092333582648  C 5.712148718773374 2.011242047868361  5.3609942475691845 2.3785584375467472  4.6579506357516856 2.3785584375467472  L 1.622447831712794 2.3785584375467472  C 0.9208734884068797 2.3785584375467472  0.5697189820493662 2.011242047868361  0.5697189820493662 1.2766092333582648  Z " stroke-width="0" stroke-dasharray="0" stroke="rgba(255, 255, 255, 0)" fill="none" transform="matrix(1 0 0 1 1807 406 )" class="stroke" mask="url(#Clip132)" />
  </g>
</svg>