<?xml version="1.0" encoding="utf-8"?>
<svg version="1.1" xmlns:xlink="http://www.w3.org/1999/xlink" width="28px" height="21px" xmlns="http://www.w3.org/2000/svg">
  <defs>
    <pattern id="BGPattern" patternUnits="userSpaceOnUse" alignment="0 0" imageRepeat="None" />
    <mask fill="white" id="Clip717">
      <path d="M 0.4692656290201946 7  L 0.4692656290201946 5.39805076065819  L 27.65068001196709 5.39805076065819  L 27.65068001196709 7  L 0.4692656290201946 7  Z M 0.4692656290201946 15.682910269259537  L 0.4692656290201946 14  L 27.65068001196709 14  L 27.65068001196709 15.682910269259537  L 0.4692656290201946 15.682910269259537  Z M 5.444199106955871 9.807316951383694  L 5.442729838444278 9.805847682872098  C 6.045128768137622 9.805847682872098  6.346328215407629 10.173898741959608  6.346328215407629 10.908531556469708  C 6.346328215407629 11.643164370979804  6.045128768137622 12.009746161555721  5.442729838444278 12.009746161555721  L 2.8406604016454753 12.009746161555721  C 2.238996106207928 12.009746161555721  1.9385312931937173 11.643164370979804  1.9385312931937173 10.908531556469708  C 1.9385312931937173 10.173898741959608  2.239730740463725 9.807316951383694  2.842129670157068 9.807316951383694  L 5.444199106955871 9.807316951383694  Z M 1.9385312931937173 19.723390766641735  C 1.9385312931937173 18.988757952131635  2.239730740463725 18.621441562453256  2.8421296701570684 18.621441562453256  L 5.444199106955872 18.621441562453256  C 6.045863402393419 18.621441562453256  6.346328215407629 18.98875798728497  6.346328215407629 19.723390766641735  C 6.346328215407629 20.458023545998508  6.045128768137622 20.82534000598355  5.442729838444278 20.82534000598355  L 2.8406604016454753 20.82534000598355  C 2.238996106207928 20.82534000598355  1.9385312931937173 20.458023581151835  1.9385312931937173 19.723390766641735  Z M 1.9385312931937173 2.0922030777860883  C 1.9385312931937173 1.3575702632759885  2.239730740463725 0.9902538384442786  2.8421296701570684 0.9902538384442786  L 5.444199106955872 0.9902538384442786  C 6.045863402393419 0.9902538384442786  6.346328215407629 1.3575702632759918  6.346328215407629 2.0922030777860883  C 6.346328215407629 2.826835892296188  6.045128768137622 3.194152317127898  5.442729838444278 3.194152317127898  L 2.8406604016454753 3.194152317127898  C 2.238996106207928 3.194152317127898  1.9385312931937173 2.8268358922961845  1.9385312931937173 2.0922030777860883  Z " fill-rule="evenodd" />
    </mask>
  </defs>
  <g transform="matrix(1 0 0 1 -1788 -414 )">
    <path d="M 0.4692656290201946 7  L 0.4692656290201946 5.39805076065819  L 27.65068001196709 5.39805076065819  L 27.65068001196709 7  L 0.4692656290201946 7  Z M 0.4692656290201946 15.682910269259537  L 0.4692656290201946 14  L 27.65068001196709 14  L 27.65068001196709 15.682910269259537  L 0.4692656290201946 15.682910269259537  Z M 5.444199106955871 9.807316951383694  L 5.442729838444278 9.805847682872098  C 6.045128768137622 9.805847682872098  6.346328215407629 10.173898741959608  6.346328215407629 10.908531556469708  C 6.346328215407629 11.643164370979804  6.045128768137622 12.009746161555721  5.442729838444278 12.009746161555721  L 2.8406604016454753 12.009746161555721  C 2.238996106207928 12.009746161555721  1.9385312931937173 11.643164370979804  1.9385312931937173 10.908531556469708  C 1.9385312931937173 10.173898741959608  2.239730740463725 9.807316951383694  2.842129670157068 9.807316951383694  L 5.444199106955871 9.807316951383694  Z M 1.9385312931937173 19.723390766641735  C 1.9385312931937173 18.988757952131635  2.239730740463725 18.621441562453256  2.8421296701570684 18.621441562453256  L 5.444199106955872 18.621441562453256  C 6.045863402393419 18.621441562453256  6.346328215407629 18.98875798728497  6.346328215407629 19.723390766641735  C 6.346328215407629 20.458023545998508  6.045128768137622 20.82534000598355  5.442729838444278 20.82534000598355  L 2.8406604016454753 20.82534000598355  C 2.238996106207928 20.82534000598355  1.9385312931937173 20.458023581151835  1.9385312931937173 19.723390766641735  Z M 1.9385312931937173 2.0922030777860883  C 1.9385312931937173 1.3575702632759885  2.239730740463725 0.9902538384442786  2.8421296701570684 0.9902538384442786  L 5.444199106955872 0.9902538384442786  C 6.045863402393419 0.9902538384442786  6.346328215407629 1.3575702632759918  6.346328215407629 2.0922030777860883  C 6.346328215407629 2.826835892296188  6.045128768137622 3.194152317127898  5.442729838444278 3.194152317127898  L 2.8406604016454753 3.194152317127898  C 2.238996106207928 3.194152317127898  1.9385312931937173 2.8268358922961845  1.9385312931937173 2.0922030777860883  Z " fill-rule="nonzero" fill="rgba(212, 227, 252, 1)" stroke="none" transform="matrix(1 0 0 1 1788 414 )" class="fill" />
    <path d="M 0.4692656290201946 7  L 0.4692656290201946 5.39805076065819  L 27.65068001196709 5.39805076065819  L 27.65068001196709 7  L 0.4692656290201946 7  Z " stroke-width="0" stroke-dasharray="0" stroke="rgba(255, 255, 255, 0)" fill="none" transform="matrix(1 0 0 1 1788 414 )" class="stroke" mask="url(#Clip717)" />
    <path d="M 0.4692656290201946 15.682910269259537  L 0.4692656290201946 14  L 27.65068001196709 14  L 27.65068001196709 15.682910269259537  L 0.4692656290201946 15.682910269259537  Z " stroke-width="0" stroke-dasharray="0" stroke="rgba(255, 255, 255, 0)" fill="none" transform="matrix(1 0 0 1 1788 414 )" class="stroke" mask="url(#Clip717)" />
    <path d="M 5.444199106955871 9.807316951383694  L 5.442729838444278 9.805847682872098  C 6.045128768137622 9.805847682872098  6.346328215407629 10.173898741959608  6.346328215407629 10.908531556469708  C 6.346328215407629 11.643164370979804  6.045128768137622 12.009746161555721  5.442729838444278 12.009746161555721  L 2.8406604016454753 12.009746161555721  C 2.238996106207928 12.009746161555721  1.9385312931937173 11.643164370979804  1.9385312931937173 10.908531556469708  C 1.9385312931937173 10.173898741959608  2.239730740463725 9.807316951383694  2.842129670157068 9.807316951383694  L 5.444199106955871 9.807316951383694  Z " stroke-width="0" stroke-dasharray="0" stroke="rgba(255, 255, 255, 0)" fill="none" transform="matrix(1 0 0 1 1788 414 )" class="stroke" mask="url(#Clip717)" />
    <path d="M 1.9385312931937173 19.723390766641735  C 1.9385312931937173 18.988757952131635  2.239730740463725 18.621441562453256  2.8421296701570684 18.621441562453256  L 5.444199106955872 18.621441562453256  C 6.045863402393419 18.621441562453256  6.346328215407629 18.98875798728497  6.346328215407629 19.723390766641735  C 6.346328215407629 20.458023545998508  6.045128768137622 20.82534000598355  5.442729838444278 20.82534000598355  L 2.8406604016454753 20.82534000598355  C 2.238996106207928 20.82534000598355  1.9385312931937173 20.458023581151835  1.9385312931937173 19.723390766641735  Z " stroke-width="0" stroke-dasharray="0" stroke="rgba(255, 255, 255, 0)" fill="none" transform="matrix(1 0 0 1 1788 414 )" class="stroke" mask="url(#Clip717)" />
    <path d="M 1.9385312931937173 2.0922030777860883  C 1.9385312931937173 1.3575702632759885  2.239730740463725 0.9902538384442786  2.8421296701570684 0.9902538384442786  L 5.444199106955872 0.9902538384442786  C 6.045863402393419 0.9902538384442786  6.346328215407629 1.3575702632759918  6.346328215407629 2.0922030777860883  C 6.346328215407629 2.826835892296188  6.045128768137622 3.194152317127898  5.442729838444278 3.194152317127898  L 2.8406604016454753 3.194152317127898  C 2.238996106207928 3.194152317127898  1.9385312931937173 2.8268358922961845  1.9385312931937173 2.0922030777860883  Z " stroke-width="0" stroke-dasharray="0" stroke="rgba(255, 255, 255, 0)" fill="none" transform="matrix(1 0 0 1 1788 414 )" class="stroke" mask="url(#Clip717)" />
  </g>
</svg>