<?xml version="1.0" encoding="utf-8"?>
<svg version="1.1" xmlns:xlink="http://www.w3.org/1999/xlink" width="29px" height="11px" xmlns="http://www.w3.org/2000/svg">
  <defs>
    <pattern id="BGPattern" patternUnits="userSpaceOnUse" alignment="0 0" imageRepeat="None" />
    <mask fill="white" id="Clip718">
      <path d="M 0.10045335302917024 2  L 0.10045335302917024 0.317089730740463  L 28.016500550486164 0.317089730740463  L 28.016500550486164 2  L 0.10045335302917024 2  Z M 0.10045335302917024 10.60194923934181  L 0.10045335302917024 9  L 28.016500550486164 9  L 28.016500550486164 10.60194923934181  L 0.10045335302917024 10.60194923934181  Z " fill-rule="evenodd" />
    </mask>
  </defs>
  <g transform="matrix(1 0 0 1 -1806 -411 )">
    <path d="M 0.10045335302917024 2  L 0.10045335302917024 0.317089730740463  L 28.016500550486164 0.317089730740463  L 28.016500550486164 2  L 0.10045335302917024 2  Z M 0.10045335302917024 10.60194923934181  L 0.10045335302917024 9  L 28.016500550486164 9  L 28.016500550486164 10.60194923934181  L 0.10045335302917024 10.60194923934181  Z " fill-rule="nonzero" fill="rgba(0, 82, 217, 1)" stroke="none" transform="matrix(1 0 0 1 1806 411 )" class="fill" />
    <path d="M 0.10045335302917024 2  L 0.10045335302917024 0.317089730740463  L 28.016500550486164 0.317089730740463  L 28.016500550486164 2  L 0.10045335302917024 2  Z " stroke-width="0" stroke-dasharray="0" stroke="rgba(255, 255, 255, 0)" fill="none" transform="matrix(1 0 0 1 1806 411 )" class="stroke" mask="url(#Clip718)" />
    <path d="M 0.10045335302917024 10.60194923934181  L 0.10045335302917024 9  L 28.016500550486164 9  L 28.016500550486164 10.60194923934181  L 0.10045335302917024 10.60194923934181  Z " stroke-width="0" stroke-dasharray="0" stroke="rgba(255, 255, 255, 0)" fill="none" transform="matrix(1 0 0 1 1806 411 )" class="stroke" mask="url(#Clip718)" />
  </g>
</svg>