<?xml version="1.0" encoding="utf-8"?>
<svg version="1.1" xmlns:xlink="http://www.w3.org/1999/xlink" width="31px" height="30px" xmlns="http://www.w3.org/2000/svg">
  <defs>
    <pattern id="BGPattern" patternUnits="userSpaceOnUse" alignment="0 0" imageRepeat="None" />
    <mask fill="white" id="Clip82">
      <path d="M 30 26.68013647868362  C 30.015031281974572 28.044349620044883  29.00491114884069 29.149237396409873  27.758239242333588 29  L 2.889448997008227 29  C 1.6420424562453242 29.15144126402393  0.6311876888556469 28.045084254300676  1 26.680136478683618  L 1 2.973535341062079  C 0.6311876888556469 1.6071182969334323  1.6420424562453242 0.5014958863126395  2.889448997008227 1  L 27.758239242333588 1  C 28.35769963500374 0.5014958863126395  28.932182498130146 0.7615559207180249  29.356065620044873 1.2251092221391167  C 29.779948741959608 1.6886625235602084  30.01723514958863 2.317508216155572  30 2.973535341062079  L 30 26.68013647868362  Z M 2.8262705564697086 2.0456940688107697  C 2.3869601151832462 2.0464287030665664  2.030663204188482 2.4387226222887053  2 2.9228456477187725  L 2 26.877752706806284  C 2.030663239341809 27.36187573223635  2.3862255160807777 27.75490428571429  2.8262705564697086 27.75490428571429  L 27.821417682872095 27.75490428571429  C 28.260728124158554 27.753435017202698  28.61702503515332 27.36114109798055  28 26.877752706806284  L 28 2.918437877337322  C 28.61702503515332 2.4350494861630505  28.260728124158554 2.0427555669409116  27.821417682872095 2  L 2.8262705564697086 2  L 2.8262705564697086 2.044959434554973  Z " fill-rule="evenodd" />
    </mask>
  </defs>
  <g transform="matrix(1 0 0 1 -1804 -402 )">
    <path d="M 30 26.68013647868362  C 30.015031281974572 28.044349620044883  29.00491114884069 29.149237396409873  27.758239242333588 29  L 2.889448997008227 29  C 1.6420424562453242 29.15144126402393  0.6311876888556469 28.045084254300676  1 26.680136478683618  L 1 2.973535341062079  C 0.6311876888556469 1.6071182969334323  1.6420424562453242 0.5014958863126395  2.889448997008227 1  L 27.758239242333588 1  C 28.35769963500374 0.5014958863126395  28.932182498130146 0.7615559207180249  29.356065620044873 1.2251092221391167  C 29.779948741959608 1.6886625235602084  30.01723514958863 2.317508216155572  30 2.973535341062079  L 30 26.68013647868362  Z M 2.8262705564697086 2.0456940688107697  C 2.3869601151832462 2.0464287030665664  2.030663204188482 2.4387226222887053  2 2.9228456477187725  L 2 26.877752706806284  C 2.030663239341809 27.36187573223635  2.3862255160807777 27.75490428571429  2.8262705564697086 27.75490428571429  L 27.821417682872095 27.75490428571429  C 28.260728124158554 27.753435017202698  28.61702503515332 27.36114109798055  28 26.877752706806284  L 28 2.918437877337322  C 28.61702503515332 2.4350494861630505  28.260728124158554 2.0427555669409116  27.821417682872095 2  L 2.8262705564697086 2  L 2.8262705564697086 2.044959434554973  Z " fill-rule="nonzero" fill="rgba(0, 82, 217, 1)" stroke="none" transform="matrix(1 0 0 1 1804 402 )" class="fill" />
    <path d="M 30 26.68013647868362  C 30.015031281974572 28.044349620044883  29.00491114884069 29.149237396409873  27.758239242333588 29  L 2.889448997008227 29  C 1.6420424562453242 29.15144126402393  0.6311876888556469 28.045084254300676  1 26.680136478683618  L 1 2.973535341062079  C 0.6311876888556469 1.6071182969334323  1.6420424562453242 0.5014958863126395  2.889448997008227 1  L 27.758239242333588 1  C 28.35769963500374 0.5014958863126395  28.932182498130146 0.7615559207180249  29.356065620044873 1.2251092221391167  C 29.779948741959608 1.6886625235602084  30.01723514958863 2.317508216155572  30 2.973535341062079  L 30 26.68013647868362  Z " stroke-width="0" stroke-dasharray="0" stroke="rgba(255, 255, 255, 0)" fill="none" transform="matrix(1 0 0 1 1804 402 )" class="stroke" mask="url(#Clip82)" />
    <path d="M 2.8262705564697086 2.0456940688107697  C 2.3869601151832462 2.0464287030665664  2.030663204188482 2.4387226222887053  2 2.9228456477187725  L 2 26.877752706806284  C 2.030663239341809 27.36187573223635  2.3862255160807777 27.75490428571429  2.8262705564697086 27.75490428571429  L 27.821417682872095 27.75490428571429  C 28.260728124158554 27.753435017202698  28.61702503515332 27.36114109798055  28 26.877752706806284  L 28 2.918437877337322  C 28.61702503515332 2.4350494861630505  28.260728124158554 2.0427555669409116  27.821417682872095 2  L 2.8262705564697086 2  L 2.8262705564697086 2.044959434554973  Z " stroke-width="0" stroke-dasharray="0" stroke="rgba(255, 255, 255, 0)" fill="none" transform="matrix(1 0 0 1 1804 402 )" class="stroke" mask="url(#Clip82)" />
  </g>
</svg>