<?xml version="1.0" encoding="utf-8"?>
<svg version="1.1" xmlns:xlink="http://www.w3.org/1999/xlink" width="15px" height="15px" xmlns="http://www.w3.org/2000/svg">
  <defs>
    <pattern id="BGPattern" patternUnits="userSpaceOnUse" alignment="0 0" imageRepeat="None" />
    <mask fill="white" id="Clip1155">
      <path d="M 0 7.5  C 0 3.3  3.3 0  7.5 0  C 11.700000000000001 0  15 3.3  15 7.5  C 15 11.700000000000001  11.700000000000001 15  7.5 15  C 3.3 15  0 11.700000000000001  0 7.5  Z " fill-rule="evenodd" />
    </mask>
  </defs>
  <g transform="matrix(1 0 0 1 -44 -813 )">
    <path d="M 0 7.5  C 0 3.3  3.3 0  7.5 0  C 11.700000000000001 0  15 3.3  15 7.5  C 15 11.700000000000001  11.700000000000001 15  7.5 15  C 3.3 15  0 11.700000000000001  0 7.5  Z " fill-rule="nonzero" fill="rgba(242, 242, 242, 1)" stroke="none" transform="matrix(1 0 0 1 44 813 )" class="fill" />
    <path d="M 0 7.5  C 0 3.3  3.3 0  7.5 0  C 11.700000000000001 0  15 3.3  15 7.5  C 15 11.700000000000001  11.700000000000001 15  7.5 15  C 3.3 15  0 11.700000000000001  0 7.5  Z " stroke-width="2" stroke-dasharray="0" stroke="rgba(242, 242, 242, 1)" fill="none" transform="matrix(1 0 0 1 44 813 )" class="stroke" mask="url(#Clip1155)" />
  </g>
</svg>