<?xml version="1.0" encoding="utf-8"?>
<svg version="1.1" xmlns:xlink="http://www.w3.org/1999/xlink" width="272px" height="6px" xmlns="http://www.w3.org/2000/svg">
  <defs>
    <linearGradient gradientUnits="userSpaceOnUse" x1="0" y1="3.476394849785322" x2="271.89812552390805" y2="3.476394849785237" id="LinearGradient1157">
      <stop id="Stop1158" stop-color="#d4e3fc" offset="0" />
      <stop id="Stop1159" stop-color="#0052d9" offset="1" />
    </linearGradient>
    <pattern id="BGPattern" patternUnits="userSpaceOnUse" alignment="0 0" imageRepeat="None" />
    <mask fill="white" id="Clip1160">
      <path d="M 3 6  C 1.3199999999999998 6  0 4.68  0 3  C 0 1.3199999999999998  1.3199999999999998 0  3 0  L 269 0  C 270.68 0  272 1.3199999999999998  272 3  C 272 4.68  270.68 6  269 6  L 3 6  Z " fill-rule="evenodd" />
    </mask>
  </defs>
  <g transform="matrix(1 0 0 1 -166 -817 )">
    <path d="M 3 6  C 1.3199999999999998 6  0 4.68  0 3  C 0 1.3199999999999998  1.3199999999999998 0  3 0  L 269 0  C 270.68 0  272 1.3199999999999998  272 3  C 272 4.68  270.68 6  269 6  L 3 6  Z " fill-rule="nonzero" fill="url(#LinearGradient1157)" stroke="none" transform="matrix(1 0 0 1 166 817 )" class="fill" />
    <path d="M 3 6  C 1.3199999999999998 6  0 4.68  0 3  C 0 1.3199999999999998  1.3199999999999998 0  3 0  L 269 0  C 270.68 0  272 1.3199999999999998  272 3  C 272 4.68  270.68 6  269 6  L 3 6  Z " stroke-width="0" stroke-dasharray="0" stroke="rgba(121, 121, 121, 1)" fill="none" transform="matrix(1 0 0 1 166 817 )" class="stroke" mask="url(#Clip1160)" />
  </g>
</svg>