<?xml version="1.0" encoding="utf-8"?>
<svg version="1.1" xmlns:xlink="http://www.w3.org/1999/xlink" width="69px" height="6px" xmlns="http://www.w3.org/2000/svg">
  <defs>
    <linearGradient gradientUnits="userSpaceOnUse" x1="0" y1="3.476394849785322" x2="68.97415684246197" y2="3.476394849785237" id="LinearGradient63">
      <stop id="Stop64" stop-color="#d4e3fc" offset="0" />
      <stop id="Stop65" stop-color="#0052d9" offset="1" />
    </linearGradient>
    <pattern id="BGPattern" patternUnits="userSpaceOnUse" alignment="0 0" imageRepeat="None" />
    <mask fill="white" id="Clip66">
      <path d="M 3 6  C 1.3199999999999996 6  0 4.68  0 3  C 0 1.3199999999999998  1.3199999999999996 0  3 0  L 66 0  C 67.68 0  69 1.3199999999999998  69 3  C 69 4.68  67.68 6  66 6  L 3 6  Z " fill-rule="evenodd" />
    </mask>
  </defs>
  <g transform="matrix(1 0 0 1 -166 -965 )">
    <path d="M 3 6  C 1.3199999999999996 6  0 4.68  0 3  C 0 1.3199999999999998  1.3199999999999996 0  3 0  L 66 0  C 67.68 0  69 1.3199999999999998  69 3  C 69 4.68  67.68 6  66 6  L 3 6  Z " fill-rule="nonzero" fill="url(#LinearGradient63)" stroke="none" transform="matrix(1 0 0 1 166 965 )" class="fill" />
    <path d="M 3 6  C 1.3199999999999996 6  0 4.68  0 3  C 0 1.3199999999999998  1.3199999999999996 0  3 0  L 66 0  C 67.68 0  69 1.3199999999999998  69 3  C 69 4.68  67.68 6  66 6  L 3 6  Z " stroke-width="0" stroke-dasharray="0" stroke="rgba(121, 121, 121, 1)" fill="none" transform="matrix(1 0 0 1 166 965 )" class="stroke" mask="url(#Clip66)" />
  </g>
</svg>