<?xml version="1.0" encoding="utf-8"?>
<svg version="1.1" xmlns:xlink="http://www.w3.org/1999/xlink" width="178px" height="178px" xmlns="http://www.w3.org/2000/svg">
  <defs>
    <pattern id="BGPattern" patternUnits="userSpaceOnUse" alignment="0 0" imageRepeat="None" />
    <mask fill="white" id="Clip1177">
      <path d="M 89 22.29454949944382  L 89 0.05939933259176807  C 89.05939819714213 0.05939933259171742  89.05939634287766 0.0593993325916921  89.05939520742801 0.0593993325916921  C 138.17993259682808 0.0593993325916921  177.99999587483626 39.87946261059987  177.99999587483626 88.99999999999993  C 177.99999587483626 138.12053738939997  138.17993259682808 177.94060066740818  89.05939520742801 177.94060066740818  C 39.938857818027955 177.94060066740818  0.11879454001978094 138.12053738939997  0.11879454001978094 88.99999999999993  C 0.11879454001978094 86.08884103467625  0.26172437268949916 83.17943749056914  0.5470678531701891 80.28229655172413  L 22.675160622914348 82.46171746384871  C 22.461152687927722 84.63457480300055  22.353955150524396 86.81662911704295  22.353955150524396 88.99999999999969  C 22.353955150524396 125.84040304204973  52.219002609030525 155.70545050055586  89.05940565108055 155.70545050055586  C 125.8998086931306 155.70545050055586  155.76485615163674 125.84040304204973  155.76485615163674 88.99999999999969  C 155.76485615163674 52.15959695794965  125.8998086931306 22.294549499443512  89.05940565108055 22.294549499443512  C 89.05940356616541 22.294549499443512  89.05940141750692 22.294549499443622  89 22.29454949944382  Z " fill-rule="evenodd" />
    </mask>
  </defs>
  <g transform="matrix(1 0 0 1 -1716 -797 )">
    <path d="M 89 22.29454949944382  L 89 0.05939933259176807  C 89.05939819714213 0.05939933259171742  89.05939634287766 0.0593993325916921  89.05939520742801 0.0593993325916921  C 138.17993259682808 0.0593993325916921  177.99999587483626 39.87946261059987  177.99999587483626 88.99999999999993  C 177.99999587483626 138.12053738939997  138.17993259682808 177.94060066740818  89.05939520742801 177.94060066740818  C 39.938857818027955 177.94060066740818  0.11879454001978094 138.12053738939997  0.11879454001978094 88.99999999999993  C 0.11879454001978094 86.08884103467625  0.26172437268949916 83.17943749056914  0.5470678531701891 80.28229655172413  L 22.675160622914348 82.46171746384871  C 22.461152687927722 84.63457480300055  22.353955150524396 86.81662911704295  22.353955150524396 88.99999999999969  C 22.353955150524396 125.84040304204973  52.219002609030525 155.70545050055586  89.05940565108055 155.70545050055586  C 125.8998086931306 155.70545050055586  155.76485615163674 125.84040304204973  155.76485615163674 88.99999999999969  C 155.76485615163674 52.15959695794965  125.8998086931306 22.294549499443512  89.05940565108055 22.294549499443512  C 89.05940356616541 22.294549499443512  89.05940141750692 22.294549499443622  89 22.29454949944382  Z " fill-rule="nonzero" fill="rgba(54, 179, 126, 1)" stroke="none" transform="matrix(1 0 0 1 1716 797 )" class="fill" />
    <path d="M 89 22.29454949944382  L 89 0.05939933259176807  C 89.05939819714213 0.05939933259171742  89.05939634287766 0.0593993325916921  89.05939520742801 0.0593993325916921  C 138.17993259682808 0.0593993325916921  177.99999587483626 39.87946261059987  177.99999587483626 88.99999999999993  C 177.99999587483626 138.12053738939997  138.17993259682808 177.94060066740818  89.05939520742801 177.94060066740818  C 39.938857818027955 177.94060066740818  0.11879454001978094 138.12053738939997  0.11879454001978094 88.99999999999993  C 0.11879454001978094 86.08884103467625  0.26172437268949916 83.17943749056914  0.5470678531701891 80.28229655172413  L 22.675160622914348 82.46171746384871  C 22.461152687927722 84.63457480300055  22.353955150524396 86.81662911704295  22.353955150524396 88.99999999999969  C 22.353955150524396 125.84040304204973  52.219002609030525 155.70545050055586  89.05940565108055 155.70545050055586  C 125.8998086931306 155.70545050055586  155.76485615163674 125.84040304204973  155.76485615163674 88.99999999999969  C 155.76485615163674 52.15959695794965  125.8998086931306 22.294549499443512  89.05940565108055 22.294549499443512  C 89.05940356616541 22.294549499443512  89.05940141750692 22.294549499443622  89 22.29454949944382  Z " stroke-width="0" stroke-dasharray="0" stroke="rgba(255, 255, 255, 0)" fill="none" transform="matrix(1 0 0 1 1716 797 )" class="stroke" mask="url(#Clip1177)" />
  </g>
</svg>