<?xml version="1.0" encoding="utf-8"?>
<svg version="1.1" xmlns:xlink="http://www.w3.org/1999/xlink" width="17px" height="24px" xmlns="http://www.w3.org/2000/svg">
  <defs>
    <pattern id="BGPattern" patternUnits="userSpaceOnUse" alignment="0 0" imageRepeat="None" />
    <mask fill="white" id="Clip1180">
      <path d="M 4.264314772727259 23.814679999999992  L 0.03195227272726826 1.7862599999999986  C 5.6068602085340675 0.6382002939760327  11.277236178456587 0.06000280018343745  17 0.05999999999999943  L 17 22.519999999999992  C 12.698271747217621 22.51999781561514  8.4454930405162 22.95364090820503  4.264314772727259 23.814679999999992  Z " fill-rule="evenodd" />
    </mask>
  </defs>
  <g transform="matrix(1 0 0 1 -1788 -797 )">
    <path d="M 4.264314772727259 23.814679999999992  L 0.03195227272726826 1.7862599999999986  C 5.6068602085340675 0.6382002939760327  11.277236178456587 0.06000280018343745  17 0.05999999999999943  L 17 22.519999999999992  C 12.698271747217621 22.51999781561514  8.4454930405162 22.95364090820503  4.264314772727259 23.814679999999992  Z " fill-rule="nonzero" fill="rgba(255, 77, 79, 1)" stroke="none" transform="matrix(1 0 0 1 1788 797 )" class="fill" />
    <path d="M 4.264314772727259 23.814679999999992  L 0.03195227272726826 1.7862599999999986  C 5.6068602085340675 0.6382002939760327  11.277236178456587 0.06000280018343745  17 0.05999999999999943  L 17 22.519999999999992  C 12.698271747217621 22.51999781561514  8.4454930405162 22.95364090820503  4.264314772727259 23.814679999999992  Z " stroke-width="0" stroke-dasharray="0" stroke="rgba(255, 255, 255, 0)" fill="none" transform="matrix(1 0 0 1 1788 797 )" class="stroke" mask="url(#Clip1180)" />
  </g>
</svg>