<?xml version="1.0" encoding="utf-8"?>
<svg version="1.1" xmlns:xlink="http://www.w3.org/1999/xlink" width="26px" height="15px" xmlns="http://www.w3.org/2000/svg">
  <defs>
    <pattern id="BGPattern" patternUnits="userSpaceOnUse" alignment="0 0" imageRepeat="None" />
    <mask fill="white" id="Clip1182">
      <path d="M 0.40000000000009095 4  C 0.40000000000009095 2.0670033755922077  1.9670033755924123 0.5  3.900000000000091 0.5  L 21.90000000000009 0.5  C 23.83299662440777 0.5  25.40000000000009 2.0670033755922077  25.40000000000009 4  L 25.40000000000009 11  C 25.40000000000009 12.932996624407792  23.83299662440777 14.5  21.90000000000009 14.5  L 3.900000000000091 14.5  C 1.9670033755924123 14.5  0.40000000000009095 12.932996624407792  0.40000000000009095 11  L 0.40000000000009095 4  Z " fill-rule="evenodd" />
    </mask>
  </defs>
  <g transform="matrix(1 0 0 1 -1483 -897 )">
    <path d="M 0.40000000000009095 4  C 0.40000000000009095 2.0670033755922077  1.9670033755924123 0.5  3.900000000000091 0.5  L 21.90000000000009 0.5  C 23.83299662440777 0.5  25.40000000000009 2.0670033755922077  25.40000000000009 4  L 25.40000000000009 11  C 25.40000000000009 12.932996624407792  23.83299662440777 14.5  21.90000000000009 14.5  L 3.900000000000091 14.5  C 1.9670033755924123 14.5  0.40000000000009095 12.932996624407792  0.40000000000009095 11  L 0.40000000000009095 4  Z " fill-rule="nonzero" fill="rgba(255, 171, 0, 1)" stroke="none" transform="matrix(1 0 0 1 1483 897 )" class="fill" />
    <path d="M 0.40000000000009095 4  C 0.40000000000009095 2.0670033755922077  1.9670033755924123 0.5  3.900000000000091 0.5  L 21.90000000000009 0.5  C 23.83299662440777 0.5  25.40000000000009 2.0670033755922077  25.40000000000009 4  L 25.40000000000009 11  C 25.40000000000009 12.932996624407792  23.83299662440777 14.5  21.90000000000009 14.5  L 3.900000000000091 14.5  C 1.9670033755924123 14.5  0.40000000000009095 12.932996624407792  0.40000000000009095 11  L 0.40000000000009095 4  Z " stroke-width="0" stroke-dasharray="0" stroke="rgba(255, 255, 255, 0)" fill="none" transform="matrix(1 0 0 1 1483 897 )" class="stroke" mask="url(#Clip1182)" />
  </g>
</svg>