<?xml version="1.0" encoding="utf-8"?>
<svg version="1.1" xmlns:xlink="http://www.w3.org/1999/xlink" width="45px" height="45px" xmlns="http://www.w3.org/2000/svg">
  <defs>
    <pattern id="BGPattern" patternUnits="userSpaceOnUse" alignment="0 0" imageRepeat="None" />
    <mask fill="white" id="Clip1191">
      <path d="M 24.259500000000003 28.5  L 24.750000000000004 9  L 20.25 9  L 20.740499999999997 28.5  L 24.259500000000003 28.5  Z M 24.750000000000004 33.75  C 24.750000000000004 33.1245  24.529500000000002 32.592000000000006  24.087 32.1555  C 23.67008134874887 31.728899977250272  23.09644290379987 31.491962358684376  22.5 31.499999999999996  C 21.885 31.499999999999996  21.354000000000003 31.718999999999998  20.913 32.1555  C 20.479759942127124 32.5715926017375  20.23950495069815 33.149400420490885  20.25 33.75  C 20.25 34.3875  20.4705 34.921499999999995  20.913 35.3535  C 21.354000000000003 35.784  21.8835 36  22.5 36  C 23.115000000000002 36  23.645999999999997 35.784  24.087 35.3535  C 24.529500000000002 34.921499999999995  24.750000000000004 34.3875  24.750000000000004 33.75  Z M 45 22.5  C 45 10.073999999999998  34.926 0  22.5 0  C 10.074000000000002 0  0 10.074000000000002  0 22.5  C 0 34.926  10.074000000000002 45  22.5 45  C 34.926 45  45 34.926  45 22.5  Z M 3 22.5  C 3 11.73  11.73 3  22.5 3  C 33.269999999999996 3  42 11.73  42 22.5  C 42 33.269999999999996  33.269999999999996 42  22.5 42  C 11.73 42  3 33.269999999999996  3 22.5  Z " fill-rule="evenodd" />
    </mask>
  </defs>
  <g transform="matrix(1 0 0 1 -1187 -138 )">
    <path d="M 24.259500000000003 28.5  L 24.750000000000004 9  L 20.25 9  L 20.740499999999997 28.5  L 24.259500000000003 28.5  Z M 24.750000000000004 33.75  C 24.750000000000004 33.1245  24.529500000000002 32.592000000000006  24.087 32.1555  C 23.67008134874887 31.728899977250272  23.09644290379987 31.491962358684376  22.5 31.499999999999996  C 21.885 31.499999999999996  21.354000000000003 31.718999999999998  20.913 32.1555  C 20.479759942127124 32.5715926017375  20.23950495069815 33.149400420490885  20.25 33.75  C 20.25 34.3875  20.4705 34.921499999999995  20.913 35.3535  C 21.354000000000003 35.784  21.8835 36  22.5 36  C 23.115000000000002 36  23.645999999999997 35.784  24.087 35.3535  C 24.529500000000002 34.921499999999995  24.750000000000004 34.3875  24.750000000000004 33.75  Z M 45 22.5  C 45 10.073999999999998  34.926 0  22.5 0  C 10.074000000000002 0  0 10.074000000000002  0 22.5  C 0 34.926  10.074000000000002 45  22.5 45  C 34.926 45  45 34.926  45 22.5  Z M 3 22.5  C 3 11.73  11.73 3  22.5 3  C 33.269999999999996 3  42 11.73  42 22.5  C 42 33.269999999999996  33.269999999999996 42  22.5 42  C 11.73 42  3 33.269999999999996  3 22.5  Z " fill-rule="nonzero" fill="rgba(237, 123, 47, 1)" stroke="none" transform="matrix(1 0 0 1 1187 138 )" class="fill" />
    <path d="M 24.259500000000003 28.5  L 24.750000000000004 9  L 20.25 9  L 20.740499999999997 28.5  L 24.259500000000003 28.5  Z " stroke-width="0" stroke-dasharray="0" stroke="rgba(255, 255, 255, 0)" fill="none" transform="matrix(1 0 0 1 1187 138 )" class="stroke" mask="url(#Clip1191)" />
    <path d="M 24.750000000000004 33.75  C 24.750000000000004 33.1245  24.529500000000002 32.592000000000006  24.087 32.1555  C 23.67008134874887 31.728899977250272  23.09644290379987 31.491962358684376  22.5 31.499999999999996  C 21.885 31.499999999999996  21.354000000000003 31.718999999999998  20.913 32.1555  C 20.479759942127124 32.5715926017375  20.23950495069815 33.149400420490885  20.25 33.75  C 20.25 34.3875  20.4705 34.921499999999995  20.913 35.3535  C 21.354000000000003 35.784  21.8835 36  22.5 36  C 23.115000000000002 36  23.645999999999997 35.784  24.087 35.3535  C 24.529500000000002 34.921499999999995  24.750000000000004 34.3875  24.750000000000004 33.75  Z " stroke-width="0" stroke-dasharray="0" stroke="rgba(255, 255, 255, 0)" fill="none" transform="matrix(1 0 0 1 1187 138 )" class="stroke" mask="url(#Clip1191)" />
    <path d="M 45 22.5  C 45 10.073999999999998  34.926 0  22.5 0  C 10.074000000000002 0  0 10.074000000000002  0 22.5  C 0 34.926  10.074000000000002 45  22.5 45  C 34.926 45  45 34.926  45 22.5  Z " stroke-width="0" stroke-dasharray="0" stroke="rgba(255, 255, 255, 0)" fill="none" transform="matrix(1 0 0 1 1187 138 )" class="stroke" mask="url(#Clip1191)" />
    <path d="M 3 22.5  C 3 11.73  11.73 3  22.5 3  C 33.269999999999996 3  42 11.73  42 22.5  C 42 33.269999999999996  33.269999999999996 42  22.5 42  C 11.73 42  3 33.269999999999996  3 22.5  Z " stroke-width="0" stroke-dasharray="0" stroke="rgba(255, 255, 255, 0)" fill="none" transform="matrix(1 0 0 1 1187 138 )" class="stroke" mask="url(#Clip1191)" />
  </g>
</svg>