<?xml version="1.0" encoding="utf-8"?>
<svg version="1.1" xmlns:xlink="http://www.w3.org/1999/xlink" width="45px" height="45px" xmlns="http://www.w3.org/2000/svg">
  <defs>
    <pattern id="BGPattern" patternUnits="userSpaceOnUse" alignment="0 0" imageRepeat="None" />
    <mask fill="white" id="Clip1193">
      <path d="M 44.65487441860464 43.311627906976746  C 44.65487441860464 44.05143259512218  44.05514422302915 44.65116279069767  43.31533953488372 44.651162790697676  L 34.08650232558139 44.65116279069767  C 33.34669763743596 44.65116279069767  32.74696744186046 44.05143259512218  32.74696744186046 43.311627906976746  L 32.74696744186046 43.013023255813955  C 32.74696744186046 42.27321856766852  33.34669763743596 41.673488372093026  34.0865023255814 41.673488372093026  L 43.31533953488372 41.673488372093026  C 44.055144223029174 41.673488372093026  44.65487441860464 42.273218567668515  44.65487441860465 43.013023255813955  L 44.65487441860464 43.311627906976746  Z M 44.65487441860464 38.84651162790698  C 44.65487441860464 39.58631631605241  44.05514422302915 40.18604651162791  43.31533953488372 40.18604651162791  L 34.08650232558139 40.18604651162791  C 33.34669763743596 40.18604651162791  32.74696744186046 39.58631631605241  32.74696744186046 38.84651162790698  L 32.74696744186046 38.54790697674419  C 32.74696744186046 37.80810228859875  33.34669763743596 37.20837209302326  34.0865023255814 37.20837209302326  L 43.31533953488372 37.20837209302326  C 44.05514422302916 37.20837209302326  44.65487441860464 37.80810228859875  44.65487441860465 38.54790697674419  L 44.65487441860464 38.84651162790698  Z M 43.31533953488372 35.72093023255814  L 34.08650232558139 35.72093023255814  C 33.34669763743596 35.72093023255814  32.74696744186046 35.12120003698264  32.74696744186046 34.38139534883721  L 32.74696744186046 34.08279069767442  C 32.74696744186046 33.34298600952898  33.34669763743596 32.74325581395348  34.08650232558139 32.74325581395348  L 43.31533953488372 32.74325581395348  C 44.05514422302916 32.74325581395348  44.65487441860465 33.34298600952898  44.65487441860465 34.08279069767442  C 44.65487441860465 35.86883720930232  44.65487441860465 32.296744186046524  44.65487441860465 34.08279069767442  L 44.65487441860464 34.3813953488372  C 44.65487441860464 35.12120003698264  44.05514422302915 35.72093023255814  43.31533953488371 35.72093023255814  Z M 43.371153488372094 29.793488372093023  C 43.204243877812026 29.776629932935368  43.03658669046745 29.76824707356814  42.86882790697675 29.76837209302326  L 40.19254883720931 29.76837209302326  C 41.1745670030151 27.410908776648135  41.680154920801854 24.88235560616065  41.680154920801854 22.32853631615069  C 41.680154920801854 11.642982351750065  33.017801908458296 2.980629339406506  22.33224794405767 2.980629339406506  C 11.646693979657043 2.980629339406506  2.984340967313482 11.642982351750065  2.984340967313482 22.32853631615069  C 2.984340967313482 33.01409028055132  11.646693979657043 41.676443292894874  22.33224794405767 41.676443292894874  C 24.886067234067628 41.676443292894874  27.414620404555112 41.170855375108125  29.772083720930237 40.18883720930233  L 29.772083720930237 42.86511627906977  C 29.772083720930237 43.035348837209305  29.78045581395349 43.20279069767442  29.799990697674417 43.367441860465114  C 27.401207692537618 44.2183308843339  24.874518011742023 44.6525024394949  22.329293023255815 44.651162790697676  C 18.017653339443513 44.6558539440184  13.797787435030807 43.40599016856161  10.184176744186043 41.053953488372095  C 10.0725488372093 40.98139534883721  9.955339534883718 40.91162790697675  9.846502325581392 40.83627906976744  L 9.684641860465115 40.72186046511628  C 3.627289036138319 36.55677063717582  0.008506385158443134 29.67673701493432  0.008506385158443134 22.325580880475407  C 0.008506385158443134 9.997375172271946  10.001087599365913 0.0026476691769072454  22.329293023255815 0  C 34.66027637750682 0.0030781614485597235  44.65488132566757 10.000178356473901  44.65488132566757 22.331162094922885  C 44.65488132566757 24.87354408918044  44.22073235446926 27.397257591261162  43.371153488372094 29.793488372093023  Z M 29.802781395348834 30.008372093023254  C 29.27896786130029 30.530286134660937  28.43171120846715 30.530286134660937  27.90789767441861 30.008372093023258  L 22.3265023255814 24.42697674418605  L 16.91254883720931 29.840930232558144  C 16.390648359061633 30.36220214547369  15.545146989775594 30.36220214547369  15.023246511627915 29.840930232558144  L 14.813944186046518 29.631627906976753  C 14.292672273130979 29.109727428829075  14.292672273130979 28.264226059543034  14.813944186046518 27.74232558139536  L 20.227897674418614 22.328372093023265  L 14.646502325581407 16.746976744186053  C 14.12458828394372 16.223163210137507  14.12458828394372 15.37590655730437  14.646502325581404 14.852093023255822  L 14.8558046511628 14.642790697674425  C 15.379618185211347 14.12087665603674  16.226874838044484 14.120876656036739  16.750688372093034 14.642790697674425  L 22.332083720930246 20.224186046511633  L 28.0418511627907 14.511627906976747  C 28.56375164093838 13.990355994061204  29.409253010224415 13.990355994061204  29.931153488372093 14.511627906976743  L 30.143246511627908 14.723720930232558  C 30.664518424543452 15.245621408380236  30.664518424543452 16.091122777666275  30.143246511627908 16.613023255813953  L 24.430688372093023 22.322790697674417  L 30.01208372093023 27.904186046511622  C 30.533997762567914 28.427999580560172  30.533997762567914 29.275256233393307  30.01208372093023 29.79906976744186  L 29.802781395348834 30.008372093023254  Z " fill-rule="evenodd" />
    </mask>
  </defs>
  <g transform="matrix(1 0 0 1 -1513 -140 )">
    <path d="M 44.65487441860464 43.311627906976746  C 44.65487441860464 44.05143259512218  44.05514422302915 44.65116279069767  43.31533953488372 44.651162790697676  L 34.08650232558139 44.65116279069767  C 33.34669763743596 44.65116279069767  32.74696744186046 44.05143259512218  32.74696744186046 43.311627906976746  L 32.74696744186046 43.013023255813955  C 32.74696744186046 42.27321856766852  33.34669763743596 41.673488372093026  34.0865023255814 41.673488372093026  L 43.31533953488372 41.673488372093026  C 44.055144223029174 41.673488372093026  44.65487441860464 42.273218567668515  44.65487441860465 43.013023255813955  L 44.65487441860464 43.311627906976746  Z M 44.65487441860464 38.84651162790698  C 44.65487441860464 39.58631631605241  44.05514422302915 40.18604651162791  43.31533953488372 40.18604651162791  L 34.08650232558139 40.18604651162791  C 33.34669763743596 40.18604651162791  32.74696744186046 39.58631631605241  32.74696744186046 38.84651162790698  L 32.74696744186046 38.54790697674419  C 32.74696744186046 37.80810228859875  33.34669763743596 37.20837209302326  34.0865023255814 37.20837209302326  L 43.31533953488372 37.20837209302326  C 44.05514422302916 37.20837209302326  44.65487441860464 37.80810228859875  44.65487441860465 38.54790697674419  L 44.65487441860464 38.84651162790698  Z M 43.31533953488372 35.72093023255814  L 34.08650232558139 35.72093023255814  C 33.34669763743596 35.72093023255814  32.74696744186046 35.12120003698264  32.74696744186046 34.38139534883721  L 32.74696744186046 34.08279069767442  C 32.74696744186046 33.34298600952898  33.34669763743596 32.74325581395348  34.08650232558139 32.74325581395348  L 43.31533953488372 32.74325581395348  C 44.05514422302916 32.74325581395348  44.65487441860465 33.34298600952898  44.65487441860465 34.08279069767442  C 44.65487441860465 35.86883720930232  44.65487441860465 32.296744186046524  44.65487441860465 34.08279069767442  L 44.65487441860464 34.3813953488372  C 44.65487441860464 35.12120003698264  44.05514422302915 35.72093023255814  43.31533953488371 35.72093023255814  Z M 43.371153488372094 29.793488372093023  C 43.204243877812026 29.776629932935368  43.03658669046745 29.76824707356814  42.86882790697675 29.76837209302326  L 40.19254883720931 29.76837209302326  C 41.1745670030151 27.410908776648135  41.680154920801854 24.88235560616065  41.680154920801854 22.32853631615069  C 41.680154920801854 11.642982351750065  33.017801908458296 2.980629339406506  22.33224794405767 2.980629339406506  C 11.646693979657043 2.980629339406506  2.984340967313482 11.642982351750065  2.984340967313482 22.32853631615069  C 2.984340967313482 33.01409028055132  11.646693979657043 41.676443292894874  22.33224794405767 41.676443292894874  C 24.886067234067628 41.676443292894874  27.414620404555112 41.170855375108125  29.772083720930237 40.18883720930233  L 29.772083720930237 42.86511627906977  C 29.772083720930237 43.035348837209305  29.78045581395349 43.20279069767442  29.799990697674417 43.367441860465114  C 27.401207692537618 44.2183308843339  24.874518011742023 44.6525024394949  22.329293023255815 44.651162790697676  C 18.017653339443513 44.6558539440184  13.797787435030807 43.40599016856161  10.184176744186043 41.053953488372095  C 10.0725488372093 40.98139534883721  9.955339534883718 40.91162790697675  9.846502325581392 40.83627906976744  L 9.684641860465115 40.72186046511628  C 3.627289036138319 36.55677063717582  0.008506385158443134 29.67673701493432  0.008506385158443134 22.325580880475407  C 0.008506385158443134 9.997375172271946  10.001087599365913 0.0026476691769072454  22.329293023255815 0  C 34.66027637750682 0.0030781614485597235  44.65488132566757 10.000178356473901  44.65488132566757 22.331162094922885  C 44.65488132566757 24.87354408918044  44.22073235446926 27.397257591261162  43.371153488372094 29.793488372093023  Z M 29.802781395348834 30.008372093023254  C 29.27896786130029 30.530286134660937  28.43171120846715 30.530286134660937  27.90789767441861 30.008372093023258  L 22.3265023255814 24.42697674418605  L 16.91254883720931 29.840930232558144  C 16.390648359061633 30.36220214547369  15.545146989775594 30.36220214547369  15.023246511627915 29.840930232558144  L 14.813944186046518 29.631627906976753  C 14.292672273130979 29.109727428829075  14.292672273130979 28.264226059543034  14.813944186046518 27.74232558139536  L 20.227897674418614 22.328372093023265  L 14.646502325581407 16.746976744186053  C 14.12458828394372 16.223163210137507  14.12458828394372 15.37590655730437  14.646502325581404 14.852093023255822  L 14.8558046511628 14.642790697674425  C 15.379618185211347 14.12087665603674  16.226874838044484 14.120876656036739  16.750688372093034 14.642790697674425  L 22.332083720930246 20.224186046511633  L 28.0418511627907 14.511627906976747  C 28.56375164093838 13.990355994061204  29.409253010224415 13.990355994061204  29.931153488372093 14.511627906976743  L 30.143246511627908 14.723720930232558  C 30.664518424543452 15.245621408380236  30.664518424543452 16.091122777666275  30.143246511627908 16.613023255813953  L 24.430688372093023 22.322790697674417  L 30.01208372093023 27.904186046511622  C 30.533997762567914 28.427999580560172  30.533997762567914 29.275256233393307  30.01208372093023 29.79906976744186  L 29.802781395348834 30.008372093023254  Z " fill-rule="nonzero" fill="rgba(227, 77, 89, 1)" stroke="none" transform="matrix(1 0 0 1 1513 140 )" class="fill" />
    <path d="M 44.65487441860464 43.311627906976746  C 44.65487441860464 44.05143259512218  44.05514422302915 44.65116279069767  43.31533953488372 44.651162790697676  L 34.08650232558139 44.65116279069767  C 33.34669763743596 44.65116279069767  32.74696744186046 44.05143259512218  32.74696744186046 43.311627906976746  L 32.74696744186046 43.013023255813955  C 32.74696744186046 42.27321856766852  33.34669763743596 41.673488372093026  34.0865023255814 41.673488372093026  L 43.31533953488372 41.673488372093026  C 44.055144223029174 41.673488372093026  44.65487441860464 42.273218567668515  44.65487441860465 43.013023255813955  L 44.65487441860464 43.311627906976746  Z " stroke-width="0" stroke-dasharray="0" stroke="rgba(255, 255, 255, 0)" fill="none" transform="matrix(1 0 0 1 1513 140 )" class="stroke" mask="url(#Clip1193)" />
    <path d="M 44.65487441860464 38.84651162790698  C 44.65487441860464 39.58631631605241  44.05514422302915 40.18604651162791  43.31533953488372 40.18604651162791  L 34.08650232558139 40.18604651162791  C 33.34669763743596 40.18604651162791  32.74696744186046 39.58631631605241  32.74696744186046 38.84651162790698  L 32.74696744186046 38.54790697674419  C 32.74696744186046 37.80810228859875  33.34669763743596 37.20837209302326  34.0865023255814 37.20837209302326  L 43.31533953488372 37.20837209302326  C 44.05514422302916 37.20837209302326  44.65487441860464 37.80810228859875  44.65487441860465 38.54790697674419  L 44.65487441860464 38.84651162790698  Z " stroke-width="0" stroke-dasharray="0" stroke="rgba(255, 255, 255, 0)" fill="none" transform="matrix(1 0 0 1 1513 140 )" class="stroke" mask="url(#Clip1193)" />
    <path d="M 43.31533953488372 35.72093023255814  L 34.08650232558139 35.72093023255814  C 33.34669763743596 35.72093023255814  32.74696744186046 35.12120003698264  32.74696744186046 34.38139534883721  L 32.74696744186046 34.08279069767442  C 32.74696744186046 33.34298600952898  33.34669763743596 32.74325581395348  34.08650232558139 32.74325581395348  L 43.31533953488372 32.74325581395348  C 44.05514422302916 32.74325581395348  44.65487441860465 33.34298600952898  44.65487441860465 34.08279069767442  C 44.65487441860465 35.86883720930232  44.65487441860465 32.296744186046524  44.65487441860465 34.08279069767442  L 44.65487441860464 34.3813953488372  C 44.65487441860464 35.12120003698264  44.05514422302915 35.72093023255814  43.31533953488371 35.72093023255814  Z " stroke-width="0" stroke-dasharray="0" stroke="rgba(255, 255, 255, 0)" fill="none" transform="matrix(1 0 0 1 1513 140 )" class="stroke" mask="url(#Clip1193)" />
    <path d="M 43.371153488372094 29.793488372093023  C 43.204243877812026 29.776629932935368  43.03658669046745 29.76824707356814  42.86882790697675 29.76837209302326  L 40.19254883720931 29.76837209302326  C 41.1745670030151 27.410908776648135  41.680154920801854 24.88235560616065  41.680154920801854 22.32853631615069  C 41.680154920801854 11.642982351750065  33.017801908458296 2.980629339406506  22.33224794405767 2.980629339406506  C 11.646693979657043 2.980629339406506  2.984340967313482 11.642982351750065  2.984340967313482 22.32853631615069  C 2.984340967313482 33.01409028055132  11.646693979657043 41.676443292894874  22.33224794405767 41.676443292894874  C 24.886067234067628 41.676443292894874  27.414620404555112 41.170855375108125  29.772083720930237 40.18883720930233  L 29.772083720930237 42.86511627906977  C 29.772083720930237 43.035348837209305  29.78045581395349 43.20279069767442  29.799990697674417 43.367441860465114  C 27.401207692537618 44.2183308843339  24.874518011742023 44.6525024394949  22.329293023255815 44.651162790697676  C 18.017653339443513 44.6558539440184  13.797787435030807 43.40599016856161  10.184176744186043 41.053953488372095  C 10.0725488372093 40.98139534883721  9.955339534883718 40.91162790697675  9.846502325581392 40.83627906976744  L 9.684641860465115 40.72186046511628  C 3.627289036138319 36.55677063717582  0.008506385158443134 29.67673701493432  0.008506385158443134 22.325580880475407  C 0.008506385158443134 9.997375172271946  10.001087599365913 0.0026476691769072454  22.329293023255815 0  C 34.66027637750682 0.0030781614485597235  44.65488132566757 10.000178356473901  44.65488132566757 22.331162094922885  C 44.65488132566757 24.87354408918044  44.22073235446926 27.397257591261162  43.371153488372094 29.793488372093023  Z " stroke-width="0" stroke-dasharray="0" stroke="rgba(255, 255, 255, 0)" fill="none" transform="matrix(1 0 0 1 1513 140 )" class="stroke" mask="url(#Clip1193)" />
    <path d="M 29.802781395348834 30.008372093023254  C 29.27896786130029 30.530286134660937  28.43171120846715 30.530286134660937  27.90789767441861 30.008372093023258  L 22.3265023255814 24.42697674418605  L 16.91254883720931 29.840930232558144  C 16.390648359061633 30.36220214547369  15.545146989775594 30.36220214547369  15.023246511627915 29.840930232558144  L 14.813944186046518 29.631627906976753  C 14.292672273130979 29.109727428829075  14.292672273130979 28.264226059543034  14.813944186046518 27.74232558139536  L 20.227897674418614 22.328372093023265  L 14.646502325581407 16.746976744186053  C 14.12458828394372 16.223163210137507  14.12458828394372 15.37590655730437  14.646502325581404 14.852093023255822  L 14.8558046511628 14.642790697674425  C 15.379618185211347 14.12087665603674  16.226874838044484 14.120876656036739  16.750688372093034 14.642790697674425  L 22.332083720930246 20.224186046511633  L 28.0418511627907 14.511627906976747  C 28.56375164093838 13.990355994061204  29.409253010224415 13.990355994061204  29.931153488372093 14.511627906976743  L 30.143246511627908 14.723720930232558  C 30.664518424543452 15.245621408380236  30.664518424543452 16.091122777666275  30.143246511627908 16.613023255813953  L 24.430688372093023 22.322790697674417  L 30.01208372093023 27.904186046511622  C 30.533997762567914 28.427999580560172  30.533997762567914 29.275256233393307  30.01208372093023 29.79906976744186  L 29.802781395348834 30.008372093023254  Z " stroke-width="0" stroke-dasharray="0" stroke="rgba(255, 255, 255, 0)" fill="none" transform="matrix(1 0 0 1 1513 140 )" class="stroke" mask="url(#Clip1193)" />
  </g>
</svg>