<?xml version="1.0" encoding="utf-8"?>
<svg version="1.1" xmlns:xlink="http://www.w3.org/1999/xlink" width="58px" height="45px" xmlns="http://www.w3.org/2000/svg">
  <defs>
    <pattern id="BGPattern" patternUnits="userSpaceOnUse" alignment="0 0" imageRepeat="None" />
    <mask fill="white" id="Clip84">
      <path d="M 18.15058823529412 25  L 36.02823529411764 42.68181818181818  L 44.07999999999999 42.68181818181818  L 44.07999999999999 45  L 57.31764705882353 45  L 57.31764705882353 37  L 44.07999999999999 37  L 44.07999999999999 39.95454545454545  L 37.256470588235295 39.95454545454545  L 22.24470588235294 25  L 44.216470588235296 25  L 44.216470588235296 27  L 57.454117647058816 27  L 57.454117647058816 20  L 44.21647058823528 20  L 44.21647058823528 22  L 13.101176470588237 22  L 30.432941176470585 5  L 44.07999999999999 5  L 44.07999999999999 8  L 57.31764705882353 8  L 57.31764705882353 0  L 44.07999999999999 0  L 44.07999999999999 3  L 29.204705882352943 3  L 9.143529411764705 22.227272727272727  L 0 22.227272727272727  L 0 25  L 18.15058823529412 25  Z M 45.444705882352935 38  L 55.95294117647059 38  L 55.95294117647059 43  L 45.444705882352935 43  L 45.444705882352935 38  Z M 45.444705882352935 22  L 55.95294117647059 22  L 55.95294117647059 26  L 45.444705882352935 26  L 45.444705882352935 22  Z M 45.444705882352935 2  L 55.95294117647059 2  L 55.95294117647059 7  L 45.444705882352935 7  L 45.444705882352935 2  Z " fill-rule="evenodd" />
    </mask>
  </defs>
  <g transform="matrix(1 0 0 1 -1829 -140 )">
    <path d="M 18.15058823529412 25  L 36.02823529411764 42.68181818181818  L 44.07999999999999 42.68181818181818  L 44.07999999999999 45  L 57.31764705882353 45  L 57.31764705882353 37  L 44.07999999999999 37  L 44.07999999999999 39.95454545454545  L 37.256470588235295 39.95454545454545  L 22.24470588235294 25  L 44.216470588235296 25  L 44.216470588235296 27  L 57.454117647058816 27  L 57.454117647058816 20  L 44.21647058823528 20  L 44.21647058823528 22  L 13.101176470588237 22  L 30.432941176470585 5  L 44.07999999999999 5  L 44.07999999999999 8  L 57.31764705882353 8  L 57.31764705882353 0  L 44.07999999999999 0  L 44.07999999999999 3  L 29.204705882352943 3  L 9.143529411764705 22.227272727272727  L 0 22.227272727272727  L 0 25  L 18.15058823529412 25  Z M 45.444705882352935 38  L 55.95294117647059 38  L 55.95294117647059 43  L 45.444705882352935 43  L 45.444705882352935 38  Z M 45.444705882352935 22  L 55.95294117647059 22  L 55.95294117647059 26  L 45.444705882352935 26  L 45.444705882352935 22  Z M 45.444705882352935 2  L 55.95294117647059 2  L 55.95294117647059 7  L 45.444705882352935 7  L 45.444705882352935 2  Z " fill-rule="nonzero" fill="rgba(0, 82, 217, 1)" stroke="none" transform="matrix(1 0 0 1 1829 140 )" class="fill" />
    <path d="M 18.15058823529412 25  L 36.02823529411764 42.68181818181818  L 44.07999999999999 42.68181818181818  L 44.07999999999999 45  L 57.31764705882353 45  L 57.31764705882353 37  L 44.07999999999999 37  L 44.07999999999999 39.95454545454545  L 37.256470588235295 39.95454545454545  L 22.24470588235294 25  L 44.216470588235296 25  L 44.216470588235296 27  L 57.454117647058816 27  L 57.454117647058816 20  L 44.21647058823528 20  L 44.21647058823528 22  L 13.101176470588237 22  L 30.432941176470585 5  L 44.07999999999999 5  L 44.07999999999999 8  L 57.31764705882353 8  L 57.31764705882353 0  L 44.07999999999999 0  L 44.07999999999999 3  L 29.204705882352943 3  L 9.143529411764705 22.227272727272727  L 0 22.227272727272727  L 0 25  L 18.15058823529412 25  Z " stroke-width="0" stroke-dasharray="0" stroke="rgba(255, 255, 255, 0)" fill="none" transform="matrix(1 0 0 1 1829 140 )" class="stroke" mask="url(#Clip84)" />
    <path d="M 45.444705882352935 38  L 55.95294117647059 38  L 55.95294117647059 43  L 45.444705882352935 43  L 45.444705882352935 38  Z " stroke-width="0" stroke-dasharray="0" stroke="rgba(255, 255, 255, 0)" fill="none" transform="matrix(1 0 0 1 1829 140 )" class="stroke" mask="url(#Clip84)" />
    <path d="M 45.444705882352935 22  L 55.95294117647059 22  L 55.95294117647059 26  L 45.444705882352935 26  L 45.444705882352935 22  Z " stroke-width="0" stroke-dasharray="0" stroke="rgba(255, 255, 255, 0)" fill="none" transform="matrix(1 0 0 1 1829 140 )" class="stroke" mask="url(#Clip84)" />
    <path d="M 45.444705882352935 2  L 55.95294117647059 2  L 55.95294117647059 7  L 45.444705882352935 7  L 45.444705882352935 2  Z " stroke-width="0" stroke-dasharray="0" stroke="rgba(255, 255, 255, 0)" fill="none" transform="matrix(1 0 0 1 1829 140 )" class="stroke" mask="url(#Clip84)" />
  </g>
</svg>