<?xml version="1.0" encoding="utf-8"?>
<svg version="1.1" xmlns:xlink="http://www.w3.org/1999/xlink" width="130px" height="134px" xmlns="http://www.w3.org/2000/svg">
  <defs>
    <pattern id="BGPattern" patternUnits="userSpaceOnUse" alignment="0 0" imageRepeat="None" />
    <mask fill="white" id="Clip1195">
      <path d="M 1 130.07241379310344  L 1 0.346551724137931  C 0.46098765373622685 0.3465517241372744  0.4609821161009238 0.3465517241369329  0.4609768620357322 0.3465517241369329  C 71.93974514909033 0.3465517241369329  129.88473572728395 58.4267985137598  129.88473572728395 130.07241379310244  C 129.88473572728395 131.34343254348002  129.86609958357565 132.61438265837234  129.82883333333334 133.8848524137931  L 1 130.07241379310344  Z " fill-rule="evenodd" />
    </mask>
  </defs>
  <g transform="matrix(1 0 0 1 -1110 -451 )">
    <path d="M 1 130.07241379310344  L 1 0.346551724137931  C 0.46098765373622685 0.3465517241372744  0.4609821161009238 0.3465517241369329  0.4609768620357322 0.3465517241369329  C 71.93974514909033 0.3465517241369329  129.88473572728395 58.4267985137598  129.88473572728395 130.07241379310244  C 129.88473572728395 131.34343254348002  129.86609958357565 132.61438265837234  129.82883333333334 133.8848524137931  L 1 130.07241379310344  Z " fill-rule="nonzero" fill="rgba(179, 222, 105, 1)" stroke="none" transform="matrix(1 0 0 1 1110 451 )" class="fill" />
    <path d="M 1 130.07241379310344  L 1 0.346551724137931  C 0.46098765373622685 0.3465517241372744  0.4609821161009238 0.3465517241369329  0.4609768620357322 0.3465517241369329  C 71.93974514909033 0.3465517241369329  129.88473572728395 58.4267985137598  129.88473572728395 130.07241379310244  C 129.88473572728395 131.34343254348002  129.86609958357565 132.61438265837234  129.82883333333334 133.8848524137931  L 1 130.07241379310344  Z " stroke-width="0" stroke-dasharray="0" stroke="rgba(255, 255, 255, 0)" fill="none" transform="matrix(1 0 0 1 1110 451 )" class="stroke" mask="url(#Clip1195)" />
  </g>
</svg>