<?xml version="1.0" encoding="utf-8"?>
<svg version="1.1" xmlns:xlink="http://www.w3.org/1999/xlink" width="90px" height="149px" xmlns="http://www.w3.org/2000/svg">
  <defs>
    <pattern id="BGPattern" patternUnits="userSpaceOnUse" alignment="0 0" imageRepeat="None" />
    <mask fill="white" id="Clip1209">
      <path d="M 0 35.38673195876287  C 0 35.38673195876287  0 3.3421468041237152  0 3.3421468041237152  C 0 1.6454096798043854  1.3799442642182889 0.2699545813464165  3.082191780817758 0.2699545813464165  C 3.11891975843439 0.2699545813464165  3.1556448022616395 0.27060893193934765  3.192349315185648 0.2719173195876271  C 51.2503801815971 1.9849965120193467  89.93838052686776 41.9284988009919  89.93838052686776 89.86081180110817  C 89.93838052686776 111.04357158015873  82.36107533364935 131.53229751096003  68.56745547948094 147.64692639175257  C 67.98185952184255 148.33105226231586  67.12493559730773 148.72508060159694  66.22271007756576 148.72508060159694  C 65.45141877625673 148.72508060159694  64.70815702960259 148.43684325720952  64.13967123291164 147.9172769072165  C 64.13967123291164 147.9172769072165  39.82737328773896 126.26066453608249  39.82737328773896 126.26066453608249  C 38.62295910550195 125.15991803678456  38.489720045206944 123.31357899614406  39.52368493157497 122.05235154639175  C 46.97222189096725 112.96669011661763  51.65752063519746 101.59407901998391  51.65752063519746 89.86081180661512  C 51.65752063519746 62.88877883974262  29.922810251748512 39.989885341274764  2.9066609590216532 38.4538892783505  C 1.2752622424760647 38.36113282487923  1.1490338745121302E-05 37.015466875518705  0 35.38673195876287  Z " fill-rule="evenodd" />
    </mask>
  </defs>
  <g transform="matrix(1 0 0 1 -831 -787 )">
    <path d="M 0 35.38673195876287  C 0 35.38673195876287  0 3.3421468041237152  0 3.3421468041237152  C 0 1.6454096798043854  1.3799442642182889 0.2699545813464165  3.082191780817758 0.2699545813464165  C 3.11891975843439 0.2699545813464165  3.1556448022616395 0.27060893193934765  3.192349315185648 0.2719173195876271  C 51.2503801815971 1.9849965120193467  89.93838052686776 41.9284988009919  89.93838052686776 89.86081180110817  C 89.93838052686776 111.04357158015873  82.36107533364935 131.53229751096003  68.56745547948094 147.64692639175257  C 67.98185952184255 148.33105226231586  67.12493559730773 148.72508060159694  66.22271007756576 148.72508060159694  C 65.45141877625673 148.72508060159694  64.70815702960259 148.43684325720952  64.13967123291164 147.9172769072165  C 64.13967123291164 147.9172769072165  39.82737328773896 126.26066453608249  39.82737328773896 126.26066453608249  C 38.62295910550195 125.15991803678456  38.489720045206944 123.31357899614406  39.52368493157497 122.05235154639175  C 46.97222189096725 112.96669011661763  51.65752063519746 101.59407901998391  51.65752063519746 89.86081180661512  C 51.65752063519746 62.88877883974262  29.922810251748512 39.989885341274764  2.9066609590216532 38.4538892783505  C 1.2752622424760647 38.36113282487923  1.1490338745121302E-05 37.015466875518705  0 35.38673195876287  Z " fill-rule="nonzero" fill="rgba(255, 77, 79, 1)" stroke="none" transform="matrix(1 0 0 1 831 787 )" class="fill" />
    <path d="M 0 35.38673195876287  C 0 35.38673195876287  0 3.3421468041237152  0 3.3421468041237152  C 0 1.6454096798043854  1.3799442642182889 0.2699545813464165  3.082191780817758 0.2699545813464165  C 3.11891975843439 0.2699545813464165  3.1556448022616395 0.27060893193934765  3.192349315185648 0.2719173195876271  C 51.2503801815971 1.9849965120193467  89.93838052686776 41.9284988009919  89.93838052686776 89.86081180110817  C 89.93838052686776 111.04357158015873  82.36107533364935 131.53229751096003  68.56745547948094 147.64692639175257  C 67.98185952184255 148.33105226231586  67.12493559730773 148.72508060159694  66.22271007756576 148.72508060159694  C 65.45141877625673 148.72508060159694  64.70815702960259 148.43684325720952  64.13967123291164 147.9172769072165  C 64.13967123291164 147.9172769072165  39.82737328773896 126.26066453608249  39.82737328773896 126.26066453608249  C 38.62295910550195 125.15991803678456  38.489720045206944 123.31357899614406  39.52368493157497 122.05235154639175  C 46.97222189096725 112.96669011661763  51.65752063519746 101.59407901998391  51.65752063519746 89.86081180661512  C 51.65752063519746 62.88877883974262  29.922810251748512 39.989885341274764  2.9066609590216532 38.4538892783505  C 1.2752622424760647 38.36113282487923  1.1490338745121302E-05 37.015466875518705  0 35.38673195876287  Z " stroke-width="4" stroke-dasharray="0" stroke="rgba(255, 255, 255, 1)" fill="none" transform="matrix(1 0 0 1 831 787 )" class="stroke" mask="url(#Clip1209)" />
  </g>
</svg>