<?xml version="1.0" encoding="utf-8"?>
<svg version="1.1" xmlns:xlink="http://www.w3.org/1999/xlink" width="128px" height="54px" xmlns="http://www.w3.org/2000/svg">
  <defs>
    <pattern id="BGPattern" patternUnits="userSpaceOnUse" alignment="0 0" imageRepeat="None" />
    <mask fill="white" id="Clip1210">
      <path d="M 103.08401349397592 0.9099762711864475  C 103.08401349397592 0.9099762711864475  126.79636819277107 22.41631525423724  126.79636819277107 22.41631525423724  C 127.43349424230071 22.994164143207634  127.79623289000631 23.80995177551572  127.79623289000631 24.66497902123678  C 127.79623289000631 25.466120427811838  127.47764845223307 26.84528279551434  126.90928578313253 27.41604406779664  C 92.76102378725096 61.708408667674234  36.53672287431379 62.67963291958546  1.1858043373493932 29.6011220338983  C 0.5699837783812293 29.024884122296562  0.22108164013052922 28.223339611152742  0.22108164013052922 27.384832427280827  C 0.22108164013052922 26.567238666112825  0.5528477369082256 25.17368721125182  1.1419759036144537 24.60020338983051  C 1.1419759036144537 24.60020338983051  24.071957590361443 2.279196610169481  24.071957590361425 2.279196610169446  C 25.237434204512855 1.1446964897891505  27.095463387600056 1.1070442021136535  28.306937831325307 2.1933762711864335  C 48.28636143315809 20.108981673198386  79.52103426720903 19.574220369689954  98.8485706024096 0.9720915254236819  C 100.02052381626034 -0.1558916318862029  101.87876743183787 -0.18314386443224112  103.08401349397592 0.9099762711864475  Z " fill-rule="evenodd" />
    </mask>
  </defs>
  <g transform="matrix(1 0 0 1 -769 -911 )">
    <path d="M 103.08401349397592 0.9099762711864475  C 103.08401349397592 0.9099762711864475  126.79636819277107 22.41631525423724  126.79636819277107 22.41631525423724  C 127.43349424230071 22.994164143207634  127.79623289000631 23.80995177551572  127.79623289000631 24.66497902123678  C 127.79623289000631 25.466120427811838  127.47764845223307 26.84528279551434  126.90928578313253 27.41604406779664  C 92.76102378725096 61.708408667674234  36.53672287431379 62.67963291958546  1.1858043373493932 29.6011220338983  C 0.5699837783812293 29.024884122296562  0.22108164013052922 28.223339611152742  0.22108164013052922 27.384832427280827  C 0.22108164013052922 26.567238666112825  0.5528477369082256 25.17368721125182  1.1419759036144537 24.60020338983051  C 1.1419759036144537 24.60020338983051  24.071957590361443 2.279196610169481  24.071957590361425 2.279196610169446  C 25.237434204512855 1.1446964897891505  27.095463387600056 1.1070442021136535  28.306937831325307 2.1933762711864335  C 48.28636143315809 20.108981673198386  79.52103426720903 19.574220369689954  98.8485706024096 0.9720915254236819  C 100.02052381626034 -0.1558916318862029  101.87876743183787 -0.18314386443224112  103.08401349397592 0.9099762711864475  Z " fill-rule="nonzero" fill="rgba(255, 125, 0, 1)" stroke="none" transform="matrix(1 0 0 1 769 911 )" class="fill" />
    <path d="M 103.08401349397592 0.9099762711864475  C 103.08401349397592 0.9099762711864475  126.79636819277107 22.41631525423724  126.79636819277107 22.41631525423724  C 127.43349424230071 22.994164143207634  127.79623289000631 23.80995177551572  127.79623289000631 24.66497902123678  C 127.79623289000631 25.466120427811838  127.47764845223307 26.84528279551434  126.90928578313253 27.41604406779664  C 92.76102378725096 61.708408667674234  36.53672287431379 62.67963291958546  1.1858043373493932 29.6011220338983  C 0.5699837783812293 29.024884122296562  0.22108164013052922 28.223339611152742  0.22108164013052922 27.384832427280827  C 0.22108164013052922 26.567238666112825  0.5528477369082256 25.17368721125182  1.1419759036144537 24.60020338983051  C 1.1419759036144537 24.60020338983051  24.071957590361443 2.279196610169481  24.071957590361425 2.279196610169446  C 25.237434204512855 1.1446964897891505  27.095463387600056 1.1070442021136535  28.306937831325307 2.1933762711864335  C 48.28636143315809 20.108981673198386  79.52103426720903 19.574220369689954  98.8485706024096 0.9720915254236819  C 100.02052381626034 -0.1558916318862029  101.87876743183787 -0.18314386443224112  103.08401349397592 0.9099762711864475  Z " stroke-width="4" stroke-dasharray="0" stroke="rgba(255, 255, 255, 1)" fill="none" transform="matrix(1 0 0 1 769 911 )" class="stroke" mask="url(#Clip1210)" />
  </g>
</svg>