<?xml version="1.0" encoding="utf-8"?>
<svg version="1.1" xmlns:xlink="http://www.w3.org/1999/xlink" width="53px" height="104px" xmlns="http://www.w3.org/2000/svg">
  <defs>
    <pattern id="BGPattern" patternUnits="userSpaceOnUse" alignment="0 0" imageRepeat="None" />
    <mask fill="white" id="Clip101">
      <path d="M 51.77442923976606 80.45252307692303  C 51.77442923976606 80.45252307692303  28.732353801169577 102.9643076923077  28.732353801169577 102.9643076923077  C 28.15259035077813 103.5307307991076  26.7518804852195 103.84818730693189  25.938450395787513 103.84818730693189  C 25.069334559369768 103.84818730693189  24.240150145133363 103.48592442037649  23.65306315789475 102.84972307692313  C -1.5613763951134882 75.52639632935157  -7.125914625172973 34.954229963934445  9.67513450292397 1.8642769230769038  C 10.201920680557276 0.8267608150261263  11.272475771535285 0.17229784033933218  12.442833961735799 0.17229784033933218  C 12.964874844946662 0.17229784033933218  13.478458383689347 0.3032010368521102  13.935931578947367 0.5528615384615442  C 13.935931578947367 0.5528615384615442  42.88611228070175 16.01375384615384  42.88611228070174 16.013753846153822  C 44.32607308420933 16.799597253344473  44.89800181587103 18.564490197064323  44.18969532163742 20.036430769230773  C 35.33807180069731 38.43140139685992  38.382685517586935 60.90888671681873  51.92970994152046 76.22963076923074  C 53.01372382288408 77.45557457803328  52.94559672587817 79.30830573291101  51.77442923976606 80.45252307692303  Z " fill-rule="evenodd" />
    </mask>
  </defs>
  <g transform="matrix(1 0 0 1 -742 -834 )">
    <path d="M 51.77442923976606 80.45252307692303  C 51.77442923976606 80.45252307692303  28.732353801169577 102.9643076923077  28.732353801169577 102.9643076923077  C 28.15259035077813 103.5307307991076  26.7518804852195 103.84818730693189  25.938450395787513 103.84818730693189  C 25.069334559369768 103.84818730693189  24.240150145133363 103.48592442037649  23.65306315789475 102.84972307692313  C -1.5613763951134882 75.52639632935157  -7.125914625172973 34.954229963934445  9.67513450292397 1.8642769230769038  C 10.201920680557276 0.8267608150261263  11.272475771535285 0.17229784033933218  12.442833961735799 0.17229784033933218  C 12.964874844946662 0.17229784033933218  13.478458383689347 0.3032010368521102  13.935931578947367 0.5528615384615442  C 13.935931578947367 0.5528615384615442  42.88611228070175 16.01375384615384  42.88611228070174 16.013753846153822  C 44.32607308420933 16.799597253344473  44.89800181587103 18.564490197064323  44.18969532163742 20.036430769230773  C 35.33807180069731 38.43140139685992  38.382685517586935 60.90888671681873  51.92970994152046 76.22963076923074  C 53.01372382288408 77.45557457803328  52.94559672587817 79.30830573291101  51.77442923976606 80.45252307692303  Z " fill-rule="nonzero" fill="rgba(255, 204, 0, 1)" stroke="none" transform="matrix(1 0 0 1 742 834 )" class="fill" />
    <path d="M 51.77442923976606 80.45252307692303  C 51.77442923976606 80.45252307692303  28.732353801169577 102.9643076923077  28.732353801169577 102.9643076923077  C 28.15259035077813 103.5307307991076  26.7518804852195 103.84818730693189  25.938450395787513 103.84818730693189  C 25.069334559369768 103.84818730693189  24.240150145133363 103.48592442037649  23.65306315789475 102.84972307692313  C -1.5613763951134882 75.52639632935157  -7.125914625172973 34.954229963934445  9.67513450292397 1.8642769230769038  C 10.201920680557276 0.8267608150261263  11.272475771535285 0.17229784033933218  12.442833961735799 0.17229784033933218  C 12.964874844946662 0.17229784033933218  13.478458383689347 0.3032010368521102  13.935931578947367 0.5528615384615442  C 13.935931578947367 0.5528615384615442  42.88611228070175 16.01375384615384  42.88611228070174 16.013753846153822  C 44.32607308420933 16.799597253344473  44.89800181587103 18.564490197064323  44.18969532163742 20.036430769230773  C 35.33807180069731 38.43140139685992  38.382685517586935 60.90888671681873  51.92970994152046 76.22963076923074  C 53.01372382288408 77.45557457803328  52.94559672587817 79.30830573291101  51.77442923976606 80.45252307692303  Z " stroke-width="4" stroke-dasharray="0" stroke="rgba(255, 255, 255, 1)" fill="none" transform="matrix(1 0 0 1 742 834 )" class="stroke" mask="url(#Clip101)" />
  </g>
</svg>