<?xml version="1.0" encoding="utf-8"?>
<svg version="1.1" xmlns:xlink="http://www.w3.org/1999/xlink" width="78px" height="64px" xmlns="http://www.w3.org/2000/svg">
  <defs>
    <pattern id="BGPattern" patternUnits="userSpaceOnUse" alignment="0 0" imageRepeat="None" />
    <mask fill="white" id="Clip102">
      <path d="M 30.01871620548683 63.40409904761902  C 30.01871620548683 63.40409904761902  1.8384260869536488 48.09045333333332  1.8384260869536488 48.09045333333332  C 0.8529372263354135 47.55492462539187  0.24060634375308435 46.531441087771356  0.24060634375308435 45.419769476340434  C 0.24060634375308435 44.869521768693104  0.3913085575180392 44.32953884145768  0.6767193675878767 43.857127619047624  C 16.219344616089614 18.131288483556098  44.513644302004394 1.3406766483713606  74.80680948604949 0.2697447619047515  C 74.84352367078193 0.2684468279768962  74.88025839182751 0.26779770549673276  74.91699604743563 0.26779770549673276  C 76.61969211410499 0.26779770549673276  78 1.6322632298219277  78 3.3154167531157803  C 77.99999999987853 3.3154438095238135  77.99999999987853 35.713523809523814  77.99999999987853 35.71352380952379  C 77.9999885066335 37.329245503870276  76.72440172004265 38.66415988763986  75.09257312241269 38.75617523809523  C 58.5653634505431 39.68807267221464  42.90448512197318 48.483341489379725  34.116645059235374 62.351268571428555  C 33.24896241017106 63.720546512387955  31.451052799025902 64.18246132340715  30.01871620548683 63.40409904761902  Z " fill-rule="evenodd" />
    </mask>
  </defs>
  <g transform="matrix(1 0 0 1 -753 -787 )">
    <path d="M 30.01871620548683 63.40409904761902  C 30.01871620548683 63.40409904761902  1.8384260869536488 48.09045333333332  1.8384260869536488 48.09045333333332  C 0.8529372263354135 47.55492462539187  0.24060634375308435 46.531441087771356  0.24060634375308435 45.419769476340434  C 0.24060634375308435 44.869521768693104  0.3913085575180392 44.32953884145768  0.6767193675878767 43.857127619047624  C 16.219344616089614 18.131288483556098  44.513644302004394 1.3406766483713606  74.80680948604949 0.2697447619047515  C 74.84352367078193 0.2684468279768962  74.88025839182751 0.26779770549673276  74.91699604743563 0.26779770549673276  C 76.61969211410499 0.26779770549673276  78 1.6322632298219277  78 3.3154167531157803  C 77.99999999987853 3.3154438095238135  77.99999999987853 35.713523809523814  77.99999999987853 35.71352380952379  C 77.9999885066335 37.329245503870276  76.72440172004265 38.66415988763986  75.09257312241269 38.75617523809523  C 58.5653634505431 39.68807267221464  42.90448512197318 48.483341489379725  34.116645059235374 62.351268571428555  C 33.24896241017106 63.720546512387955  31.451052799025902 64.18246132340715  30.01871620548683 63.40409904761902  Z " fill-rule="nonzero" fill="rgba(64, 169, 255, 1)" stroke="none" transform="matrix(1 0 0 1 753 787 )" class="fill" />
    <path d="M 30.01871620548683 63.40409904761902  C 30.01871620548683 63.40409904761902  1.8384260869536488 48.09045333333332  1.8384260869536488 48.09045333333332  C 0.8529372263354135 47.55492462539187  0.24060634375308435 46.531441087771356  0.24060634375308435 45.419769476340434  C 0.24060634375308435 44.869521768693104  0.3913085575180392 44.32953884145768  0.6767193675878767 43.857127619047624  C 16.219344616089614 18.131288483556098  44.513644302004394 1.3406766483713606  74.80680948604949 0.2697447619047515  C 74.84352367078193 0.2684468279768962  74.88025839182751 0.26779770549673276  74.91699604743563 0.26779770549673276  C 76.61969211410499 0.26779770549673276  78 1.6322632298219277  78 3.3154167531157803  C 77.99999999987853 3.3154438095238135  77.99999999987853 35.713523809523814  77.99999999987853 35.71352380952379  C 77.9999885066335 37.329245503870276  76.72440172004265 38.66415988763986  75.09257312241269 38.75617523809523  C 58.5653634505431 39.68807267221464  42.90448512197318 48.483341489379725  34.116645059235374 62.351268571428555  C 33.24896241017106 63.720546512387955  31.451052799025902 64.18246132340715  30.01871620548683 63.40409904761902  Z " stroke-width="4" stroke-dasharray="0" stroke="rgba(255, 255, 255, 1)" fill="none" transform="matrix(1 0 0 1 753 787 )" class="stroke" mask="url(#Clip102)" />
  </g>
</svg>