<?xml version="1.0" encoding="utf-8"?>
<svg version="1.1" xmlns:xlink="http://www.w3.org/1999/xlink" width="27px" height="17px" xmlns="http://www.w3.org/2000/svg">
  <defs>
    <pattern id="BGPattern" patternUnits="userSpaceOnUse" alignment="0 0" imageRepeat="None" />
    <mask fill="white" id="Clip1216">
      <path d="M 0 4.350000000000001  C 0 2.4170033755922233  1.5670033755922077 0.8500000000000014  3.5 0.8500000000000014  C 3.5 0.8500000000000014  23.5 0.8500000000000014  23.5 0.8500000000000014  C 25.432996624407792 0.8500000000000014  27 2.4170033755922233  27 4.350000000000001  C 27 4.350000000000001  27 13.350000000000001  27 13.350000000000001  C 27 15.28299662440778  25.432996624407792 16.85  23.5 16.85  C 23.5 16.85  3.5 16.85  3.5 16.85  C 1.5670033755922077 16.85  0 15.28299662440778  0 13.350000000000001  C 0 13.350000000000001  0 4.350000000000001  0 4.350000000000001  Z " fill-rule="evenodd" />
    </mask>
  </defs>
  <g transform="matrix(1 0 0 1 -505 -942 )">
    <path d="M 0 4.350000000000001  C 0 2.4170033755922233  1.5670033755922077 0.8500000000000014  3.5 0.8500000000000014  C 3.5 0.8500000000000014  23.5 0.8500000000000014  23.5 0.8500000000000014  C 25.432996624407792 0.8500000000000014  27 2.4170033755922233  27 4.350000000000001  C 27 4.350000000000001  27 13.350000000000001  27 13.350000000000001  C 27 15.28299662440778  25.432996624407792 16.85  23.5 16.85  C 23.5 16.85  3.5 16.85  3.5 16.85  C 1.5670033755922077 16.85  0 15.28299662440778  0 13.350000000000001  C 0 13.350000000000001  0 4.350000000000001  0 4.350000000000001  Z " fill-rule="nonzero" fill="rgba(64, 169, 255, 1)" stroke="none" transform="matrix(1 0 0 1 505 942 )" class="fill" />
    <path d="M 0 4.350000000000001  C 0 2.4170033755922233  1.5670033755922077 0.8500000000000014  3.5 0.8500000000000014  C 3.5 0.8500000000000014  23.5 0.8500000000000014  23.5 0.8500000000000014  C 25.432996624407792 0.8500000000000014  27 2.4170033755922233  27 4.350000000000001  C 27 4.350000000000001  27 13.350000000000001  27 13.350000000000001  C 27 15.28299662440778  25.432996624407792 16.85  23.5 16.85  C 23.5 16.85  3.5 16.85  3.5 16.85  C 1.5670033755922077 16.85  0 15.28299662440778  0 13.350000000000001  C 0 13.350000000000001  0 4.350000000000001  0 4.350000000000001  Z " stroke-width="4" stroke-dasharray="0" stroke="rgba(255, 255, 255, 1)" fill="none" transform="matrix(1 0 0 1 505 942 )" class="stroke" mask="url(#Clip1216)" />
  </g>
</svg>