<?xml version="1.0" encoding="utf-8"?>
<svg version="1.1" xmlns:xlink="http://www.w3.org/1999/xlink" width="24px" height="45px" xmlns="http://www.w3.org/2000/svg">
  <defs>
    <pattern id="BGPattern" patternUnits="userSpaceOnUse" alignment="0 0" imageRepeat="None" />
    <mask fill="white" id="Clip107">
      <path d="M 23.784 32.979661016949144  C 23.784 26.926779661016948  19.343999999999994 21.92338983050847  13.607999999999999 21.117966101694915  L 13.607999999999999 12.844067796610169  L 16.752 12.844067796610169  C 17.640073877727914 12.844067796610169  18.36 12.111939536672457  18.36 11.208813559322033  C 18.36 10.305687581971611  17.640073877727914 9.573559322033898  16.752 9.573559322033898  L 13.607999999999999 9.573559322033898  L 13.607999999999999 7.132881355932203  L 16.752 7.132881355932202  C 17.640073843841844 7.132881355932202  18.359999966113932 6.40075309599449  18.359999966113932 5.497627118644067  C 18.359999966113932 4.594501141293645  17.640073843841844 3.8623728813559306  16.75199996611393 3.8623728813559306  L 13.607999999999999 3.862372881355932  L 13.607999999999999 1.934237288135593  C 13.607999999999999 1.0311113107851706  12.888073877727917 0.29898305084745724  12 0.29898305084745724  C 11.111926122272083 0.29898305084745724  10.392 1.0311113107851706  10.392 1.934237288135593  L 10.392 21.117966101694915  C 4.655999999999999 21.923389830508476  0.21599999999999753 26.92677966101695  0.21599999999999753 32.97966101694915  C 0.21599999999999753 39.59389830508475  5.495999999999997 44.96338983050847  11.999999999999996 44.96338983050847  C 18.503999999999998 44.96338983050847  23.784 39.59389830508475  23.784 32.979661016949144  Z M 20.567999999999998 32.97966101694915  C 20.592 37.787796610169494  16.728 41.6928813559322  12 41.6928813559322  C 7.2719999999999985 41.6928813559322  3.4320000000000004 37.787796610169494  3.4320000000000004 32.97966101694915  C 3.4320000000000004 28.171525423728813  7.272000000000001 24.266440677966102  12 24.266440677966102  C 16.728 24.266440677966102  20.567999999999998 28.171525423728813  20.567999999999998 32.97966101694915  Z " fill-rule="evenodd" />
    </mask>
  </defs>
  <g transform="matrix(1 0 0 1 -225 -312 )">
    <path d="M 23.784 32.979661016949144  C 23.784 26.926779661016948  19.343999999999994 21.92338983050847  13.607999999999999 21.117966101694915  L 13.607999999999999 12.844067796610169  L 16.752 12.844067796610169  C 17.640073877727914 12.844067796610169  18.36 12.111939536672457  18.36 11.208813559322033  C 18.36 10.305687581971611  17.640073877727914 9.573559322033898  16.752 9.573559322033898  L 13.607999999999999 9.573559322033898  L 13.607999999999999 7.132881355932203  L 16.752 7.132881355932202  C 17.640073843841844 7.132881355932202  18.359999966113932 6.40075309599449  18.359999966113932 5.497627118644067  C 18.359999966113932 4.594501141293645  17.640073843841844 3.8623728813559306  16.75199996611393 3.8623728813559306  L 13.607999999999999 3.862372881355932  L 13.607999999999999 1.934237288135593  C 13.607999999999999 1.0311113107851706  12.888073877727917 0.29898305084745724  12 0.29898305084745724  C 11.111926122272083 0.29898305084745724  10.392 1.0311113107851706  10.392 1.934237288135593  L 10.392 21.117966101694915  C 4.655999999999999 21.923389830508476  0.21599999999999753 26.92677966101695  0.21599999999999753 32.97966101694915  C 0.21599999999999753 39.59389830508475  5.495999999999997 44.96338983050847  11.999999999999996 44.96338983050847  C 18.503999999999998 44.96338983050847  23.784 39.59389830508475  23.784 32.979661016949144  Z M 20.567999999999998 32.97966101694915  C 20.592 37.787796610169494  16.728 41.6928813559322  12 41.6928813559322  C 7.2719999999999985 41.6928813559322  3.4320000000000004 37.787796610169494  3.4320000000000004 32.97966101694915  C 3.4320000000000004 28.171525423728813  7.272000000000001 24.266440677966102  12 24.266440677966102  C 16.728 24.266440677966102  20.567999999999998 28.171525423728813  20.567999999999998 32.97966101694915  Z " fill-rule="nonzero" fill="rgba(0, 168, 112, 1)" stroke="none" transform="matrix(1 0 0 1 225 312 )" class="fill" />
    <path d="M 23.784 32.979661016949144  C 23.784 26.926779661016948  19.343999999999994 21.92338983050847  13.607999999999999 21.117966101694915  L 13.607999999999999 12.844067796610169  L 16.752 12.844067796610169  C 17.640073877727914 12.844067796610169  18.36 12.111939536672457  18.36 11.208813559322033  C 18.36 10.305687581971611  17.640073877727914 9.573559322033898  16.752 9.573559322033898  L 13.607999999999999 9.573559322033898  L 13.607999999999999 7.132881355932203  L 16.752 7.132881355932202  C 17.640073843841844 7.132881355932202  18.359999966113932 6.40075309599449  18.359999966113932 5.497627118644067  C 18.359999966113932 4.594501141293645  17.640073843841844 3.8623728813559306  16.75199996611393 3.8623728813559306  L 13.607999999999999 3.862372881355932  L 13.607999999999999 1.934237288135593  C 13.607999999999999 1.0311113107851706  12.888073877727917 0.29898305084745724  12 0.29898305084745724  C 11.111926122272083 0.29898305084745724  10.392 1.0311113107851706  10.392 1.934237288135593  L 10.392 21.117966101694915  C 4.655999999999999 21.923389830508476  0.21599999999999753 26.92677966101695  0.21599999999999753 32.97966101694915  C 0.21599999999999753 39.59389830508475  5.495999999999997 44.96338983050847  11.999999999999996 44.96338983050847  C 18.503999999999998 44.96338983050847  23.784 39.59389830508475  23.784 32.979661016949144  Z " stroke-width="0" stroke-dasharray="0" stroke="rgba(255, 255, 255, 0)" fill="none" transform="matrix(1 0 0 1 225 312 )" class="stroke" mask="url(#Clip107)" />
    <path d="M 20.567999999999998 32.97966101694915  C 20.592 37.787796610169494  16.728 41.6928813559322  12 41.6928813559322  C 7.2719999999999985 41.6928813559322  3.4320000000000004 37.787796610169494  3.4320000000000004 32.97966101694915  C 3.4320000000000004 28.171525423728813  7.272000000000001 24.266440677966102  12 24.266440677966102  C 16.728 24.266440677966102  20.567999999999998 28.171525423728813  20.567999999999998 32.97966101694915  Z " stroke-width="0" stroke-dasharray="0" stroke="rgba(255, 255, 255, 0)" fill="none" transform="matrix(1 0 0 1 225 312 )" class="stroke" mask="url(#Clip107)" />
  </g>
</svg>