<?xml version="1.0" encoding="utf-8"?>
<svg version="1.1" xmlns:xlink="http://www.w3.org/1999/xlink" width="13px" height="14px" xmlns="http://www.w3.org/2000/svg">
  <defs>
    <pattern id="BGPattern" patternUnits="userSpaceOnUse" alignment="0 0" imageRepeat="None" />
    <mask fill="white" id="Clip8">
      <path d="M 5.972972972972974 1.4482758620689655  C 5.972972972972974 1.7148960861252105  6.182713450529718 1.9310344827586206  6.441441441441441 1.9310344827586206  C 6.700169432353165 1.9310344827586206  6.90990990990991 1.7148960861252105  6.90990990990991 1.4482758620689655  L 6.90990990990991 0.48275862068965514  C 6.90990990990991 0.21613839663341006  6.700169432353165 0  6.441441441441441 0  C 6.182713450529718 0  5.972972972972974 0.21613839663341006  5.972972972972974 0.48275862068965514  L 5.972972972972974 1.4482758620689655  Z M 0.21409009009009045 2.954965517241379  L 0.8765045045045048 3.638068965517241  C 0.9638453434771246 3.7249987824688917  1.0805283111172077 3.773585004131574  1.2019550747943457 3.773585004131574  C 1.4606830657060688 3.773585004131574  1.6704235432628143 3.5574466074981643  1.6704235432628143 3.2908263834419187  C 1.6704235432628143 3.1656956203422686  1.623275523785772 3.045453357933323  1.538918918918919 2.955448275862069  L 0.8765045045045048 2.2723448275862066  C 0.7891636655318841 2.1854150106345553  0.6724806978918018 2.1368287889718744  0.5510539342146634 2.1368287889718744  C 0.29232594330294026 2.1368287889718744  0.08258546574619496 2.3529671856052845  0.08258546574619496 2.6195874096615297  C 0.08258546574619496 2.74471817276118  0.1297334852232373 2.8649604351701243  0.21409009009009045 2.954965517241379  Z M 12.782630630630631 3.437724137931035  C 12.96551225939918 3.2492069682482283  12.96551225939918 2.9436206179586692  12.782630630630631 2.755103448275862  C 12.599693763267908 2.5666432021841348  12.30315308357894 2.5666432021841348  12.120216216216216 2.755103448275862  L 11.4578018018018 3.437724137931035  C 11.37344519693494 3.5277292200022905  11.326297177457892 3.6479714824112413  11.326297177457892 3.773102245510897  C 11.326297177457892 4.039722469567143  11.536037655014638 4.255860866200552  11.794765645926361 4.255860866200552  C 11.916192409603507 4.255860866200552  12.032875377243595 4.207274644537866  12.120216216216216 4.120344827586207  L 12.782630630630631 3.437724137931035  Z M 12.297297297297296 13.034482758620689  L 11.594594594594595 13.034482758620689  L 11.594594594594595 7.724137931034482  C 11.594594594594595 4.791379310344828  9.287387387387387 2.413793103448276  6.441441441441441 2.413793103448276  C 3.5954954954954954 2.413793103448276  1.2882882882882882 4.791379310344828  1.2882882882882882 7.724137931034482  L 1.2882882882882882 13.034482758620689  L 0.5855855855855856 13.034482758620689  C 0.32685759467386266 13.034482758620689  0.11711711711711711 13.2506211552541  0.11711711711711711 13.517241379310345  C 0.11711711711711711 13.78386160336659  0.32685759467386266 14  0.5855855855855856 14  L 12.297297297297296 14  C 12.55602528820902 14  12.765765765765765 13.78386160336659  12.765765765765765 13.517241379310345  C 12.765765765765765 13.2506211552541  12.55602528820902 13.034482758620689  12.297297297297296 13.034482758620689  Z M 10.657657657657657 13.034482758620689  L 6.90990990990991 13.034482758620689  L 6.90990990990991 11.10344827586207  C 6.90990990990991 10.836828051805824  6.700169432353165 10.620689655172413  6.441441441441441 10.620689655172413  C 6.182713450529718 10.620689655172413  5.972972972972974 10.836828051805824  5.972972972972974 11.10344827586207  L 5.972972972972974 13.034482758620689  L 2.225225225225225 13.034482758620689  L 2.225225225225225 7.724137931034482  C 2.225225225225225 5.324344827586207  4.112684684684685 3.3793103448275863  6.441441441441441 3.3793103448275863  C 8.770198198198198 3.3793103448275863  10.657657657657657 5.324344827586207  10.657657657657657 7.724137931034482  L 10.657657657657657 13.034482758620689  Z M 6.441441441441441 6.275862068965518  C 5.40652947779455 6.275862068965518  4.5675675675675675 7.140415655499158  4.5675675675675675 8.206896551724137  C 4.5675675675675675 9.273377447949118  5.40652947779455 10.137931034482758  6.441441441441441 10.137931034482758  C 7.476353405088333 10.137931034482758  8.315315315315315 9.273377447949118  8.315315315315315 8.206896551724137  C 8.315315315315315 7.140415655499158  7.476353405088333 6.275862068965518  6.441441441441441 6.275862068965518  Z M 6.441441441441441 9.172413793103448  C 5.92394756741172 9.17228050655104  5.504504475232544 8.739934685252267  5.504504475232544 8.206655172413793  C 5.504504475232544 7.673281397529674  5.924090313690317 7.240896521559264  6.441675675675676 7.240896521559264  C 6.959403783939632 7.241029838276544  7.378846876118809 7.673375659575315  7.378846876118809 8.206655172413793  C 7.378846876118809 8.74002894729791  6.959261037661037 9.17241382326832  6.441675675675676 9.17241382326832  Z " fill-rule="evenodd" />
    </mask>
  </defs>
  <g transform="matrix(1 0 0 1 -45 -224 )">
    <path d="M 5.972972972972974 1.4482758620689655  C 5.972972972972974 1.7148960861252105  6.182713450529718 1.9310344827586206  6.441441441441441 1.9310344827586206  C 6.700169432353165 1.9310344827586206  6.90990990990991 1.7148960861252105  6.90990990990991 1.4482758620689655  L 6.90990990990991 0.48275862068965514  C 6.90990990990991 0.21613839663341006  6.700169432353165 0  6.441441441441441 0  C 6.182713450529718 0  5.972972972972974 0.21613839663341006  5.972972972972974 0.48275862068965514  L 5.972972972972974 1.4482758620689655  Z M 0.21409009009009045 2.954965517241379  L 0.8765045045045048 3.638068965517241  C 0.9638453434771246 3.7249987824688917  1.0805283111172077 3.773585004131574  1.2019550747943457 3.773585004131574  C 1.4606830657060688 3.773585004131574  1.6704235432628143 3.5574466074981643  1.6704235432628143 3.2908263834419187  C 1.6704235432628143 3.1656956203422686  1.623275523785772 3.045453357933323  1.538918918918919 2.955448275862069  L 0.8765045045045048 2.2723448275862066  C 0.7891636655318841 2.1854150106345553  0.6724806978918018 2.1368287889718744  0.5510539342146634 2.1368287889718744  C 0.29232594330294026 2.1368287889718744  0.08258546574619496 2.3529671856052845  0.08258546574619496 2.6195874096615297  C 0.08258546574619496 2.74471817276118  0.1297334852232373 2.8649604351701243  0.21409009009009045 2.954965517241379  Z M 12.782630630630631 3.437724137931035  C 12.96551225939918 3.2492069682482283  12.96551225939918 2.9436206179586692  12.782630630630631 2.755103448275862  C 12.599693763267908 2.5666432021841348  12.30315308357894 2.5666432021841348  12.120216216216216 2.755103448275862  L 11.4578018018018 3.437724137931035  C 11.37344519693494 3.5277292200022905  11.326297177457892 3.6479714824112413  11.326297177457892 3.773102245510897  C 11.326297177457892 4.039722469567143  11.536037655014638 4.255860866200552  11.794765645926361 4.255860866200552  C 11.916192409603507 4.255860866200552  12.032875377243595 4.207274644537866  12.120216216216216 4.120344827586207  L 12.782630630630631 3.437724137931035  Z M 12.297297297297296 13.034482758620689  L 11.594594594594595 13.034482758620689  L 11.594594594594595 7.724137931034482  C 11.594594594594595 4.791379310344828  9.287387387387387 2.413793103448276  6.441441441441441 2.413793103448276  C 3.5954954954954954 2.413793103448276  1.2882882882882882 4.791379310344828  1.2882882882882882 7.724137931034482  L 1.2882882882882882 13.034482758620689  L 0.5855855855855856 13.034482758620689  C 0.32685759467386266 13.034482758620689  0.11711711711711711 13.2506211552541  0.11711711711711711 13.517241379310345  C 0.11711711711711711 13.78386160336659  0.32685759467386266 14  0.5855855855855856 14  L 12.297297297297296 14  C 12.55602528820902 14  12.765765765765765 13.78386160336659  12.765765765765765 13.517241379310345  C 12.765765765765765 13.2506211552541  12.55602528820902 13.034482758620689  12.297297297297296 13.034482758620689  Z M 10.657657657657657 13.034482758620689  L 6.90990990990991 13.034482758620689  L 6.90990990990991 11.10344827586207  C 6.90990990990991 10.836828051805824  6.700169432353165 10.620689655172413  6.441441441441441 10.620689655172413  C 6.182713450529718 10.620689655172413  5.972972972972974 10.836828051805824  5.972972972972974 11.10344827586207  L 5.972972972972974 13.034482758620689  L 2.225225225225225 13.034482758620689  L 2.225225225225225 7.724137931034482  C 2.225225225225225 5.324344827586207  4.112684684684685 3.3793103448275863  6.441441441441441 3.3793103448275863  C 8.770198198198198 3.3793103448275863  10.657657657657657 5.324344827586207  10.657657657657657 7.724137931034482  L 10.657657657657657 13.034482758620689  Z M 6.441441441441441 6.275862068965518  C 5.40652947779455 6.275862068965518  4.5675675675675675 7.140415655499158  4.5675675675675675 8.206896551724137  C 4.5675675675675675 9.273377447949118  5.40652947779455 10.137931034482758  6.441441441441441 10.137931034482758  C 7.476353405088333 10.137931034482758  8.315315315315315 9.273377447949118  8.315315315315315 8.206896551724137  C 8.315315315315315 7.140415655499158  7.476353405088333 6.275862068965518  6.441441441441441 6.275862068965518  Z M 6.441441441441441 9.172413793103448  C 5.92394756741172 9.17228050655104  5.504504475232544 8.739934685252267  5.504504475232544 8.206655172413793  C 5.504504475232544 7.673281397529674  5.924090313690317 7.240896521559264  6.441675675675676 7.240896521559264  C 6.959403783939632 7.241029838276544  7.378846876118809 7.673375659575315  7.378846876118809 8.206655172413793  C 7.378846876118809 8.74002894729791  6.959261037661037 9.17241382326832  6.441675675675676 9.17241382326832  Z " fill-rule="nonzero" fill="rgba(0, 0, 0, 1)" stroke="none" transform="matrix(1 0 0 1 45 224 )" class="fill" />
    <path d="M 5.972972972972974 1.4482758620689655  C 5.972972972972974 1.7148960861252105  6.182713450529718 1.9310344827586206  6.441441441441441 1.9310344827586206  C 6.700169432353165 1.9310344827586206  6.90990990990991 1.7148960861252105  6.90990990990991 1.4482758620689655  L 6.90990990990991 0.48275862068965514  C 6.90990990990991 0.21613839663341006  6.700169432353165 0  6.441441441441441 0  C 6.182713450529718 0  5.972972972972974 0.21613839663341006  5.972972972972974 0.48275862068965514  L 5.972972972972974 1.4482758620689655  Z " stroke-width="0" stroke-dasharray="0" stroke="rgba(255, 255, 255, 0)" fill="none" transform="matrix(1 0 0 1 45 224 )" class="stroke" mask="url(#Clip8)" />
    <path d="M 0.21409009009009045 2.954965517241379  L 0.8765045045045048 3.638068965517241  C 0.9638453434771246 3.7249987824688917  1.0805283111172077 3.773585004131574  1.2019550747943457 3.773585004131574  C 1.4606830657060688 3.773585004131574  1.6704235432628143 3.5574466074981643  1.6704235432628143 3.2908263834419187  C 1.6704235432628143 3.1656956203422686  1.623275523785772 3.045453357933323  1.538918918918919 2.955448275862069  L 0.8765045045045048 2.2723448275862066  C 0.7891636655318841 2.1854150106345553  0.6724806978918018 2.1368287889718744  0.5510539342146634 2.1368287889718744  C 0.29232594330294026 2.1368287889718744  0.08258546574619496 2.3529671856052845  0.08258546574619496 2.6195874096615297  C 0.08258546574619496 2.74471817276118  0.1297334852232373 2.8649604351701243  0.21409009009009045 2.954965517241379  Z " stroke-width="0" stroke-dasharray="0" stroke="rgba(255, 255, 255, 0)" fill="none" transform="matrix(1 0 0 1 45 224 )" class="stroke" mask="url(#Clip8)" />
    <path d="M 12.782630630630631 3.437724137931035  C 12.96551225939918 3.2492069682482283  12.96551225939918 2.9436206179586692  12.782630630630631 2.755103448275862  C 12.599693763267908 2.5666432021841348  12.30315308357894 2.5666432021841348  12.120216216216216 2.755103448275862  L 11.4578018018018 3.437724137931035  C 11.37344519693494 3.5277292200022905  11.326297177457892 3.6479714824112413  11.326297177457892 3.773102245510897  C 11.326297177457892 4.039722469567143  11.536037655014638 4.255860866200552  11.794765645926361 4.255860866200552  C 11.916192409603507 4.255860866200552  12.032875377243595 4.207274644537866  12.120216216216216 4.120344827586207  L 12.782630630630631 3.437724137931035  Z " stroke-width="0" stroke-dasharray="0" stroke="rgba(255, 255, 255, 0)" fill="none" transform="matrix(1 0 0 1 45 224 )" class="stroke" mask="url(#Clip8)" />
    <path d="M 12.297297297297296 13.034482758620689  L 11.594594594594595 13.034482758620689  L 11.594594594594595 7.724137931034482  C 11.594594594594595 4.791379310344828  9.287387387387387 2.413793103448276  6.441441441441441 2.413793103448276  C 3.5954954954954954 2.413793103448276  1.2882882882882882 4.791379310344828  1.2882882882882882 7.724137931034482  L 1.2882882882882882 13.034482758620689  L 0.5855855855855856 13.034482758620689  C 0.32685759467386266 13.034482758620689  0.11711711711711711 13.2506211552541  0.11711711711711711 13.517241379310345  C 0.11711711711711711 13.78386160336659  0.32685759467386266 14  0.5855855855855856 14  L 12.297297297297296 14  C 12.55602528820902 14  12.765765765765765 13.78386160336659  12.765765765765765 13.517241379310345  C 12.765765765765765 13.2506211552541  12.55602528820902 13.034482758620689  12.297297297297296 13.034482758620689  Z " stroke-width="0" stroke-dasharray="0" stroke="rgba(255, 255, 255, 0)" fill="none" transform="matrix(1 0 0 1 45 224 )" class="stroke" mask="url(#Clip8)" />
    <path d="M 10.657657657657657 13.034482758620689  L 6.90990990990991 13.034482758620689  L 6.90990990990991 11.10344827586207  C 6.90990990990991 10.836828051805824  6.700169432353165 10.620689655172413  6.441441441441441 10.620689655172413  C 6.182713450529718 10.620689655172413  5.972972972972974 10.836828051805824  5.972972972972974 11.10344827586207  L 5.972972972972974 13.034482758620689  L 2.225225225225225 13.034482758620689  L 2.225225225225225 7.724137931034482  C 2.225225225225225 5.324344827586207  4.112684684684685 3.3793103448275863  6.441441441441441 3.3793103448275863  C 8.770198198198198 3.3793103448275863  10.657657657657657 5.324344827586207  10.657657657657657 7.724137931034482  L 10.657657657657657 13.034482758620689  Z " stroke-width="0" stroke-dasharray="0" stroke="rgba(255, 255, 255, 0)" fill="none" transform="matrix(1 0 0 1 45 224 )" class="stroke" mask="url(#Clip8)" />
    <path d="M 6.441441441441441 6.275862068965518  C 5.40652947779455 6.275862068965518  4.5675675675675675 7.140415655499158  4.5675675675675675 8.206896551724137  C 4.5675675675675675 9.273377447949118  5.40652947779455 10.137931034482758  6.441441441441441 10.137931034482758  C 7.476353405088333 10.137931034482758  8.315315315315315 9.273377447949118  8.315315315315315 8.206896551724137  C 8.315315315315315 7.140415655499158  7.476353405088333 6.275862068965518  6.441441441441441 6.275862068965518  Z " stroke-width="0" stroke-dasharray="0" stroke="rgba(255, 255, 255, 0)" fill="none" transform="matrix(1 0 0 1 45 224 )" class="stroke" mask="url(#Clip8)" />
    <path d="M 6.441441441441441 9.172413793103448  C 5.92394756741172 9.17228050655104  5.504504475232544 8.739934685252267  5.504504475232544 8.206655172413793  C 5.504504475232544 7.673281397529674  5.924090313690317 7.240896521559264  6.441675675675676 7.240896521559264  C 6.959403783939632 7.241029838276544  7.378846876118809 7.673375659575315  7.378846876118809 8.206655172413793  C 7.378846876118809 8.74002894729791  6.959261037661037 9.17241382326832  6.441675675675676 9.17241382326832  Z " stroke-width="0" stroke-dasharray="0" stroke="rgba(255, 255, 255, 0)" fill="none" transform="matrix(1 0 0 1 45 224 )" class="stroke" mask="url(#Clip8)" />
  </g>
</svg>