<?xml version="1.0" encoding="utf-8"?>
<svg version="1.1" xmlns:xlink="http://www.w3.org/1999/xlink" width="34px" height="45px" xmlns="http://www.w3.org/2000/svg">
  <defs>
    <pattern id="BGPattern" patternUnits="userSpaceOnUse" alignment="0 0" imageRepeat="None" />
    <mask fill="white" id="Clip113">
      <path d="M 10.632344256024092 0.6868051874999943  C 10.880404067207905 0.3157231694791128  11.290838614847868 0.08507554145143911  11.737197912650602 0.06592208522727251  L 11.797122195783132 0  L 28.16393804518073 0  C 28.9411017223958 0.0460271731473422  29.594134499375695 0.6513651863704161  29.624592075301205 1.4273766306818179  C 29.628337349397587 1.5732467386363629  29.609611030120483 1.7191168977272717  29.568413066265062 1.8575064715909086  L 29.49350773795181 2.0632208011363633  L 23.381232343373497 15.382285721590906  L 32.332419972891564 15.475792193181817  L 32.369872611445786 15.468311710227272  L 32.710691888554216 15.50571427840909  C 33.34240045063511 15.635720904132572  33.804241929327205 16.178700368454635  33.83052669277109 16.822285721590905  C 33.839008333707405 17.08299388581861  33.77413233805784 17.3408551325021  33.64326334638554 17.566597380681817  L 33.48596214156627 17.791012994318184  L 11.066795180722892 44.429142835227275  C 10.817165985943067 44.73673045465435  10.447857758208135 44.923179126725515  10.051827897590364 44.94155844886364  C 10.034045676640341 44.942230175689104  10.016252328960409 44.94256612913242  9.998457391260894 44.94256612913242  C 9.238662440598182 44.94256612913242  8.61510082036077 44.342119938896026  8.587428593373495 43.58384417045454  L 8.606154912650602 43.39683117613636  L 8.64360755120482 43.221038982954546  L 12.441308111445784 26  L 1.6437039367469894 26  C 1.6255651292810411 26.68605147567218  1.607414448243904 26.686401990749708  1.5892620704387737 26.686401990749708  C 0.8115234770082429 26.686401990749708  0.18104177525805124 26.05676317897512  0.18104177525805124 25.28006434302243  C 0.18104177525805124 25.15850360374646  0.1968237633163794 25.037455869889452  0.22799309337349427 24.91994807386363  L 0.2954079246987959 24.72545454545454  L 10.505005141566265 0.9224415511363582  L 10.632344256024092 0.6868051874999943  Z M 24.564736653614453 4  L 13.336426828313254 4  L 5.138037858433734 23  L 17.145363159638553 23  L 14.463752129518069 34.57729871590909  L 27.433611030120478 19.163688289772725  L 17.57606886144578 19.062701284090906  L 24.564736653614453 4  Z " fill-rule="evenodd" />
    </mask>
  </defs>
  <g transform="matrix(1 0 0 1 -1092 -312 )">
    <path d="M 10.632344256024092 0.6868051874999943  C 10.880404067207905 0.3157231694791128  11.290838614847868 0.08507554145143911  11.737197912650602 0.06592208522727251  L 11.797122195783132 0  L 28.16393804518073 0  C 28.9411017223958 0.0460271731473422  29.594134499375695 0.6513651863704161  29.624592075301205 1.4273766306818179  C 29.628337349397587 1.5732467386363629  29.609611030120483 1.7191168977272717  29.568413066265062 1.8575064715909086  L 29.49350773795181 2.0632208011363633  L 23.381232343373497 15.382285721590906  L 32.332419972891564 15.475792193181817  L 32.369872611445786 15.468311710227272  L 32.710691888554216 15.50571427840909  C 33.34240045063511 15.635720904132572  33.804241929327205 16.178700368454635  33.83052669277109 16.822285721590905  C 33.839008333707405 17.08299388581861  33.77413233805784 17.3408551325021  33.64326334638554 17.566597380681817  L 33.48596214156627 17.791012994318184  L 11.066795180722892 44.429142835227275  C 10.817165985943067 44.73673045465435  10.447857758208135 44.923179126725515  10.051827897590364 44.94155844886364  C 10.034045676640341 44.942230175689104  10.016252328960409 44.94256612913242  9.998457391260894 44.94256612913242  C 9.238662440598182 44.94256612913242  8.61510082036077 44.342119938896026  8.587428593373495 43.58384417045454  L 8.606154912650602 43.39683117613636  L 8.64360755120482 43.221038982954546  L 12.441308111445784 26  L 1.6437039367469894 26  C 1.6255651292810411 26.68605147567218  1.607414448243904 26.686401990749708  1.5892620704387737 26.686401990749708  C 0.8115234770082429 26.686401990749708  0.18104177525805124 26.05676317897512  0.18104177525805124 25.28006434302243  C 0.18104177525805124 25.15850360374646  0.1968237633163794 25.037455869889452  0.22799309337349427 24.91994807386363  L 0.2954079246987959 24.72545454545454  L 10.505005141566265 0.9224415511363582  L 10.632344256024092 0.6868051874999943  Z M 24.564736653614453 4  L 13.336426828313254 4  L 5.138037858433734 23  L 17.145363159638553 23  L 14.463752129518069 34.57729871590909  L 27.433611030120478 19.163688289772725  L 17.57606886144578 19.062701284090906  L 24.564736653614453 4  Z " fill-rule="nonzero" fill="rgba(0, 82, 217, 1)" stroke="none" transform="matrix(1 0 0 1 1092 312 )" class="fill" />
    <path d="M 10.632344256024092 0.6868051874999943  C 10.880404067207905 0.3157231694791128  11.290838614847868 0.08507554145143911  11.737197912650602 0.06592208522727251  L 11.797122195783132 0  L 28.16393804518073 0  C 28.9411017223958 0.0460271731473422  29.594134499375695 0.6513651863704161  29.624592075301205 1.4273766306818179  C 29.628337349397587 1.5732467386363629  29.609611030120483 1.7191168977272717  29.568413066265062 1.8575064715909086  L 29.49350773795181 2.0632208011363633  L 23.381232343373497 15.382285721590906  L 32.332419972891564 15.475792193181817  L 32.369872611445786 15.468311710227272  L 32.710691888554216 15.50571427840909  C 33.34240045063511 15.635720904132572  33.804241929327205 16.178700368454635  33.83052669277109 16.822285721590905  C 33.839008333707405 17.08299388581861  33.77413233805784 17.3408551325021  33.64326334638554 17.566597380681817  L 33.48596214156627 17.791012994318184  L 11.066795180722892 44.429142835227275  C 10.817165985943067 44.73673045465435  10.447857758208135 44.923179126725515  10.051827897590364 44.94155844886364  C 10.034045676640341 44.942230175689104  10.016252328960409 44.94256612913242  9.998457391260894 44.94256612913242  C 9.238662440598182 44.94256612913242  8.61510082036077 44.342119938896026  8.587428593373495 43.58384417045454  L 8.606154912650602 43.39683117613636  L 8.64360755120482 43.221038982954546  L 12.441308111445784 26  L 1.6437039367469894 26  C 1.6255651292810411 26.68605147567218  1.607414448243904 26.686401990749708  1.5892620704387737 26.686401990749708  C 0.8115234770082429 26.686401990749708  0.18104177525805124 26.05676317897512  0.18104177525805124 25.28006434302243  C 0.18104177525805124 25.15850360374646  0.1968237633163794 25.037455869889452  0.22799309337349427 24.91994807386363  L 0.2954079246987959 24.72545454545454  L 10.505005141566265 0.9224415511363582  L 10.632344256024092 0.6868051874999943  Z " stroke-width="0" stroke-dasharray="0" stroke="rgba(255, 255, 255, 0)" fill="none" transform="matrix(1 0 0 1 1092 312 )" class="stroke" mask="url(#Clip113)" />
    <path d="M 24.564736653614453 4  L 13.336426828313254 4  L 5.138037858433734 23  L 17.145363159638553 23  L 14.463752129518069 34.57729871590909  L 27.433611030120478 19.163688289772725  L 17.57606886144578 19.062701284090906  L 24.564736653614453 4  Z " stroke-width="0" stroke-dasharray="0" stroke="rgba(255, 255, 255, 0)" fill="none" transform="matrix(1 0 0 1 1092 312 )" class="stroke" mask="url(#Clip113)" />
  </g>
</svg>