<?xml version="1.0" encoding="utf-8"?>
<svg version="1.1" xmlns:xlink="http://www.w3.org/1999/xlink" width="4px" height="4px" xmlns="http://www.w3.org/2000/svg">
  <defs>
    <pattern id="BGPattern" patternUnits="userSpaceOnUse" alignment="0 0" imageRepeat="None" />
    <mask fill="white" id="Clip114">
      <path d="M 0 2  C 0 0.8799999999999999  0.8799999999999999 0  2 0  C 3.12 0  4 0.8799999999999999  4 2  C 4 3.12  3.12 4  2 4  C 0.8799999999999999 4  0 3.12  0 2  Z " fill-rule="evenodd" />
    </mask>
  </defs>
  <g transform="matrix(1 0 0 1 0 -5 )">
    <path d="M 0 2  C 0 0.8799999999999999  0.8799999999999999 0  2 0  C 3.12 0  4 0.8799999999999999  4 2  C 4 3.12  3.12 4  2 4  C 0.8799999999999999 4  0 3.12  0 2  Z " fill-rule="nonzero" fill="rgba(0, 168, 112, 1)" stroke="none" transform="matrix(1 0 0 1 0 5 )" class="fill" />
    <path d="M 0 2  C 0 0.8799999999999999  0.8799999999999999 0  2 0  C 3.12 0  4 0.8799999999999999  4 2  C 4 3.12  3.12 4  2 4  C 0.8799999999999999 4  0 3.12  0 2  Z " stroke-width="2" stroke-dasharray="0" stroke="rgba(0, 168, 112, 1)" fill="none" transform="matrix(1 0 0 1 0 5 )" class="stroke" mask="url(#Clip114)" />
  </g>
</svg>