<?xml version="1.0" encoding="utf-8"?>
<svg version="1.1" xmlns:xlink="http://www.w3.org/1999/xlink" width="88px" height="90px" xmlns="http://www.w3.org/2000/svg">
  <defs>
    <pattern id="BGPattern" patternUnits="userSpaceOnUse" alignment="0 0" imageRepeat="None" />
    <mask fill="white" id="Clip1225">
      <path d="M 43 19.315120711562894  L 43 0.05146124523506534  C 42.85416587975885 0.05146124523501333  42.85416440108904 0.05146124523495808  42.85416361418122 0.05146124523495808  C 67.72740038637839 0.05146124523495808  87.89114278084786 20.175607518564817  87.89114278084786 44.999999999999886  C 87.89114278084786 69.82439248143496  67.72740038637839 89.94853875476481  42.85416361418122 89.94853875476481  C 23.342960178103645 89.94853875476481  6.050741971156108 77.40967714767841  0.021450000000002113 58.889858958068615  L 18.378330208333335 52.9370622617535  C 21.823639906136812 63.51981551295914  31.704907452963997 70.68487928843712  42.85416655929408 70.68487928843712  C 57.06744471483532 70.68487928843712  68.58958322596072 59.185367132248615  68.58958322596072 45  C 68.58958322596072 30.814632867751406  57.0674447148353 19.3151207115629  42.85416655929408 19.3151207115629  C 42.85416655929408 19.3151207115629  42.85416666666668 19.315120711562894  43 19.315120711562894  Z " fill-rule="evenodd" />
    </mask>
  </defs>
  <g transform="matrix(1 0 0 1 -1815 -289 )">
    <path d="M 43 19.315120711562894  L 43 0.05146124523506534  C 42.85416587975885 0.05146124523501333  42.85416440108904 0.05146124523495808  42.85416361418122 0.05146124523495808  C 67.72740038637839 0.05146124523495808  87.89114278084786 20.175607518564817  87.89114278084786 44.999999999999886  C 87.89114278084786 69.82439248143496  67.72740038637839 89.94853875476481  42.85416361418122 89.94853875476481  C 23.342960178103645 89.94853875476481  6.050741971156108 77.40967714767841  0.021450000000002113 58.889858958068615  L 18.378330208333335 52.9370622617535  C 21.823639906136812 63.51981551295914  31.704907452963997 70.68487928843712  42.85416655929408 70.68487928843712  C 57.06744471483532 70.68487928843712  68.58958322596072 59.185367132248615  68.58958322596072 45  C 68.58958322596072 30.814632867751406  57.0674447148353 19.3151207115629  42.85416655929408 19.3151207115629  C 42.85416655929408 19.3151207115629  42.85416666666668 19.315120711562894  43 19.315120711562894  Z " fill-rule="nonzero" fill="rgba(64, 158, 255, 1)" stroke="none" transform="matrix(1 0 0 1 1815 289 )" class="fill" />
    <path d="M 43 19.315120711562894  L 43 0.05146124523506534  C 42.85416587975885 0.05146124523501333  42.85416440108904 0.05146124523495808  42.85416361418122 0.05146124523495808  C 67.72740038637839 0.05146124523495808  87.89114278084786 20.175607518564817  87.89114278084786 44.999999999999886  C 87.89114278084786 69.82439248143496  67.72740038637839 89.94853875476481  42.85416361418122 89.94853875476481  C 23.342960178103645 89.94853875476481  6.050741971156108 77.40967714767841  0.021450000000002113 58.889858958068615  L 18.378330208333335 52.9370622617535  C 21.823639906136812 63.51981551295914  31.704907452963997 70.68487928843712  42.85416655929408 70.68487928843712  C 57.06744471483532 70.68487928843712  68.58958322596072 59.185367132248615  68.58958322596072 45  C 68.58958322596072 30.814632867751406  57.0674447148353 19.3151207115629  42.85416655929408 19.3151207115629  C 42.85416655929408 19.3151207115629  42.85416666666668 19.315120711562894  43 19.315120711562894  Z " stroke-width="0" stroke-dasharray="0" stroke="rgba(255, 255, 255, 0)" fill="none" transform="matrix(1 0 0 1 1815 289 )" class="stroke" mask="url(#Clip1225)" />
  </g>
</svg>