<?xml version="1.0" encoding="utf-8"?>
<svg version="1.1" xmlns:xlink="http://www.w3.org/1999/xlink" width="45px" height="59px" xmlns="http://www.w3.org/2000/svg">
  <defs>
    <pattern id="BGPattern" patternUnits="userSpaceOnUse" alignment="0 0" imageRepeat="None" />
    <mask fill="white" id="Clip1226">
      <path d="M 20.6032271573604 53.03185786407767  L 2.305644670050763 58.995314368932036  C 0.8499538999658801 54.50143202693404  0.10849949544598891 49.80572992532283  0.10849949544598891 45.080582524271726  C 0.10849949544598891 20.211736438177347  20.20710751208379 0.051553398058140416  44.9999969573749 0.051553398058140416  L 45 19.349708737864077  C 30.832634495665012 19.349708737864084  19.347715629014854 30.869813332217916  19.347715629014854 45.08058252427184  C 19.347715629014854 47.780666753443896  19.771403860169055 50.463925097221704  20.6032271573604 53.03185786407767  Z " fill-rule="evenodd" />
    </mask>
  </defs>
  <g transform="matrix(1 0 0 1 -1813 -289 )">
    <path d="M 20.6032271573604 53.03185786407767  L 2.305644670050763 58.995314368932036  C 0.8499538999658801 54.50143202693404  0.10849949544598891 49.80572992532283  0.10849949544598891 45.080582524271726  C 0.10849949544598891 20.211736438177347  20.20710751208379 0.051553398058140416  44.9999969573749 0.051553398058140416  L 45 19.349708737864077  C 30.832634495665012 19.349708737864084  19.347715629014854 30.869813332217916  19.347715629014854 45.08058252427184  C 19.347715629014854 47.780666753443896  19.771403860169055 50.463925097221704  20.6032271573604 53.03185786407767  Z " fill-rule="nonzero" fill="rgba(240, 240, 240, 1)" stroke="none" transform="matrix(1 0 0 1 1813 289 )" class="fill" />
    <path d="M 20.6032271573604 53.03185786407767  L 2.305644670050763 58.995314368932036  C 0.8499538999658801 54.50143202693404  0.10849949544598891 49.80572992532283  0.10849949544598891 45.080582524271726  C 0.10849949544598891 20.211736438177347  20.20710751208379 0.051553398058140416  44.9999969573749 0.051553398058140416  L 45 19.349708737864077  C 30.832634495665012 19.349708737864084  19.347715629014854 30.869813332217916  19.347715629014854 45.08058252427184  C 19.347715629014854 47.780666753443896  19.771403860169055 50.463925097221704  20.6032271573604 53.03185786407767  Z " stroke-width="0" stroke-dasharray="0" stroke="rgba(255, 255, 255, 0)" fill="none" transform="matrix(1 0 0 1 1813 289 )" class="stroke" mask="url(#Clip1226)" />
  </g>
</svg>