<?xml version="1.0" encoding="utf-8"?>
<svg version="1.1" xmlns:xlink="http://www.w3.org/1999/xlink" width="18px" height="16px" xmlns="http://www.w3.org/2000/svg">
  <defs>
    <pattern id="BGPattern" patternUnits="userSpaceOnUse" alignment="0 0" imageRepeat="None" />
    <mask fill="white" id="Clip1">
      <path d="M 17.999999999999996 1.7660000000000002  C 17.999999999999996 0.7920000000000005  17.214508928571426 0  16.24821428571428 0  L 1.7517857142857138 0  C 0.7854910714285714 0  0 0.7919999999999999  0 1.7660000000000002  L 0 10.76  C 0 11.734000000000002  0.7854910714285714 12.526  1.7517857142857138 12.526  L 7.7504464285714265 12.526  L 4.54017857142857 16  L 13.459821428571425 16  L 10.249553571428569 12.526  L 16.248214285714283 12.526  C 17.214508928571426 12.526  17.999999999999996 11.733999999999998  17.999999999999996 10.76  L 17.999999999999996 1.7660000000000002  Z M 1.2736607142857141 1.7660000000000002  C 1.2736607142857141 1.5  1.4886160714285712 1.2840000000000003  1.7517857142857127 1.2839999999999998  L 16.24821428571428 1.2839999999999998  C 16.511383928571423 1.2839999999999998  16.72633928571428 1.5  16.72633928571428 1.7659999999999996  L 16.72633928571428 8  L 1.2736607142857141 8  L 1.2736607142857141 1.7660000000000002  Z M 16.724330357142854 10.76  C 16.726339285714282 11.026  16.511383928571423 11.242  16.24821428571428 11  L 1.7517857142857138 11  C 1.4886160714285712 11.241999999999997  1.273660714285714 11.026  1.273660714285714 10.759999999999998  L 1.273660714285714 9  L 16.724330357142854 9  L 16.724330357142854 10.76  Z " fill-rule="evenodd" />
    </mask>
  </defs>
  <g transform="matrix(1 0 0 1 -42 -92 )">
    <path d="M 17.999999999999996 1.7660000000000002  C 17.999999999999996 0.7920000000000005  17.214508928571426 0  16.24821428571428 0  L 1.7517857142857138 0  C 0.7854910714285714 0  0 0.7919999999999999  0 1.7660000000000002  L 0 10.76  C 0 11.734000000000002  0.7854910714285714 12.526  1.7517857142857138 12.526  L 7.7504464285714265 12.526  L 4.54017857142857 16  L 13.459821428571425 16  L 10.249553571428569 12.526  L 16.248214285714283 12.526  C 17.214508928571426 12.526  17.999999999999996 11.733999999999998  17.999999999999996 10.76  L 17.999999999999996 1.7660000000000002  Z M 1.2736607142857141 1.7660000000000002  C 1.2736607142857141 1.5  1.4886160714285712 1.2840000000000003  1.7517857142857127 1.2839999999999998  L 16.24821428571428 1.2839999999999998  C 16.511383928571423 1.2839999999999998  16.72633928571428 1.5  16.72633928571428 1.7659999999999996  L 16.72633928571428 8  L 1.2736607142857141 8  L 1.2736607142857141 1.7660000000000002  Z M 16.724330357142854 10.76  C 16.726339285714282 11.026  16.511383928571423 11.242  16.24821428571428 11  L 1.7517857142857138 11  C 1.4886160714285712 11.241999999999997  1.273660714285714 11.026  1.273660714285714 10.759999999999998  L 1.273660714285714 9  L 16.724330357142854 9  L 16.724330357142854 10.76  Z " fill-rule="nonzero" fill="rgba(85, 85, 85, 1)" stroke="none" transform="matrix(1 0 0 1 42 92 )" class="fill" />
    <path d="M 17.999999999999996 1.7660000000000002  C 17.999999999999996 0.7920000000000005  17.214508928571426 0  16.24821428571428 0  L 1.7517857142857138 0  C 0.7854910714285714 0  0 0.7919999999999999  0 1.7660000000000002  L 0 10.76  C 0 11.734000000000002  0.7854910714285714 12.526  1.7517857142857138 12.526  L 7.7504464285714265 12.526  L 4.54017857142857 16  L 13.459821428571425 16  L 10.249553571428569 12.526  L 16.248214285714283 12.526  C 17.214508928571426 12.526  17.999999999999996 11.733999999999998  17.999999999999996 10.76  L 17.999999999999996 1.7660000000000002  Z " stroke-width="0" stroke-dasharray="0" stroke="rgba(255, 255, 255, 0)" fill="none" transform="matrix(1 0 0 1 42 92 )" class="stroke" mask="url(#Clip1)" />
    <path d="M 1.2736607142857141 1.7660000000000002  C 1.2736607142857141 1.5  1.4886160714285712 1.2840000000000003  1.7517857142857127 1.2839999999999998  L 16.24821428571428 1.2839999999999998  C 16.511383928571423 1.2839999999999998  16.72633928571428 1.5  16.72633928571428 1.7659999999999996  L 16.72633928571428 8  L 1.2736607142857141 8  L 1.2736607142857141 1.7660000000000002  Z " stroke-width="0" stroke-dasharray="0" stroke="rgba(255, 255, 255, 0)" fill="none" transform="matrix(1 0 0 1 42 92 )" class="stroke" mask="url(#Clip1)" />
    <path d="M 16.724330357142854 10.76  C 16.726339285714282 11.026  16.511383928571423 11.242  16.24821428571428 11  L 1.7517857142857138 11  C 1.4886160714285712 11.241999999999997  1.273660714285714 11.026  1.273660714285714 10.759999999999998  L 1.273660714285714 9  L 16.724330357142854 9  L 16.724330357142854 10.76  Z " stroke-width="0" stroke-dasharray="0" stroke="rgba(255, 255, 255, 0)" fill="none" transform="matrix(1 0 0 1 42 92 )" class="stroke" mask="url(#Clip1)" />
  </g>
</svg>