<?xml version="1.0" encoding="utf-8"?>
<svg version="1.1" xmlns:xlink="http://www.w3.org/1999/xlink" width="12px" height="14px" xmlns="http://www.w3.org/2000/svg">
  <defs>
    <pattern id="BGPattern" patternUnits="userSpaceOnUse" alignment="0 0" imageRepeat="None" />
    <mask fill="white" id="Clip9">
      <path d="M 0 7.4327272727272735  C 0 10.690909090909091  2.0000000264965583 12.727272727272727  6 13.94909090909091  C 9.999999973503442 12.727272727272727  11.999999960255163 10.690909090909091  11.999999960255163 7.432727272727273  L 11.999999960255163 2.982865454545454  C 12.00016071424022 2.244568426063917  11.512661089067828 1.5984605622717862  10.81199996812464 1.4083490909090906  L 6 0.1018181818181819  L 1.1880000318753599 1.4083490909090912  C 0.48733891093217346 1.5984605622717862  -0.00016071424021635235 2.244568426063918  0 2.982865454545454  L 0 7.4327272727272735  Z M 5.999200000005299 12.670254545454544  L 5.832000001112856 12.613236363636362  C 2.5936000225644693 11.516043636363637  1.20000003179587 9.904872727272727  1.20000003179587 7.4327272727272735  L 1.20000003179587 2.982865454545454  C 1.1996635205014636 2.798122303995188  1.3214982878060755 2.6362889516355454  1.4968000298298254 2.588625454545454  L 6 1.3668072727272729  L 10.503999970164877 2.588625454545454  C 10.65535719678794 2.6297970101737533  10.769175216886666 2.757145844694228  10.795199968235927 2.9144436363636363  L 10.800799968198831 2.982865454545454  L 10.800799968198831 7.4327272727272735  C 10.800799968198831 9.904058181818181  9.407199977430231 11.51522909090909  6.168799998881844 12.613236363636366  L 6 12.670254545454545  Z " fill-rule="evenodd" />
    </mask>
  </defs>
  <g transform="matrix(1 0 0 1 -46 -269 )">
    <path d="M 0 7.4327272727272735  C 0 10.690909090909091  2.0000000264965583 12.727272727272727  6 13.94909090909091  C 9.999999973503442 12.727272727272727  11.999999960255163 10.690909090909091  11.999999960255163 7.432727272727273  L 11.999999960255163 2.982865454545454  C 12.00016071424022 2.244568426063917  11.512661089067828 1.5984605622717862  10.81199996812464 1.4083490909090906  L 6 0.1018181818181819  L 1.1880000318753599 1.4083490909090912  C 0.48733891093217346 1.5984605622717862  -0.00016071424021635235 2.244568426063918  0 2.982865454545454  L 0 7.4327272727272735  Z M 5.999200000005299 12.670254545454544  L 5.832000001112856 12.613236363636362  C 2.5936000225644693 11.516043636363637  1.20000003179587 9.904872727272727  1.20000003179587 7.4327272727272735  L 1.20000003179587 2.982865454545454  C 1.1996635205014636 2.798122303995188  1.3214982878060755 2.6362889516355454  1.4968000298298254 2.588625454545454  L 6 1.3668072727272729  L 10.503999970164877 2.588625454545454  C 10.65535719678794 2.6297970101737533  10.769175216886666 2.757145844694228  10.795199968235927 2.9144436363636363  L 10.800799968198831 2.982865454545454  L 10.800799968198831 7.4327272727272735  C 10.800799968198831 9.904058181818181  9.407199977430231 11.51522909090909  6.168799998881844 12.613236363636366  L 6 12.670254545454545  Z " fill-rule="nonzero" fill="rgba(0, 0, 0, 1)" stroke="none" transform="matrix(1 0 0 1 46 269 )" class="fill" />
    <path d="M 0 7.4327272727272735  C 0 10.690909090909091  2.0000000264965583 12.727272727272727  6 13.94909090909091  C 9.999999973503442 12.727272727272727  11.999999960255163 10.690909090909091  11.999999960255163 7.432727272727273  L 11.999999960255163 2.982865454545454  C 12.00016071424022 2.244568426063917  11.512661089067828 1.5984605622717862  10.81199996812464 1.4083490909090906  L 6 0.1018181818181819  L 1.1880000318753599 1.4083490909090912  C 0.48733891093217346 1.5984605622717862  -0.00016071424021635235 2.244568426063918  0 2.982865454545454  L 0 7.4327272727272735  Z " stroke-width="0" stroke-dasharray="0" stroke="rgba(255, 255, 255, 0)" fill="none" transform="matrix(1 0 0 1 46 269 )" class="stroke" mask="url(#Clip9)" />
    <path d="M 5.999200000005299 12.670254545454544  L 5.832000001112856 12.613236363636362  C 2.5936000225644693 11.516043636363637  1.20000003179587 9.904872727272727  1.20000003179587 7.4327272727272735  L 1.20000003179587 2.982865454545454  C 1.1996635205014636 2.798122303995188  1.3214982878060755 2.6362889516355454  1.4968000298298254 2.588625454545454  L 6 1.3668072727272729  L 10.503999970164877 2.588625454545454  C 10.65535719678794 2.6297970101737533  10.769175216886666 2.757145844694228  10.795199968235927 2.9144436363636363  L 10.800799968198831 2.982865454545454  L 10.800799968198831 7.4327272727272735  C 10.800799968198831 9.904058181818181  9.407199977430231 11.51522909090909  6.168799998881844 12.613236363636366  L 6 12.670254545454545  Z " stroke-width="0" stroke-dasharray="0" stroke="rgba(255, 255, 255, 0)" fill="none" transform="matrix(1 0 0 1 46 269 )" class="stroke" mask="url(#Clip9)" />
  </g>
</svg>