<?xml version="1.0" encoding="utf-8"?>
<svg version="1.1" xmlns:xlink="http://www.w3.org/1999/xlink" width="5px" height="8px" xmlns="http://www.w3.org/2000/svg">
  <defs>
    <pattern id="BGPattern" patternUnits="userSpaceOnUse" alignment="0 0" imageRepeat="None" />
    <mask fill="white" id="Clip647">
      <path d="M 0.057137682572740746 2.311922668052334  C 0.057137682572740746 1.0780434293792622  1.150445271727605 0.07743731447766412  2.5 0.07619047619047638  C 3.850810137390861 0.07619036219317885  4.945225193360033 1.076798413364993  4.945225193360033 2.311110997113814  C 4.945225193360033 3.3109521257150627  4.218885891989797 4.189146513487691  3.1666666666666665 4.461511111111111  L 3.1666666666666665 5.155555555555555  L 4.2777777777777795 5.155555555555557  C 4.492437609472367 5.155490126324083  4.676472351187751 5.295707072392943  4.71511111111111 5.488761904761904  L 4.7222222222222205 5.56190476190476  L 4.722222222222222 5.968253968253968  C 4.722222222222222 6.192674438026482  4.523237666591463 6.374603174603173  4.277777777777775 6.374603174603173  L 3.1666666666666643 6.374603174603173  L 3.1666666666666643 7.5936507936507915  C 3.1666666666666643 7.818071263423303  2.967682111035905 8  2.722222222222219 7.999999999999998  L 2.2777777777777746 8  C 2.0323178889640876 8  1.8333333333333308 7.818071263423305  1.83333333333333 7.5936507936507915  L 1.83333333333333 4.462323809523808  C 0.7822294318551215 4.188919395359994  0.057137682572740746 3.3110667079825107  0.057137682572740746 2.311922668052334  Z M 2.5 1.2952380952380955  C 1.8863502779657852 1.2952380952380955  1.3888888888888888 1.7500599366798295  1.3888888888888888 2.3111111111111113  C 1.3888888888888888 2.8721622855423936  1.8863502779657852 3.326984126984127  2.5 3.326984126984127  C 3.1136497220342148 3.326984126984127  3.611111111111111 2.8721622855423936  3.611111111111111 2.3111111111111113  C 3.611111111111111 1.7500599366798295  3.1136497220342148 1.2952380952380955  2.5 1.2952380952380955  Z " fill-rule="evenodd" />
    </mask>
  </defs>
  <g transform="matrix(1 0 0 1 -50 -272 )">
    <path d="M 0.057137682572740746 2.311922668052334  C 0.057137682572740746 1.0780434293792622  1.150445271727605 0.07743731447766412  2.5 0.07619047619047638  C 3.850810137390861 0.07619036219317885  4.945225193360033 1.076798413364993  4.945225193360033 2.311110997113814  C 4.945225193360033 3.3109521257150627  4.218885891989797 4.189146513487691  3.1666666666666665 4.461511111111111  L 3.1666666666666665 5.155555555555555  L 4.2777777777777795 5.155555555555557  C 4.492437609472367 5.155490126324083  4.676472351187751 5.295707072392943  4.71511111111111 5.488761904761904  L 4.7222222222222205 5.56190476190476  L 4.722222222222222 5.968253968253968  C 4.722222222222222 6.192674438026482  4.523237666591463 6.374603174603173  4.277777777777775 6.374603174603173  L 3.1666666666666643 6.374603174603173  L 3.1666666666666643 7.5936507936507915  C 3.1666666666666643 7.818071263423303  2.967682111035905 8  2.722222222222219 7.999999999999998  L 2.2777777777777746 8  C 2.0323178889640876 8  1.8333333333333308 7.818071263423305  1.83333333333333 7.5936507936507915  L 1.83333333333333 4.462323809523808  C 0.7822294318551215 4.188919395359994  0.057137682572740746 3.3110667079825107  0.057137682572740746 2.311922668052334  Z M 2.5 1.2952380952380955  C 1.8863502779657852 1.2952380952380955  1.3888888888888888 1.7500599366798295  1.3888888888888888 2.3111111111111113  C 1.3888888888888888 2.8721622855423936  1.8863502779657852 3.326984126984127  2.5 3.326984126984127  C 3.1136497220342148 3.326984126984127  3.611111111111111 2.8721622855423936  3.611111111111111 2.3111111111111113  C 3.611111111111111 1.7500599366798295  3.1136497220342148 1.2952380952380955  2.5 1.2952380952380955  Z " fill-rule="nonzero" fill="rgba(0, 0, 0, 1)" stroke="none" transform="matrix(1 0 0 1 50 272 )" class="fill" />
    <path d="M 0.057137682572740746 2.311922668052334  C 0.057137682572740746 1.0780434293792622  1.150445271727605 0.07743731447766412  2.5 0.07619047619047638  C 3.850810137390861 0.07619036219317885  4.945225193360033 1.076798413364993  4.945225193360033 2.311110997113814  C 4.945225193360033 3.3109521257150627  4.218885891989797 4.189146513487691  3.1666666666666665 4.461511111111111  L 3.1666666666666665 5.155555555555555  L 4.2777777777777795 5.155555555555557  C 4.492437609472367 5.155490126324083  4.676472351187751 5.295707072392943  4.71511111111111 5.488761904761904  L 4.7222222222222205 5.56190476190476  L 4.722222222222222 5.968253968253968  C 4.722222222222222 6.192674438026482  4.523237666591463 6.374603174603173  4.277777777777775 6.374603174603173  L 3.1666666666666643 6.374603174603173  L 3.1666666666666643 7.5936507936507915  C 3.1666666666666643 7.818071263423303  2.967682111035905 8  2.722222222222219 7.999999999999998  L 2.2777777777777746 8  C 2.0323178889640876 8  1.8333333333333308 7.818071263423305  1.83333333333333 7.5936507936507915  L 1.83333333333333 4.462323809523808  C 0.7822294318551215 4.188919395359994  0.057137682572740746 3.3110667079825107  0.057137682572740746 2.311922668052334  Z " stroke-width="0" stroke-dasharray="0" stroke="rgba(255, 255, 255, 0)" fill="none" transform="matrix(1 0 0 1 50 272 )" class="stroke" mask="url(#Clip647)" />
    <path d="M 2.5 1.2952380952380955  C 1.8863502779657852 1.2952380952380955  1.3888888888888888 1.7500599366798295  1.3888888888888888 2.3111111111111113  C 1.3888888888888888 2.8721622855423936  1.8863502779657852 3.326984126984127  2.5 3.326984126984127  C 3.1136497220342148 3.326984126984127  3.611111111111111 2.8721622855423936  3.611111111111111 2.3111111111111113  C 3.611111111111111 1.7500599366798295  3.1136497220342148 1.2952380952380955  2.5 1.2952380952380955  Z " stroke-width="0" stroke-dasharray="0" stroke="rgba(255, 255, 255, 0)" fill="none" transform="matrix(1 0 0 1 50 272 )" class="stroke" mask="url(#Clip647)" />
  </g>
</svg>