<?xml version="1.0" encoding="utf-8"?>
<svg version="1.1" xmlns:xlink="http://www.w3.org/1999/xlink" width="6px" height="10px" xmlns="http://www.w3.org/2000/svg">
  <defs>
    <pattern id="BGPattern" patternUnits="userSpaceOnUse" alignment="0 0" imageRepeat="None" />
    <mask fill="white" id="Clip79">
      <path d="M 0.1373000000000033 9.647099999999998  L 0.1373000000000033 3.607800000000001  C 0.1373000000000033 2.091799999999999  1.3663000000000025 0.8627000000000002  2.882399999999997 0.8627000000000002  C 4.398400000000002 0.8627000000000002  5.627499999999998 2.091799999999999  5.627499999999998 3.607800000000001  L 5.627499999999998 9.647099999999998  L 0.1373000000000033 9.647099999999998  Z " fill-rule="evenodd" />
    </mask>
  </defs>
  <g transform="matrix(1 0 0 1 -569 -170 )">
    <path d="M 0.1373000000000033 9.647099999999998  L 0.1373000000000033 3.607800000000001  C 0.1373000000000033 2.091799999999999  1.3663000000000025 0.8627000000000002  2.882399999999997 0.8627000000000002  C 4.398400000000002 0.8627000000000002  5.627499999999998 2.091799999999999  5.627499999999998 3.607800000000001  L 5.627499999999998 9.647099999999998  L 0.1373000000000033 9.647099999999998  Z " fill-rule="nonzero" fill="rgba(0, 82, 217, 1)" stroke="none" transform="matrix(1 0 0 1 569 170 )" class="fill" />
    <path d="M 0.1373000000000033 9.647099999999998  L 0.1373000000000033 3.607800000000001  C 0.1373000000000033 2.091799999999999  1.3663000000000025 0.8627000000000002  2.882399999999997 0.8627000000000002  C 4.398400000000002 0.8627000000000002  5.627499999999998 2.091799999999999  5.627499999999998 3.607800000000001  L 5.627499999999998 9.647099999999998  L 0.1373000000000033 9.647099999999998  Z " stroke-width="0" stroke-dasharray="0" stroke="rgba(255, 255, 255, 0)" fill="none" transform="matrix(1 0 0 1 569 170 )" class="stroke" mask="url(#Clip79)" />
  </g>
</svg>