<?xml version="1.0" encoding="utf-8"?>
<svg version="1.1" xmlns:xlink="http://www.w3.org/1999/xlink" width="12px" height="2px" xmlns="http://www.w3.org/2000/svg">
  <defs>
    <pattern id="BGPattern" patternUnits="userSpaceOnUse" alignment="0 0" imageRepeat="None" />
    <mask fill="white" id="Clip115">
      <path d="M 0 1  C 0 0.4477152500000017  0.44771524999998746 0  1 0  C 1.5522847500000125 0  2 0.4477152500000017  2 1  C 2 1.5522847499999983  1.5522847500000125 2  1 2  C 0.44771524999998746 2  0 1.5522847499999983  0 1  Z M 5 1  C 5 0.4477152500000017  5.4477152499999875 0  6 0  C 6.5522847500000125 0  7 0.4477152500000017  7 1  C 7 1.5522847499999983  6.5522847500000125 2  6 2  C 5.4477152499999875 2  5 1.5522847499999983  5 1  Z M 10 1  C 10 0.4477152500000017  10.447715300000027 0  11 0  C 11.552284699999973 0  12 0.4477152500000017  12 1  C 12 1.5522847499999983  11.552284699999973 2  11 2  C 10.447715300000027 2  10 1.5522847499999983  10 1  Z " fill-rule="evenodd" />
    </mask>
  </defs>
  <g transform="matrix(1 0 0 1 -1805 -951 )">
    <path d="M 0 1  C 0 0.4477152500000017  0.44771524999998746 0  1 0  C 1.5522847500000125 0  2 0.4477152500000017  2 1  C 2 1.5522847499999983  1.5522847500000125 2  1 2  C 0.44771524999998746 2  0 1.5522847499999983  0 1  Z M 5 1  C 5 0.4477152500000017  5.4477152499999875 0  6 0  C 6.5522847500000125 0  7 0.4477152500000017  7 1  C 7 1.5522847499999983  6.5522847500000125 2  6 2  C 5.4477152499999875 2  5 1.5522847499999983  5 1  Z M 10 1  C 10 0.4477152500000017  10.447715300000027 0  11 0  C 11.552284699999973 0  12 0.4477152500000017  12 1  C 12 1.5522847499999983  11.552284699999973 2  11 2  C 10.447715300000027 2  10 1.5522847499999983  10 1  Z " fill-rule="nonzero" fill="rgba(0, 0, 0, 0.2980392156862745)" stroke="none" transform="matrix(1 0 0 1 1805 951 )" class="fill" />
    <path d="M 0 1  C 0 0.4477152500000017  0.44771524999998746 0  1 0  C 1.5522847500000125 0  2 0.4477152500000017  2 1  C 2 1.5522847499999983  1.5522847500000125 2  1 2  C 0.44771524999998746 2  0 1.5522847499999983  0 1  Z " stroke-width="0" stroke-dasharray="0" stroke="rgba(255, 255, 255, 0)" fill="none" transform="matrix(1 0 0 1 1805 951 )" class="stroke" mask="url(#Clip115)" />
    <path d="M 5 1  C 5 0.4477152500000017  5.4477152499999875 0  6 0  C 6.5522847500000125 0  7 0.4477152500000017  7 1  C 7 1.5522847499999983  6.5522847500000125 2  6 2  C 5.4477152499999875 2  5 1.5522847499999983  5 1  Z " stroke-width="0" stroke-dasharray="0" stroke="rgba(255, 255, 255, 0)" fill="none" transform="matrix(1 0 0 1 1805 951 )" class="stroke" mask="url(#Clip115)" />
    <path d="M 10 1  C 10 0.4477152500000017  10.447715300000027 0  11 0  C 11.552284699999973 0  12 0.4477152500000017  12 1  C 12 1.5522847499999983  11.552284699999973 2  11 2  C 10.447715300000027 2  10 1.5522847499999983  10 1  Z " stroke-width="0" stroke-dasharray="0" stroke="rgba(255, 255, 255, 0)" fill="none" transform="matrix(1 0 0 1 1805 951 )" class="stroke" mask="url(#Clip115)" />
  </g>
</svg>